<svg width="589" height="101" viewBox="0 0 589 101" fill="none" xmlns="http://www.w3.org/2000/svg">
<path d="M119.585 14.054L129.833 40.472C130.253 41.536 130.729 42.25 131.261 42.614C131.793 42.95 132.283 43.132 132.731 43.16V44C132.171 43.944 131.485 43.916 130.673 43.916C129.861 43.888 129.049 43.874 128.237 43.874C127.145 43.874 126.123 43.888 125.171 43.916C124.219 43.916 123.449 43.944 122.861 44V43.16C124.289 43.104 125.199 42.866 125.591 42.446C125.983 41.998 125.899 41.06 125.339 39.632L117.527 18.758L118.199 18.212L110.891 37.196C110.443 38.316 110.177 39.268 110.093 40.052C110.009 40.808 110.079 41.41 110.303 41.858C110.555 42.306 110.961 42.628 111.521 42.824C112.109 43.02 112.837 43.132 113.705 43.16V44C112.921 43.944 112.095 43.916 111.227 43.916C110.387 43.888 109.603 43.874 108.875 43.874C108.175 43.874 107.573 43.888 107.069 43.916C106.593 43.916 106.145 43.944 105.725 44V43.16C106.285 43.02 106.859 42.698 107.447 42.194C108.035 41.662 108.567 40.766 109.043 39.506L118.913 14.054C119.025 14.054 119.137 14.054 119.249 14.054C119.361 14.054 119.473 14.054 119.585 14.054ZM124.709 31.904V32.744H112.193L112.613 31.904H124.709ZM147.804 21.782C148.868 21.782 149.75 21.922 150.45 22.202C151.178 22.482 151.78 22.874 152.256 23.378C152.788 23.938 153.166 24.638 153.39 25.478C153.614 26.318 153.726 27.452 153.726 28.88V40.094C153.726 41.27 153.964 42.068 154.44 42.488C154.944 42.908 155.77 43.118 156.918 43.118V44C156.442 43.972 155.714 43.944 154.734 43.916C153.754 43.86 152.802 43.832 151.878 43.832C150.954 43.832 150.044 43.86 149.148 43.916C148.28 43.944 147.622 43.972 147.174 44V43.118C148.182 43.118 148.896 42.908 149.316 42.488C149.736 42.068 149.946 41.27 149.946 40.094V27.956C149.946 27.088 149.876 26.29 149.736 25.562C149.596 24.834 149.274 24.246 148.77 23.798C148.294 23.35 147.552 23.126 146.544 23.126C145.368 23.126 144.332 23.462 143.436 24.134C142.568 24.806 141.882 25.73 141.378 26.906C140.902 28.054 140.664 29.342 140.664 30.77V40.094C140.664 41.27 140.874 42.068 141.294 42.488C141.714 42.908 142.428 43.118 143.436 43.118V44C142.988 43.972 142.316 43.944 141.42 43.916C140.552 43.86 139.656 43.832 138.732 43.832C137.808 43.832 136.856 43.86 135.876 43.916C134.896 43.944 134.168 43.972 133.692 44V43.118C134.84 43.118 135.652 42.908 136.128 42.488C136.632 42.068 136.884 41.27 136.884 40.094V26.948C136.884 25.688 136.66 24.764 136.212 24.176C135.764 23.56 134.924 23.252 133.692 23.252V22.37C134.588 22.454 135.456 22.496 136.296 22.496C137.108 22.496 137.878 22.454 138.606 22.37C139.362 22.258 140.048 22.104 140.664 21.908V26.864C141.392 24.96 142.4 23.644 143.688 22.916C145.004 22.16 146.376 21.782 147.804 21.782ZM172.864 21.782C173.928 21.782 174.81 21.922 175.51 22.202C176.238 22.482 176.84 22.874 177.316 23.378C177.848 23.938 178.226 24.638 178.45 25.478C178.674 26.318 178.786 27.452 178.786 28.88V40.094C178.786 41.27 179.024 42.068 179.5 42.488C180.004 42.908 180.83 43.118 181.978 43.118V44C181.502 43.972 180.774 43.944 179.794 43.916C178.814 43.86 177.862 43.832 176.938 43.832C176.014 43.832 175.104 43.86 174.208 43.916C173.34 43.944 172.682 43.972 172.234 44V43.118C173.242 43.118 173.956 42.908 174.376 42.488C174.796 42.068 175.006 41.27 175.006 40.094V27.956C175.006 27.088 174.936 26.29 174.796 25.562C174.656 24.834 174.334 24.246 173.83 23.798C173.354 23.35 172.612 23.126 171.604 23.126C170.428 23.126 169.392 23.462 168.496 24.134C167.628 24.806 166.942 25.73 166.438 26.906C165.962 28.054 165.724 29.342 165.724 30.77V40.094C165.724 41.27 165.934 42.068 166.354 42.488C166.774 42.908 167.488 43.118 168.496 43.118V44C168.048 43.972 167.376 43.944 166.48 43.916C165.612 43.86 164.716 43.832 163.792 43.832C162.868 43.832 161.916 43.86 160.936 43.916C159.956 43.944 159.228 43.972 158.752 44V43.118C159.9 43.118 160.712 42.908 161.188 42.488C161.692 42.068 161.944 41.27 161.944 40.094V26.948C161.944 25.688 161.72 24.764 161.272 24.176C160.824 23.56 159.984 23.252 158.752 23.252V22.37C159.648 22.454 160.516 22.496 161.356 22.496C162.168 22.496 162.938 22.454 163.666 22.37C164.422 22.258 165.108 22.104 165.724 21.908V26.864C166.452 24.96 167.46 23.644 168.748 22.916C170.064 22.16 171.436 21.782 172.864 21.782ZM194.103 21.782C195.895 21.782 197.505 22.174 198.933 22.958C200.361 23.742 201.495 24.974 202.335 26.654C203.203 28.334 203.637 30.518 203.637 33.206C203.637 35.894 203.203 38.078 202.335 39.758C201.495 41.41 200.361 42.628 198.933 43.412C197.505 44.196 195.895 44.588 194.103 44.588C192.339 44.588 190.729 44.196 189.273 43.412C187.845 42.628 186.697 41.41 185.829 39.758C184.989 38.078 184.569 35.894 184.569 33.206C184.569 30.518 184.989 28.334 185.829 26.654C186.697 24.974 187.845 23.742 189.273 22.958C190.729 22.174 192.339 21.782 194.103 21.782ZM194.103 22.622C192.507 22.622 191.191 23.448 190.155 25.1C189.147 26.752 188.643 29.454 188.643 33.206C188.643 36.958 189.147 39.66 190.155 41.312C191.191 42.936 192.507 43.748 194.103 43.748C195.699 43.748 197.001 42.936 198.009 41.312C199.045 39.66 199.563 36.958 199.563 33.206C199.563 29.454 199.045 26.752 198.009 25.1C197.001 23.448 195.699 22.622 194.103 22.622ZM228.664 14.264C228.552 15.328 228.468 16.364 228.412 17.372C228.384 18.352 228.37 19.108 228.37 19.64C228.37 20.312 228.384 20.942 228.412 21.53C228.44 22.118 228.468 22.636 228.496 23.084H227.53C227.334 21.124 227.068 19.584 226.732 18.464C226.396 17.316 225.808 16.49 224.968 15.986C224.128 15.482 222.826 15.23 221.062 15.23H218.794V39.128C218.794 40.248 218.892 41.088 219.088 41.648C219.312 42.208 219.732 42.586 220.348 42.782C220.964 42.978 221.86 43.104 223.036 43.16V44C222.308 43.944 221.384 43.916 220.264 43.916C219.144 43.888 218.01 43.874 216.862 43.874C215.602 43.874 214.412 43.888 213.292 43.916C212.2 43.916 211.318 43.944 210.646 44V43.16C211.822 43.104 212.718 42.978 213.334 42.782C213.95 42.586 214.356 42.208 214.552 41.648C214.776 41.088 214.888 40.248 214.888 39.128V15.23H212.62C210.884 15.23 209.582 15.482 208.714 15.986C207.874 16.49 207.286 17.316 206.95 18.464C206.614 19.584 206.348 21.124 206.152 23.084H205.186C205.242 22.636 205.27 22.118 205.27 21.53C205.298 20.942 205.312 20.312 205.312 19.64C205.312 19.108 205.284 18.352 205.228 17.372C205.2 16.364 205.13 15.328 205.018 14.264C206.194 14.292 207.468 14.32 208.84 14.348C210.24 14.376 211.64 14.39 213.04 14.39C214.44 14.39 215.714 14.39 216.862 14.39C218.01 14.39 219.27 14.39 220.642 14.39C222.042 14.39 223.442 14.376 224.842 14.348C226.242 14.32 227.516 14.292 228.664 14.264ZM252.608 14.264C252.496 15.244 252.412 16.196 252.356 17.12C252.328 18.044 252.314 18.744 252.314 19.22C252.314 19.724 252.328 20.214 252.356 20.69C252.384 21.138 252.412 21.516 252.44 21.824H251.474C251.306 20.172 251.068 18.87 250.76 17.918C250.452 16.938 249.92 16.252 249.164 15.86C248.436 15.44 247.33 15.23 245.846 15.23H242.36C241.408 15.23 240.68 15.314 240.176 15.482C239.7 15.622 239.378 15.944 239.21 16.448C239.042 16.924 238.958 17.68 238.958 18.716V39.548C238.958 40.556 239.042 41.312 239.21 41.816C239.378 42.32 239.7 42.656 240.176 42.824C240.68 42.964 241.408 43.034 242.36 43.034H245.426C247.19 43.034 248.52 42.796 249.416 42.32C250.34 41.844 250.998 41.074 251.39 40.01C251.81 38.918 252.118 37.448 252.314 35.6H253.28C253.196 36.356 253.154 37.364 253.154 38.624C253.154 39.156 253.168 39.926 253.196 40.934C253.252 41.914 253.336 42.936 253.448 44C252.02 43.944 250.41 43.916 248.618 43.916C246.826 43.888 245.23 43.874 243.83 43.874C243.214 43.874 242.416 43.874 241.436 43.874C240.484 43.874 239.448 43.888 238.328 43.916C237.208 43.916 236.074 43.93 234.926 43.958C233.778 43.958 232.686 43.972 231.65 44V43.16C232.602 43.104 233.316 42.992 233.792 42.824C234.296 42.656 234.632 42.32 234.8 41.816C234.968 41.312 235.052 40.556 235.052 39.548V18.716C235.052 17.68 234.968 16.924 234.8 16.448C234.632 15.944 234.296 15.608 233.792 15.44C233.316 15.244 232.602 15.132 231.65 15.104V14.264C232.686 14.292 233.778 14.32 234.926 14.348C236.074 14.348 237.208 14.362 238.328 14.39C239.448 14.39 240.484 14.39 241.436 14.39C242.416 14.39 243.214 14.39 243.83 14.39C245.118 14.39 246.574 14.39 248.198 14.39C249.85 14.362 251.32 14.32 252.608 14.264ZM245.384 28.628C245.384 28.628 245.384 28.768 245.384 29.048C245.384 29.328 245.384 29.468 245.384 29.468H237.698C237.698 29.468 237.698 29.328 237.698 29.048C237.698 28.768 237.698 28.628 237.698 28.628H245.384ZM246.602 23.084C246.49 24.68 246.434 25.898 246.434 26.738C246.462 27.578 246.476 28.348 246.476 29.048C246.476 29.748 246.49 30.518 246.518 31.358C246.546 32.198 246.616 33.416 246.728 35.012H245.762C245.65 34.116 245.51 33.248 245.342 32.408C245.202 31.54 244.866 30.84 244.334 30.308C243.83 29.748 242.962 29.468 241.73 29.468V28.628C242.654 28.628 243.354 28.446 243.83 28.082C244.334 27.69 244.698 27.2 244.922 26.612C245.146 26.024 245.3 25.422 245.384 24.806C245.468 24.162 245.552 23.588 245.636 23.084H246.602ZM257.243 14.264C257.831 14.292 258.601 14.32 259.553 14.348C260.505 14.376 261.443 14.39 262.367 14.39C263.683 14.39 264.943 14.376 266.147 14.348C267.351 14.32 268.205 14.306 268.709 14.306C272.097 14.306 274.631 15.076 276.311 16.616C277.991 18.156 278.831 20.144 278.831 22.58C278.831 23.588 278.663 24.652 278.327 25.772C277.991 26.864 277.403 27.886 276.563 28.838C275.751 29.762 274.631 30.518 273.203 31.106C271.775 31.694 269.969 31.988 267.785 31.988H263.753V31.148H267.365C269.353 31.148 270.865 30.77 271.901 30.014C272.965 29.258 273.679 28.264 274.043 27.032C274.435 25.8 274.631 24.47 274.631 23.042C274.631 20.382 274.099 18.394 273.035 17.078C271.999 15.762 270.207 15.104 267.659 15.104C266.371 15.104 265.531 15.342 265.139 15.818C264.747 16.294 264.551 17.26 264.551 18.716V39.548C264.551 40.556 264.649 41.312 264.845 41.816C265.069 42.32 265.489 42.656 266.105 42.824C266.721 42.992 267.617 43.104 268.793 43.16V44C268.065 43.944 267.141 43.916 266.021 43.916C264.901 43.888 263.767 43.874 262.619 43.874C261.527 43.874 260.505 43.888 259.553 43.916C258.601 43.916 257.831 43.944 257.243 44V43.16C258.195 43.104 258.909 42.992 259.385 42.824C259.889 42.656 260.225 42.32 260.393 41.816C260.561 41.312 260.645 40.556 260.645 39.548V18.716C260.645 17.68 260.561 16.924 260.393 16.448C260.225 15.944 259.889 15.608 259.385 15.44C258.909 15.244 258.195 15.132 257.243 15.104V14.264Z" fill="#00875F"/>
<path d="M121.582 58.3427C123.43 58.3427 124.942 58.6227 126.118 59.1827C127.322 59.7147 128.386 60.3447 129.31 61.0727C129.87 61.4927 130.29 61.5487 130.57 61.2407C130.878 60.9047 131.088 60.1347 131.2 58.9307H132.166C132.11 59.9667 132.068 61.2267 132.04 62.7107C132.012 64.1947 131.998 66.1547 131.998 68.5907H131.032C130.836 67.3867 130.654 66.4347 130.486 65.7347C130.318 65.0067 130.108 64.3907 129.856 63.8867C129.632 63.3827 129.324 62.8787 128.932 62.3747C128.064 61.2267 126.972 60.4007 125.656 59.8967C124.34 59.3647 122.954 59.0987 121.498 59.0987C120.126 59.0987 118.88 59.4487 117.76 60.1487C116.668 60.8207 115.716 61.8007 114.904 63.0887C114.12 64.3767 113.504 65.9307 113.056 67.7507C112.636 69.5707 112.426 71.6147 112.426 73.8827C112.426 76.2347 112.664 78.3207 113.14 80.1407C113.616 81.9327 114.274 83.4447 115.114 84.6767C115.982 85.9087 116.99 86.8467 118.138 87.4907C119.314 88.1067 120.574 88.4147 121.918 88.4147C123.178 88.4147 124.494 88.1627 125.866 87.6587C127.238 87.1547 128.316 86.3427 129.1 85.2227C129.716 84.4107 130.136 83.5287 130.36 82.5767C130.612 81.6247 130.836 80.2947 131.032 78.5867H131.998C131.998 81.1347 132.012 83.1927 132.04 84.7607C132.068 86.3007 132.11 87.6027 132.166 88.6667H131.2C131.088 87.4627 130.892 86.7067 130.612 86.3987C130.36 86.0907 129.926 86.1327 129.31 86.5247C128.274 87.2527 127.168 87.8967 125.992 88.4567C124.844 88.9887 123.36 89.2547 121.54 89.2547C118.88 89.2547 116.542 88.6527 114.526 87.4487C112.538 86.2447 110.984 84.5087 109.864 82.2407C108.772 79.9727 108.226 77.2427 108.226 74.0507C108.226 70.9147 108.8 68.1707 109.948 65.8187C111.096 63.4667 112.664 61.6327 114.652 60.3167C116.668 59.0007 118.978 58.3427 121.582 58.3427ZM146.424 66.4487C148.216 66.4487 149.826 66.8407 151.254 67.6247C152.682 68.4087 153.816 69.6407 154.656 71.3207C155.524 73.0007 155.958 75.1847 155.958 77.8727C155.958 80.5607 155.524 82.7447 154.656 84.4247C153.816 86.0767 152.682 87.2947 151.254 88.0787C149.826 88.8627 148.216 89.2547 146.424 89.2547C144.66 89.2547 143.05 88.8627 141.594 88.0787C140.166 87.2947 139.018 86.0767 138.15 84.4247C137.31 82.7447 136.89 80.5607 136.89 77.8727C136.89 75.1847 137.31 73.0007 138.15 71.3207C139.018 69.6407 140.166 68.4087 141.594 67.6247C143.05 66.8407 144.66 66.4487 146.424 66.4487ZM146.424 67.2887C144.828 67.2887 143.512 68.1147 142.476 69.7667C141.468 71.4187 140.964 74.1207 140.964 77.8727C140.964 81.6247 141.468 84.3267 142.476 85.9787C143.512 87.6027 144.828 88.4147 146.424 88.4147C148.02 88.4147 149.322 87.6027 150.33 85.9787C151.366 84.3267 151.884 81.6247 151.884 77.8727C151.884 74.1207 151.366 71.4187 150.33 69.7667C149.322 68.1147 148.02 67.2887 146.424 67.2887ZM173.004 66.4487C173.984 66.4487 174.838 66.5887 175.566 66.8687C176.294 67.1487 176.896 67.5407 177.372 68.0447C177.904 68.6047 178.268 69.3327 178.464 70.2287C178.66 71.1247 178.758 72.2307 178.758 73.5467V84.7607C178.758 85.9367 178.996 86.7347 179.472 87.1547C179.976 87.5747 180.802 87.7847 181.95 87.7847V88.6667C181.474 88.6387 180.746 88.6107 179.766 88.5827C178.786 88.5267 177.834 88.4987 176.91 88.4987C175.986 88.4987 175.076 88.5267 174.18 88.5827C173.312 88.6107 172.654 88.6387 172.206 88.6667V87.7847C173.214 87.7847 173.928 87.5747 174.348 87.1547C174.768 86.7347 174.978 85.9367 174.978 84.7607V72.6227C174.978 71.7547 174.922 70.9567 174.81 70.2287C174.698 69.5007 174.418 68.9127 173.97 68.4647C173.522 68.0167 172.794 67.7927 171.786 67.7927C170.694 67.7927 169.714 68.1287 168.846 68.8007C168.006 69.4727 167.334 70.3967 166.83 71.5727C166.354 72.7207 166.116 74.0087 166.116 75.4367V84.7607C166.116 85.9367 166.326 86.7347 166.746 87.1547C167.166 87.5747 167.88 87.7847 168.888 87.7847V88.6667C168.44 88.6387 167.768 88.6107 166.872 88.5827C166.004 88.5267 165.108 88.4987 164.184 88.4987C163.26 88.4987 162.308 88.5267 161.328 88.5827C160.348 88.6107 159.62 88.6387 159.144 88.6667V87.7847C160.292 87.7847 161.104 87.5747 161.58 87.1547C162.084 86.7347 162.336 85.9367 162.336 84.7607V71.6147C162.336 70.3547 162.112 69.4307 161.664 68.8427C161.216 68.2267 160.376 67.9187 159.144 67.9187V67.0367C160.04 67.1207 160.908 67.1627 161.748 67.1627C162.56 67.1627 163.33 67.1207 164.058 67.0367C164.814 66.9247 165.5 66.7707 166.116 66.5747V71.5307C166.844 69.7107 167.838 68.4087 169.098 67.6247C170.358 66.8407 171.66 66.4487 173.004 66.4487ZM185.646 66.4487C186.626 66.4487 187.48 66.5887 188.208 66.8687C188.936 67.1487 189.538 67.5407 190.014 68.0447C190.546 68.6047 190.91 69.3327 191.106 70.2287C191.302 71.1247 191.4 72.2307 191.4 73.5467V84.7607C191.4 85.9367 191.638 86.7347 192.114 87.1547C192.618 87.5747 193.444 87.7847 194.592 87.7847V88.6667C194.116 88.6387 193.388 88.6107 192.408 88.5827C191.428 88.5267 190.476 88.4987 189.552 88.4987C188.628 88.4987 187.718 88.5267 186.822 88.5827C185.954 88.6107 185.296 88.6387 184.848 88.6667V87.7847C185.856 87.7847 186.57 87.5747 186.99 87.1547C187.41 86.7347 187.62 85.9367 187.62 84.7607V72.6227C187.62 71.7547 187.564 70.9567 187.452 70.2287C187.34 69.5007 187.06 68.9127 186.612 68.4647C186.164 68.0167 185.436 67.7927 184.428 67.7927C183.336 67.7927 182.356 68.1287 181.488 68.8007C180.648 69.4727 179.976 70.3827 179.472 71.5307C178.996 72.6787 178.758 73.9667 178.758 75.3947L178.632 71.4887C179.388 69.5567 180.41 68.2407 181.698 67.5407C182.986 66.8127 184.302 66.4487 185.646 66.4487ZM210.287 66.4487C211.267 66.4487 212.121 66.5887 212.849 66.8687C213.577 67.1487 214.179 67.5407 214.655 68.0447C215.187 68.6047 215.551 69.3327 215.747 70.2287C215.943 71.1247 216.041 72.2307 216.041 73.5467V84.7607C216.041 85.9367 216.279 86.7347 216.755 87.1547C217.259 87.5747 218.085 87.7847 219.233 87.7847V88.6667C218.757 88.6387 218.029 88.6107 217.049 88.5827C216.069 88.5267 215.117 88.4987 214.193 88.4987C213.269 88.4987 212.359 88.5267 211.463 88.5827C210.595 88.6107 209.937 88.6387 209.489 88.6667V87.7847C210.497 87.7847 211.211 87.5747 211.631 87.1547C212.051 86.7347 212.261 85.9367 212.261 84.7607V72.6227C212.261 71.7547 212.205 70.9567 212.093 70.2287C211.981 69.5007 211.701 68.9127 211.253 68.4647C210.805 68.0167 210.077 67.7927 209.069 67.7927C207.977 67.7927 206.997 68.1287 206.129 68.8007C205.289 69.4727 204.617 70.3967 204.113 71.5727C203.637 72.7207 203.399 74.0087 203.399 75.4367V84.7607C203.399 85.9367 203.609 86.7347 204.029 87.1547C204.449 87.5747 205.163 87.7847 206.171 87.7847V88.6667C205.723 88.6387 205.051 88.6107 204.155 88.5827C203.287 88.5267 202.391 88.4987 201.467 88.4987C200.543 88.4987 199.591 88.5267 198.611 88.5827C197.631 88.6107 196.903 88.6387 196.427 88.6667V87.7847C197.575 87.7847 198.387 87.5747 198.863 87.1547C199.367 86.7347 199.619 85.9367 199.619 84.7607V71.6147C199.619 70.3547 199.395 69.4307 198.947 68.8427C198.499 68.2267 197.659 67.9187 196.427 67.9187V67.0367C197.323 67.1207 198.191 67.1627 199.031 67.1627C199.843 67.1627 200.613 67.1207 201.341 67.0367C202.097 66.9247 202.783 66.7707 203.399 66.5747V71.5307C204.127 69.7107 205.121 68.4087 206.381 67.6247C207.641 66.8407 208.943 66.4487 210.287 66.4487ZM222.929 66.4487C223.909 66.4487 224.763 66.5887 225.491 66.8687C226.219 67.1487 226.821 67.5407 227.297 68.0447C227.829 68.6047 228.193 69.3327 228.389 70.2287C228.585 71.1247 228.683 72.2307 228.683 73.5467V84.7607C228.683 85.9367 228.921 86.7347 229.397 87.1547C229.901 87.5747 230.727 87.7847 231.875 87.7847V88.6667C231.399 88.6387 230.671 88.6107 229.691 88.5827C228.711 88.5267 227.759 88.4987 226.835 88.4987C225.911 88.4987 225.001 88.5267 224.105 88.5827C223.237 88.6107 222.579 88.6387 222.131 88.6667V87.7847C223.139 87.7847 223.853 87.5747 224.273 87.1547C224.693 86.7347 224.903 85.9367 224.903 84.7607V72.6227C224.903 71.7547 224.847 70.9567 224.735 70.2287C224.623 69.5007 224.343 68.9127 223.895 68.4647C223.447 68.0167 222.719 67.7927 221.711 67.7927C220.619 67.7927 219.639 68.1287 218.771 68.8007C217.931 69.4727 217.259 70.3827 216.755 71.5307C216.279 72.6787 216.041 73.9667 216.041 75.3947L215.915 71.4887C216.671 69.5567 217.693 68.2407 218.981 67.5407C220.269 66.8127 221.585 66.4487 222.929 66.4487ZM239.674 88.9607C238.526 88.9607 237.532 88.7507 236.692 88.3307C235.852 87.8827 235.208 87.2667 234.76 86.4827C234.34 85.6987 234.13 84.7887 234.13 83.7527C234.13 82.5207 234.41 81.5127 234.97 80.7287C235.558 79.9447 236.3 79.3147 237.196 78.8387C238.092 78.3627 239.03 77.9707 240.01 77.6627C241.018 77.3267 241.97 77.0187 242.866 76.7387C243.762 76.4307 244.49 76.0807 245.05 75.6887C245.638 75.2967 245.932 74.7787 245.932 74.1347V71.5307C245.932 70.3547 245.75 69.4587 245.386 68.8427C245.05 68.2267 244.588 67.8207 244 67.6247C243.412 67.4007 242.754 67.2887 242.026 67.2887C241.326 67.2887 240.57 67.3867 239.758 67.5827C238.974 67.7787 238.344 68.1847 237.868 68.8007C238.4 68.9127 238.862 69.1927 239.254 69.6407C239.646 70.0887 239.842 70.6627 239.842 71.3627C239.842 72.0627 239.618 72.6227 239.17 73.0427C238.722 73.4347 238.148 73.6307 237.448 73.6307C236.636 73.6307 236.034 73.3787 235.642 72.8747C235.278 72.3427 235.096 71.7547 235.096 71.1107C235.096 70.3827 235.278 69.7947 235.642 69.3467C236.006 68.8987 236.468 68.4787 237.028 68.0867C237.672 67.6387 238.498 67.2607 239.506 66.9527C240.542 66.6167 241.704 66.4487 242.992 66.4487C244.14 66.4487 245.12 66.5887 245.932 66.8687C246.744 67.1207 247.416 67.4987 247.948 68.0027C248.676 68.6747 249.152 69.5007 249.376 70.4807C249.6 71.4327 249.712 72.5807 249.712 73.9247V85.6007C249.712 86.3007 249.81 86.8047 250.006 87.1127C250.23 87.4207 250.566 87.5747 251.014 87.5747C251.322 87.5747 251.616 87.5047 251.896 87.3647C252.176 87.2247 252.512 87.0007 252.904 86.6927L253.366 87.4067C252.778 87.8547 252.218 88.2327 251.686 88.5407C251.154 88.8207 250.44 88.9607 249.544 88.9607C248.732 88.9607 248.06 88.8207 247.528 88.5407C246.996 88.2607 246.59 87.8547 246.31 87.3227C246.058 86.7627 245.932 86.0627 245.932 85.2227C245.176 86.4827 244.266 87.4207 243.202 88.0367C242.166 88.6527 240.99 88.9607 239.674 88.9607ZM241.186 87.2807C242.11 87.2807 242.964 87.0147 243.748 86.4827C244.56 85.9507 245.288 85.1527 245.932 84.0887V75.8567C245.596 76.3327 245.106 76.7387 244.462 77.0747C243.818 77.3827 243.118 77.7047 242.362 78.0407C241.606 78.3487 240.878 78.7267 240.178 79.1747C239.506 79.5947 238.946 80.1547 238.498 80.8547C238.05 81.5547 237.826 82.4647 237.826 83.5847C237.826 84.7047 238.12 85.6007 238.708 86.2727C239.324 86.9447 240.15 87.2807 241.186 87.2807ZM268.74 66.4487C269.804 66.4487 270.686 66.5887 271.386 66.8687C272.114 67.1487 272.716 67.5407 273.192 68.0447C273.724 68.6047 274.102 69.3047 274.326 70.1447C274.55 70.9847 274.662 72.1187 274.662 73.5467V84.7607C274.662 85.9367 274.9 86.7347 275.376 87.1547C275.88 87.5747 276.706 87.7847 277.854 87.7847V88.6667C277.378 88.6387 276.65 88.6107 275.67 88.5827C274.69 88.5267 273.738 88.4987 272.814 88.4987C271.89 88.4987 270.98 88.5267 270.084 88.5827C269.216 88.6107 268.558 88.6387 268.11 88.6667V87.7847C269.118 87.7847 269.832 87.5747 270.252 87.1547C270.672 86.7347 270.882 85.9367 270.882 84.7607V72.6227C270.882 71.7547 270.812 70.9567 270.672 70.2287C270.532 69.5007 270.21 68.9127 269.706 68.4647C269.23 68.0167 268.488 67.7927 267.48 67.7927C266.304 67.7927 265.268 68.1287 264.372 68.8007C263.504 69.4727 262.818 70.3967 262.314 71.5727C261.838 72.7207 261.6 74.0087 261.6 75.4367V84.7607C261.6 85.9367 261.81 86.7347 262.23 87.1547C262.65 87.5747 263.364 87.7847 264.372 87.7847V88.6667C263.924 88.6387 263.252 88.6107 262.356 88.5827C261.488 88.5267 260.592 88.4987 259.668 88.4987C258.744 88.4987 257.792 88.5267 256.812 88.5827C255.832 88.6107 255.104 88.6387 254.628 88.6667V87.7847C255.776 87.7847 256.588 87.5747 257.064 87.1547C257.568 86.7347 257.82 85.9367 257.82 84.7607V71.6147C257.82 70.3547 257.596 69.4307 257.148 68.8427C256.7 68.2267 255.86 67.9187 254.628 67.9187V67.0367C255.524 67.1207 256.392 67.1627 257.232 67.1627C258.044 67.1627 258.814 67.1207 259.542 67.0367C260.298 66.9247 260.984 66.7707 261.6 66.5747V71.5307C262.328 69.6267 263.336 68.3107 264.624 67.5827C265.94 66.8267 267.312 66.4487 268.74 66.4487ZM298.799 55.7387V84.0887C298.799 85.3487 299.023 86.2867 299.471 86.9027C299.947 87.4907 300.787 87.7847 301.991 87.7847V88.6667C301.123 88.5827 300.255 88.5407 299.387 88.5407C298.575 88.5407 297.791 88.5827 297.035 88.6667C296.307 88.7507 295.635 88.9047 295.019 89.1287V60.7787C295.019 59.5187 294.795 58.5947 294.347 58.0067C293.899 57.3907 293.059 57.0827 291.827 57.0827V56.2007C292.723 56.2847 293.591 56.3267 294.431 56.3267C295.243 56.3267 296.013 56.2847 296.741 56.2007C297.497 56.0887 298.183 55.9347 298.799 55.7387ZM289.979 66.4487C291.211 66.4487 292.359 66.7427 293.423 67.3307C294.515 67.9187 295.243 68.9267 295.607 70.3547L295.061 70.7747C294.669 69.5987 294.053 68.7447 293.213 68.2127C292.401 67.6807 291.435 67.4147 290.315 67.4147C288.663 67.4147 287.277 68.2687 286.157 69.9767C285.065 71.6847 284.533 74.3167 284.561 77.8727C284.561 80.1407 284.771 82.0307 285.191 83.5427C285.639 85.0267 286.283 86.1467 287.123 86.9027C287.991 87.6307 289.041 87.9947 290.273 87.9947C291.449 87.9947 292.513 87.4907 293.465 86.4827C294.417 85.4747 294.991 83.9907 295.187 82.0307L295.691 82.6187C295.467 84.7467 294.781 86.3847 293.633 87.5327C292.513 88.6807 290.987 89.2547 289.055 89.2547C287.319 89.2547 285.793 88.8347 284.477 87.9947C283.189 87.1547 282.195 85.8947 281.495 84.2147C280.823 82.5347 280.487 80.4207 280.487 77.8727C280.487 75.3247 280.921 73.2107 281.789 71.5307C282.685 69.8227 283.847 68.5487 285.275 67.7087C286.731 66.8687 288.299 66.4487 289.979 66.4487ZM325.808 58.9307V59.7707C324.856 59.7987 324.128 59.9107 323.624 60.1067C323.148 60.2747 322.826 60.6107 322.658 61.1147C322.49 61.5907 322.406 62.3467 322.406 63.3827V84.2147C322.406 85.2227 322.49 85.9787 322.658 86.4827C322.826 86.9867 323.148 87.3227 323.624 87.4907C324.128 87.6307 324.856 87.7007 325.808 87.7007H328.874C330.19 87.7007 331.254 87.5607 332.066 87.2807C332.906 87.0007 333.564 86.5667 334.04 85.9787C334.544 85.3627 334.922 84.5507 335.174 83.5427C335.426 82.5347 335.622 81.3027 335.762 79.8467H336.728C336.644 80.7147 336.602 81.8627 336.602 83.2907C336.602 83.8227 336.616 84.5927 336.644 85.6007C336.7 86.5807 336.784 87.6027 336.896 88.6667C335.468 88.6107 333.858 88.5827 332.066 88.5827C330.274 88.5547 328.678 88.5407 327.278 88.5407C326.662 88.5407 325.864 88.5407 324.884 88.5407C323.932 88.5407 322.896 88.5547 321.776 88.5827C320.656 88.5827 319.522 88.5967 318.374 88.6247C317.226 88.6247 316.134 88.6387 315.098 88.6667V87.8267C316.05 87.7707 316.764 87.6587 317.24 87.4907C317.744 87.3227 318.08 86.9867 318.248 86.4827C318.416 85.9787 318.5 85.2227 318.5 84.2147V63.3827C318.5 62.3467 318.416 61.5907 318.248 61.1147C318.08 60.6107 317.744 60.2747 317.24 60.1067C316.764 59.9107 316.05 59.7987 315.098 59.7707V58.9307C315.686 58.9587 316.456 58.9867 317.408 59.0147C318.36 59.0427 319.382 59.0567 320.474 59.0567C321.454 59.0567 322.42 59.0427 323.372 59.0147C324.352 58.9867 325.164 58.9587 325.808 58.9307ZM344.031 56.5367C344.759 56.5367 345.389 56.8027 345.921 57.3347C346.453 57.8667 346.719 58.4967 346.719 59.2247C346.719 59.9527 346.453 60.5827 345.921 61.1147C345.389 61.6467 344.759 61.9127 344.031 61.9127C343.303 61.9127 342.673 61.6467 342.141 61.1147C341.609 60.5827 341.343 59.9527 341.343 59.2247C341.343 58.4967 341.609 57.8667 342.141 57.3347C342.673 56.8027 343.303 56.5367 344.031 56.5367ZM346.215 66.5747V84.7607C346.215 85.9367 346.453 86.7347 346.929 87.1547C347.433 87.5747 348.259 87.7847 349.407 87.7847V88.6667C348.931 88.6387 348.203 88.6107 347.223 88.5827C346.271 88.5267 345.305 88.4987 344.325 88.4987C343.373 88.4987 342.407 88.5267 341.427 88.5827C340.447 88.6107 339.719 88.6387 339.243 88.6667V87.7847C340.391 87.7847 341.203 87.5747 341.679 87.1547C342.183 86.7347 342.435 85.9367 342.435 84.7607V71.6147C342.435 70.3547 342.211 69.4307 341.763 68.8427C341.315 68.2267 340.475 67.9187 339.243 67.9187V67.0367C340.139 67.1207 341.007 67.1627 341.847 67.1627C342.659 67.1627 343.429 67.1207 344.157 67.0367C344.913 66.9247 345.599 66.7707 346.215 66.5747ZM365.66 66.4487C366.724 66.4487 367.606 66.5887 368.306 66.8687C369.034 67.1487 369.636 67.5407 370.112 68.0447C370.644 68.6047 371.022 69.3047 371.246 70.1447C371.47 70.9847 371.582 72.1187 371.582 73.5467V84.7607C371.582 85.9367 371.82 86.7347 372.296 87.1547C372.8 87.5747 373.626 87.7847 374.774 87.7847V88.6667C374.298 88.6387 373.57 88.6107 372.59 88.5827C371.61 88.5267 370.658 88.4987 369.734 88.4987C368.81 88.4987 367.9 88.5267 367.004 88.5827C366.136 88.6107 365.478 88.6387 365.03 88.6667V87.7847C366.038 87.7847 366.752 87.5747 367.172 87.1547C367.592 86.7347 367.802 85.9367 367.802 84.7607V72.6227C367.802 71.7547 367.732 70.9567 367.592 70.2287C367.452 69.5007 367.13 68.9127 366.626 68.4647C366.15 68.0167 365.408 67.7927 364.4 67.7927C363.224 67.7927 362.188 68.1287 361.292 68.8007C360.424 69.4727 359.738 70.3967 359.234 71.5727C358.758 72.7207 358.52 74.0087 358.52 75.4367V84.7607C358.52 85.9367 358.73 86.7347 359.15 87.1547C359.57 87.5747 360.284 87.7847 361.292 87.7847V88.6667C360.844 88.6387 360.172 88.6107 359.276 88.5827C358.408 88.5267 357.512 88.4987 356.588 88.4987C355.664 88.4987 354.712 88.5267 353.732 88.5827C352.752 88.6107 352.024 88.6387 351.548 88.6667V87.7847C352.696 87.7847 353.508 87.5747 353.984 87.1547C354.488 86.7347 354.74 85.9367 354.74 84.7607V71.6147C354.74 70.3547 354.516 69.4307 354.068 68.8427C353.62 68.2267 352.78 67.9187 351.548 67.9187V67.0367C352.444 67.1207 353.312 67.1627 354.152 67.1627C354.964 67.1627 355.734 67.1207 356.462 67.0367C357.218 66.9247 357.904 66.7707 358.52 66.5747V71.5307C359.248 69.6267 360.256 68.3107 361.544 67.5827C362.86 66.8267 364.232 66.4487 365.66 66.4487ZM386.815 66.4487C389.279 66.4487 391.197 67.2047 392.569 68.7167C393.969 70.2007 394.669 72.5247 394.669 75.6887H379.843L379.801 74.8907H390.637C390.693 73.5187 390.581 72.2587 390.301 71.1107C390.021 69.9347 389.573 68.9967 388.957 68.2967C388.369 67.5967 387.599 67.2467 386.647 67.2467C385.359 67.2467 384.211 67.8907 383.203 69.1787C382.223 70.4667 381.635 72.5107 381.439 75.3107L381.565 75.4787C381.509 75.8987 381.467 76.3607 381.439 76.8647C381.411 77.3687 381.397 77.8727 381.397 78.3767C381.397 80.2807 381.705 81.9187 382.321 83.2907C382.937 84.6627 383.735 85.7127 384.715 86.4407C385.723 87.1407 386.759 87.4907 387.823 87.4907C388.663 87.4907 389.461 87.3647 390.217 87.1127C390.973 86.8327 391.673 86.3847 392.317 85.7687C392.961 85.1527 393.521 84.3267 393.997 83.2907L394.837 83.6267C394.529 84.5507 394.025 85.4467 393.325 86.3147C392.625 87.1827 391.743 87.8967 390.679 88.4567C389.615 88.9887 388.383 89.2547 386.983 89.2547C384.967 89.2547 383.231 88.7927 381.775 87.8687C380.347 86.9447 379.241 85.6707 378.457 84.0467C377.701 82.3947 377.323 80.5047 377.323 78.3767C377.323 75.9127 377.715 73.7987 378.499 72.0347C379.283 70.2427 380.389 68.8707 381.817 67.9187C383.245 66.9387 384.911 66.4487 386.815 66.4487ZM419.57 58.9307V59.7707C418.618 59.7987 417.89 59.9107 417.386 60.1067C416.91 60.2747 416.588 60.6107 416.42 61.1147C416.252 61.5907 416.168 62.3467 416.168 63.3827V84.2147C416.168 85.2227 416.252 85.9787 416.42 86.4827C416.588 86.9867 416.91 87.3227 417.386 87.4907C417.89 87.6587 418.618 87.7707 419.57 87.8267V88.6667C418.926 88.6107 418.114 88.5827 417.134 88.5827C416.182 88.5547 415.216 88.5407 414.236 88.5407C413.144 88.5407 412.122 88.5547 411.17 88.5827C410.218 88.5827 409.448 88.6107 408.86 88.6667V87.8267C409.812 87.7707 410.526 87.6587 411.002 87.4907C411.506 87.3227 411.842 86.9867 412.01 86.4827C412.178 85.9787 412.262 85.2227 412.262 84.2147V63.3827C412.262 62.3467 412.178 61.5907 412.01 61.1147C411.842 60.6107 411.506 60.2747 411.002 60.1067C410.526 59.9107 409.812 59.7987 408.86 59.7707V58.9307C409.448 58.9587 410.218 58.9867 411.17 59.0147C412.122 59.0427 413.144 59.0567 414.236 59.0567C415.216 59.0567 416.182 59.0427 417.134 59.0147C418.114 58.9867 418.926 58.9587 419.57 58.9307ZM436.658 66.4487C437.722 66.4487 438.604 66.5887 439.304 66.8687C440.032 67.1487 440.634 67.5407 441.11 68.0447C441.642 68.6047 442.02 69.3047 442.244 70.1447C442.468 70.9847 442.58 72.1187 442.58 73.5467V84.7607C442.58 85.9367 442.818 86.7347 443.294 87.1547C443.798 87.5747 444.624 87.7847 445.772 87.7847V88.6667C445.296 88.6387 444.568 88.6107 443.588 88.5827C442.608 88.5267 441.656 88.4987 440.732 88.4987C439.808 88.4987 438.898 88.5267 438.002 88.5827C437.134 88.6107 436.476 88.6387 436.028 88.6667V87.7847C437.036 87.7847 437.75 87.5747 438.17 87.1547C438.59 86.7347 438.8 85.9367 438.8 84.7607V72.6227C438.8 71.7547 438.73 70.9567 438.59 70.2287C438.45 69.5007 438.128 68.9127 437.624 68.4647C437.148 68.0167 436.406 67.7927 435.398 67.7927C434.222 67.7927 433.186 68.1287 432.29 68.8007C431.422 69.4727 430.736 70.3967 430.232 71.5727C429.756 72.7207 429.518 74.0087 429.518 75.4367V84.7607C429.518 85.9367 429.728 86.7347 430.148 87.1547C430.568 87.5747 431.282 87.7847 432.29 87.7847V88.6667C431.842 88.6387 431.17 88.6107 430.274 88.5827C429.406 88.5267 428.51 88.4987 427.586 88.4987C426.662 88.4987 425.71 88.5267 424.73 88.5827C423.75 88.6107 423.022 88.6387 422.546 88.6667V87.7847C423.694 87.7847 424.506 87.5747 424.982 87.1547C425.486 86.7347 425.738 85.9367 425.738 84.7607V71.6147C425.738 70.3547 425.514 69.4307 425.066 68.8427C424.618 68.2267 423.778 67.9187 422.546 67.9187V67.0367C423.442 67.1207 424.31 67.1627 425.15 67.1627C425.962 67.1627 426.732 67.1207 427.46 67.0367C428.216 66.9247 428.902 66.7707 429.518 66.5747V71.5307C430.246 69.6267 431.254 68.3107 432.542 67.5827C433.858 66.8267 435.23 66.4487 436.658 66.4487ZM454.369 60.0647V67.0787H460.585V67.9187H454.369V84.1727C454.369 85.4887 454.607 86.4127 455.083 86.9447C455.559 87.4767 456.217 87.7427 457.057 87.7427C457.897 87.7427 458.625 87.4067 459.241 86.7347C459.857 86.0347 460.389 84.8727 460.837 83.2487L461.677 83.4587C461.397 85.0827 460.837 86.4547 459.997 87.5747C459.185 88.6947 457.925 89.2547 456.217 89.2547C455.265 89.2547 454.481 89.1287 453.865 88.8767C453.249 88.6527 452.703 88.3167 452.227 87.8687C451.611 87.2247 451.177 86.4547 450.925 85.5587C450.701 84.6627 450.589 83.4727 450.589 81.9887V67.9187H446.557V67.0787H450.589V60.6527C451.289 60.6247 451.961 60.5687 452.605 60.4847C453.249 60.4007 453.837 60.2607 454.369 60.0647ZM472.66 66.4487C475.124 66.4487 477.042 67.2047 478.414 68.7167C479.814 70.2007 480.514 72.5247 480.514 75.6887H465.688L465.646 74.8907H476.482C476.538 73.5187 476.426 72.2587 476.146 71.1107C475.866 69.9347 475.418 68.9967 474.802 68.2967C474.214 67.5967 473.444 67.2467 472.492 67.2467C471.204 67.2467 470.056 67.8907 469.048 69.1787C468.068 70.4667 467.48 72.5107 467.284 75.3107L467.41 75.4787C467.354 75.8987 467.312 76.3607 467.284 76.8647C467.256 77.3687 467.242 77.8727 467.242 78.3767C467.242 80.2807 467.55 81.9187 468.166 83.2907C468.782 84.6627 469.58 85.7127 470.56 86.4407C471.568 87.1407 472.604 87.4907 473.668 87.4907C474.508 87.4907 475.306 87.3647 476.062 87.1127C476.818 86.8327 477.518 86.3847 478.162 85.7687C478.806 85.1527 479.366 84.3267 479.842 83.2907L480.682 83.6267C480.374 84.5507 479.87 85.4467 479.17 86.3147C478.47 87.1827 477.588 87.8967 476.524 88.4567C475.46 88.9887 474.228 89.2547 472.828 89.2547C470.812 89.2547 469.076 88.7927 467.62 87.8687C466.192 86.9447 465.086 85.6707 464.302 84.0467C463.546 82.3947 463.168 80.5047 463.168 78.3767C463.168 75.9127 463.56 73.7987 464.344 72.0347C465.128 70.2427 466.234 68.8707 467.662 67.9187C469.09 66.9387 470.756 66.4487 472.66 66.4487ZM496.762 66.4487C497.518 66.4487 498.176 66.6027 498.736 66.9107C499.324 67.2187 499.772 67.6247 500.08 68.1287C500.416 68.6047 500.584 69.1507 500.584 69.7667C500.584 70.4667 500.36 71.0827 499.912 71.6147C499.492 72.1467 498.918 72.4127 498.19 72.4127C497.602 72.4127 497.084 72.2307 496.636 71.8667C496.188 71.4747 495.964 70.9287 495.964 70.2287C495.964 69.6967 496.104 69.2487 496.384 68.8847C496.692 68.4927 497.028 68.1847 497.392 67.9607C497.196 67.6807 496.902 67.5407 496.51 67.5407C495.642 67.5407 494.844 67.8067 494.116 68.3387C493.388 68.8427 492.772 69.5007 492.268 70.3127C491.764 71.1247 491.372 71.9927 491.092 72.9167C490.812 73.8127 490.672 74.6527 490.672 75.4367V84.3407C490.672 85.7127 491.064 86.6367 491.848 87.1127C492.66 87.5607 493.752 87.7847 495.124 87.7847V88.6667C494.48 88.6387 493.57 88.6107 492.394 88.5827C491.218 88.5267 489.972 88.4987 488.656 88.4987C487.704 88.4987 486.752 88.5267 485.8 88.5827C484.876 88.6107 484.176 88.6387 483.7 88.6667V87.7847C484.848 87.7847 485.66 87.5747 486.136 87.1547C486.64 86.7347 486.892 85.9367 486.892 84.7607V71.6147C486.892 70.3547 486.668 69.4307 486.22 68.8427C485.772 68.2267 484.932 67.9187 483.7 67.9187V67.0367C484.596 67.1207 485.464 67.1627 486.304 67.1627C487.116 67.1627 487.886 67.1207 488.614 67.0367C489.37 66.9247 490.056 66.7707 490.672 66.5747V71.8247C490.98 71.0127 491.414 70.2007 491.974 69.3887C492.562 68.5487 493.262 67.8487 494.074 67.2887C494.886 66.7287 495.782 66.4487 496.762 66.4487ZM512.613 55.8227C513.397 55.8227 514.083 55.9347 514.671 56.1587C515.287 56.3547 515.819 56.6207 516.267 56.9567C516.687 57.2927 517.009 57.6847 517.233 58.1327C517.457 58.5807 517.569 59.0567 517.569 59.5607C517.569 60.2047 517.359 60.7367 516.939 61.1567C516.519 61.5767 515.987 61.7867 515.343 61.7867C514.727 61.7867 514.181 61.5907 513.705 61.1987C513.257 60.7787 513.033 60.2187 513.033 59.5187C513.033 58.9307 513.187 58.4547 513.495 58.0907C513.831 57.7267 514.265 57.4887 514.797 57.3767C514.713 57.1247 514.489 56.9147 514.125 56.7467C513.789 56.5507 513.327 56.4527 512.739 56.4527C512.095 56.4527 511.535 56.5927 511.059 56.8727C510.611 57.1527 510.261 57.5307 510.009 58.0067C509.673 58.5947 509.463 59.4767 509.379 60.6527C509.295 61.8007 509.253 63.5787 509.253 65.9867V67.0787H513.747V67.9187H509.253V84.3407C509.253 85.7127 509.645 86.6367 510.429 87.1127C511.241 87.5607 512.333 87.7847 513.705 87.7847V88.6667C513.061 88.6387 512.151 88.6107 510.975 88.5827C509.799 88.5267 508.553 88.4987 507.237 88.4987C506.285 88.4987 505.333 88.5267 504.381 88.5827C503.457 88.6107 502.757 88.6387 502.281 88.6667V87.7847C503.429 87.7847 504.241 87.5747 504.717 87.1547C505.221 86.7347 505.473 85.9367 505.473 84.7607V67.9187H502.113V67.0787H505.473C505.473 65.4267 505.543 64.0407 505.683 62.9207C505.823 61.8007 506.047 60.8487 506.355 60.0647C506.663 59.2527 507.083 58.5387 507.615 57.9227C508.175 57.2787 508.889 56.7747 509.757 56.4107C510.625 56.0187 511.577 55.8227 512.613 55.8227ZM522.149 88.9607C521.001 88.9607 520.007 88.7507 519.167 88.3307C518.327 87.8827 517.683 87.2667 517.235 86.4827C516.815 85.6987 516.605 84.7887 516.605 83.7527C516.605 82.5207 516.885 81.5127 517.445 80.7287C518.033 79.9447 518.775 79.3147 519.671 78.8387C520.567 78.3627 521.505 77.9707 522.485 77.6627C523.493 77.3267 524.445 77.0187 525.341 76.7387C526.237 76.4307 526.965 76.0807 527.525 75.6887C528.113 75.2967 528.407 74.7787 528.407 74.1347V71.5307C528.407 70.3547 528.225 69.4587 527.861 68.8427C527.525 68.2267 527.063 67.8207 526.475 67.6247C525.887 67.4007 525.229 67.2887 524.501 67.2887C523.801 67.2887 523.045 67.3867 522.233 67.5827C521.449 67.7787 520.819 68.1847 520.343 68.8007C520.875 68.9127 521.337 69.1927 521.729 69.6407C522.121 70.0887 522.317 70.6627 522.317 71.3627C522.317 72.0627 522.093 72.6227 521.645 73.0427C521.197 73.4347 520.623 73.6307 519.923 73.6307C519.111 73.6307 518.509 73.3787 518.117 72.8747C517.753 72.3427 517.571 71.7547 517.571 71.1107C517.571 70.3827 517.753 69.7947 518.117 69.3467C518.481 68.8987 518.943 68.4787 519.503 68.0867C520.147 67.6387 520.973 67.2607 521.981 66.9527C523.017 66.6167 524.179 66.4487 525.467 66.4487C526.615 66.4487 527.595 66.5887 528.407 66.8687C529.219 67.1207 529.891 67.4987 530.423 68.0027C531.151 68.6747 531.627 69.5007 531.851 70.4807C532.075 71.4327 532.187 72.5807 532.187 73.9247V85.6007C532.187 86.3007 532.285 86.8047 532.481 87.1127C532.705 87.4207 533.041 87.5747 533.489 87.5747C533.797 87.5747 534.091 87.5047 534.371 87.3647C534.651 87.2247 534.987 87.0007 535.379 86.6927L535.841 87.4067C535.253 87.8547 534.693 88.2327 534.161 88.5407C533.629 88.8207 532.915 88.9607 532.019 88.9607C531.207 88.9607 530.535 88.8207 530.003 88.5407C529.471 88.2607 529.065 87.8547 528.785 87.3227C528.533 86.7627 528.407 86.0627 528.407 85.2227C527.651 86.4827 526.741 87.4207 525.677 88.0367C524.641 88.6527 523.465 88.9607 522.149 88.9607ZM523.661 87.2807C524.585 87.2807 525.439 87.0147 526.223 86.4827C527.035 85.9507 527.763 85.1527 528.407 84.0887V75.8567C528.071 76.3327 527.581 76.7387 526.937 77.0747C526.293 77.3827 525.593 77.7047 524.837 78.0407C524.081 78.3487 523.353 78.7267 522.653 79.1747C521.981 79.5947 521.421 80.1547 520.973 80.8547C520.525 81.5547 520.301 82.4647 520.301 83.5847C520.301 84.7047 520.595 85.6007 521.183 86.2727C521.799 86.9447 522.625 87.2807 523.661 87.2807ZM547.603 66.4487C548.499 66.4487 549.367 66.5607 550.207 66.7847C551.047 67.0087 551.803 67.3447 552.475 67.7927C553.119 68.2127 553.609 68.7027 553.945 69.2627C554.281 69.7947 554.449 70.3827 554.449 71.0267C554.449 71.7827 554.239 72.3707 553.819 72.7907C553.399 73.1827 552.867 73.3787 552.223 73.3787C551.607 73.3787 551.061 73.1967 550.585 72.8327C550.137 72.4687 549.913 71.9507 549.913 71.2787C549.913 70.6347 550.081 70.1167 550.417 69.7247C550.781 69.3327 551.201 69.0807 551.677 68.9687C551.397 68.4647 550.893 68.0447 550.165 67.7087C549.465 67.3727 548.709 67.2047 547.897 67.2047C547.197 67.2047 546.497 67.3727 545.797 67.7087C545.097 68.0447 544.453 68.6047 543.865 69.3887C543.277 70.1447 542.801 71.1947 542.437 72.5387C542.073 73.8547 541.891 75.5067 541.891 77.4947C541.891 79.9587 542.171 81.9187 542.731 83.3747C543.291 84.8307 544.019 85.8807 544.915 86.5247C545.839 87.1407 546.847 87.4487 547.939 87.4487C548.667 87.4487 549.409 87.3087 550.165 87.0287C550.921 86.7487 551.635 86.3007 552.307 85.6847C552.979 85.0407 553.553 84.1867 554.029 83.1227L554.827 83.4167C554.547 84.3127 554.085 85.2227 553.441 86.1467C552.797 87.0427 551.957 87.7847 550.921 88.3727C549.885 88.9607 548.611 89.2547 547.099 89.2547C545.363 89.2547 543.795 88.8067 542.395 87.9107C540.995 87.0147 539.875 85.7407 539.035 84.0887C538.223 82.4087 537.817 80.4207 537.817 78.1247C537.817 75.8287 538.223 73.8127 539.035 72.0767C539.875 70.3127 541.037 68.9407 542.521 67.9607C544.005 66.9527 545.699 66.4487 547.603 66.4487ZM567.735 66.4487C570.199 66.4487 572.117 67.2047 573.489 68.7167C574.889 70.2007 575.589 72.5247 575.589 75.6887H560.763L560.721 74.8907H571.557C571.613 73.5187 571.501 72.2587 571.221 71.1107C570.941 69.9347 570.493 68.9967 569.877 68.2967C569.289 67.5967 568.519 67.2467 567.567 67.2467C566.279 67.2467 565.131 67.8907 564.123 69.1787C563.143 70.4667 562.555 72.5107 562.359 75.3107L562.485 75.4787C562.429 75.8987 562.387 76.3607 562.359 76.8647C562.331 77.3687 562.317 77.8727 562.317 78.3767C562.317 80.2807 562.625 81.9187 563.241 83.2907C563.857 84.6627 564.655 85.7127 565.635 86.4407C566.643 87.1407 567.679 87.4907 568.743 87.4907C569.583 87.4907 570.381 87.3647 571.137 87.1127C571.893 86.8327 572.593 86.3847 573.237 85.7687C573.881 85.1527 574.441 84.3267 574.917 83.2907L575.757 83.6267C575.449 84.5507 574.945 85.4467 574.245 86.3147C573.545 87.1827 572.663 87.8967 571.599 88.4567C570.535 88.9887 569.303 89.2547 567.903 89.2547C565.887 89.2547 564.151 88.7927 562.695 87.8687C561.267 86.9447 560.161 85.6707 559.377 84.0467C558.621 82.3947 558.243 80.5047 558.243 78.3767C558.243 75.9127 558.635 73.7987 559.419 72.0347C560.203 70.2427 561.309 68.8707 562.737 67.9187C564.165 66.9387 565.831 66.4487 567.735 66.4487Z" fill="#4F5B71"/>
<path d="M96.5 50C96.5 73.4721 77.4721 92.5 54 92.5C30.5279 92.5 11.5 73.4721 11.5 50C11.5 26.5279 30.5279 7.5 54 7.5C77.4721 7.5 96.5 26.5279 96.5 50Z" fill="white" stroke="#00875F"/>
<path d="M17.3751 50.3119C16.884 51.0291 17.055 52.0261 17.757 52.5387L52.1315 77.6374C52.8336 78.15 53.8008 77.9841 54.292 77.2669V77.2669C54.7831 76.5496 54.6121 75.5526 53.9101 75.04L19.5356 49.9413C18.8335 49.4287 17.8662 49.5946 17.3751 50.3119V50.3119Z" fill="#00875F"/>
<rect width="21.7644" height="3.14797" rx="1.57399" transform="matrix(0.807628 0.589693 0.56498 -0.825105 35.7012 28.0669)" fill="#00875F"/>
<rect width="34.8414" height="3.14797" rx="1.57399" transform="matrix(0.807628 0.589693 0.56498 -0.825105 25.7153 39.9373)" fill="#00875F"/>
<rect width="21.6099" height="3.14797" rx="1.57399" transform="matrix(0.807628 -0.589693 0.56498 0.825105 52.28 35.8684)" fill="#00875F"/>
<path d="M53.1693 56.6737C52.6782 55.9564 52.8492 54.9594 53.5512 54.4468L78.8642 35.9645C79.5662 35.4519 80.5335 35.6178 81.0246 36.335V36.335C81.5158 37.0523 81.3448 38.0493 80.6427 38.5619L55.3298 57.0442C54.6277 57.5569 53.6604 57.391 53.1693 56.6737V56.6737Z" fill="#00875F"/>
<path d="M52.28 15.8868C52.28 14.9368 53.0501 14.1667 54 14.1667V14.1667C54.95 14.1667 55.72 14.9368 55.72 15.8867V89.4167H52.28V15.8868Z" fill="#00875F"/>
<path d="M53.9349 75.1005C53.4438 74.3832 53.6148 73.3862 54.3168 72.8736L87.9302 48.3307C88.6323 47.818 89.5995 47.9839 90.0907 48.7012V48.7012C90.5818 49.4184 90.4108 50.4154 89.7087 50.9281L56.0954 75.471C55.3933 75.9836 54.4261 75.8177 53.9349 75.1005V75.1005Z" fill="#00875F"/>
</svg>
