<svg width="545" height="101" viewBox="0 0 545 101" fill="none" xmlns="http://www.w3.org/2000/svg">
<path d="M119.585 14.054L129.833 40.472C130.253 41.536 130.729 42.25 131.261 42.614C131.793 42.95 132.283 43.132 132.731 43.16V44C132.171 43.944 131.485 43.916 130.673 43.916C129.861 43.888 129.049 43.874 128.237 43.874C127.145 43.874 126.123 43.888 125.171 43.916C124.219 43.916 123.449 43.944 122.861 44V43.16C124.289 43.104 125.199 42.866 125.591 42.446C125.983 41.998 125.899 41.06 125.339 39.632L117.527 18.758L118.199 18.212L110.891 37.196C110.443 38.316 110.177 39.268 110.093 40.052C110.009 40.808 110.079 41.41 110.303 41.858C110.555 42.306 110.961 42.628 111.521 42.824C112.109 43.02 112.837 43.132 113.705 43.16V44C112.921 43.944 112.095 43.916 111.227 43.916C110.387 43.888 109.603 43.874 108.875 43.874C108.175 43.874 107.573 43.888 107.069 43.916C106.593 43.916 106.145 43.944 105.725 44V43.16C106.285 43.02 106.859 42.698 107.447 42.194C108.035 41.662 108.567 40.766 109.043 39.506L118.913 14.054C119.025 14.054 119.137 14.054 119.249 14.054C119.361 14.054 119.473 14.054 119.585 14.054ZM124.709 31.904V32.744H112.193L112.613 31.904H124.709ZM147.804 21.782C148.868 21.782 149.75 21.922 150.45 22.202C151.178 22.482 151.78 22.874 152.256 23.378C152.788 23.938 153.166 24.638 153.39 25.478C153.614 26.318 153.726 27.452 153.726 28.88V40.094C153.726 41.27 153.964 42.068 154.44 42.488C154.944 42.908 155.77 43.118 156.918 43.118V44C156.442 43.972 155.714 43.944 154.734 43.916C153.754 43.86 152.802 43.832 151.878 43.832C150.954 43.832 150.044 43.86 149.148 43.916C148.28 43.944 147.622 43.972 147.174 44V43.118C148.182 43.118 148.896 42.908 149.316 42.488C149.736 42.068 149.946 41.27 149.946 40.094V27.956C149.946 27.088 149.876 26.29 149.736 25.562C149.596 24.834 149.274 24.246 148.77 23.798C148.294 23.35 147.552 23.126 146.544 23.126C145.368 23.126 144.332 23.462 143.436 24.134C142.568 24.806 141.882 25.73 141.378 26.906C140.902 28.054 140.664 29.342 140.664 30.77V40.094C140.664 41.27 140.874 42.068 141.294 42.488C141.714 42.908 142.428 43.118 143.436 43.118V44C142.988 43.972 142.316 43.944 141.42 43.916C140.552 43.86 139.656 43.832 138.732 43.832C137.808 43.832 136.856 43.86 135.876 43.916C134.896 43.944 134.168 43.972 133.692 44V43.118C134.84 43.118 135.652 42.908 136.128 42.488C136.632 42.068 136.884 41.27 136.884 40.094V26.948C136.884 25.688 136.66 24.764 136.212 24.176C135.764 23.56 134.924 23.252 133.692 23.252V22.37C134.588 22.454 135.456 22.496 136.296 22.496C137.108 22.496 137.878 22.454 138.606 22.37C139.362 22.258 140.048 22.104 140.664 21.908V26.864C141.392 24.96 142.4 23.644 143.688 22.916C145.004 22.16 146.376 21.782 147.804 21.782ZM172.864 21.782C173.928 21.782 174.81 21.922 175.51 22.202C176.238 22.482 176.84 22.874 177.316 23.378C177.848 23.938 178.226 24.638 178.45 25.478C178.674 26.318 178.786 27.452 178.786 28.88V40.094C178.786 41.27 179.024 42.068 179.5 42.488C180.004 42.908 180.83 43.118 181.978 43.118V44C181.502 43.972 180.774 43.944 179.794 43.916C178.814 43.86 177.862 43.832 176.938 43.832C176.014 43.832 175.104 43.86 174.208 43.916C173.34 43.944 172.682 43.972 172.234 44V43.118C173.242 43.118 173.956 42.908 174.376 42.488C174.796 42.068 175.006 41.27 175.006 40.094V27.956C175.006 27.088 174.936 26.29 174.796 25.562C174.656 24.834 174.334 24.246 173.83 23.798C173.354 23.35 172.612 23.126 171.604 23.126C170.428 23.126 169.392 23.462 168.496 24.134C167.628 24.806 166.942 25.73 166.438 26.906C165.962 28.054 165.724 29.342 165.724 30.77V40.094C165.724 41.27 165.934 42.068 166.354 42.488C166.774 42.908 167.488 43.118 168.496 43.118V44C168.048 43.972 167.376 43.944 166.48 43.916C165.612 43.86 164.716 43.832 163.792 43.832C162.868 43.832 161.916 43.86 160.936 43.916C159.956 43.944 159.228 43.972 158.752 44V43.118C159.9 43.118 160.712 42.908 161.188 42.488C161.692 42.068 161.944 41.27 161.944 40.094V26.948C161.944 25.688 161.72 24.764 161.272 24.176C160.824 23.56 159.984 23.252 158.752 23.252V22.37C159.648 22.454 160.516 22.496 161.356 22.496C162.168 22.496 162.938 22.454 163.666 22.37C164.422 22.258 165.108 22.104 165.724 21.908V26.864C166.452 24.96 167.46 23.644 168.748 22.916C170.064 22.16 171.436 21.782 172.864 21.782ZM194.103 21.782C195.895 21.782 197.505 22.174 198.933 22.958C200.361 23.742 201.495 24.974 202.335 26.654C203.203 28.334 203.637 30.518 203.637 33.206C203.637 35.894 203.203 38.078 202.335 39.758C201.495 41.41 200.361 42.628 198.933 43.412C197.505 44.196 195.895 44.588 194.103 44.588C192.339 44.588 190.729 44.196 189.273 43.412C187.845 42.628 186.697 41.41 185.829 39.758C184.989 38.078 184.569 35.894 184.569 33.206C184.569 30.518 184.989 28.334 185.829 26.654C186.697 24.974 187.845 23.742 189.273 22.958C190.729 22.174 192.339 21.782 194.103 21.782ZM194.103 22.622C192.507 22.622 191.191 23.448 190.155 25.1C189.147 26.752 188.643 29.454 188.643 33.206C188.643 36.958 189.147 39.66 190.155 41.312C191.191 42.936 192.507 43.748 194.103 43.748C195.699 43.748 197.001 42.936 198.009 41.312C199.045 39.66 199.563 36.958 199.563 33.206C199.563 29.454 199.045 26.752 198.009 25.1C197.001 23.448 195.699 22.622 194.103 22.622ZM228.664 14.264C228.552 15.328 228.468 16.364 228.412 17.372C228.384 18.352 228.37 19.108 228.37 19.64C228.37 20.312 228.384 20.942 228.412 21.53C228.44 22.118 228.468 22.636 228.496 23.084H227.53C227.334 21.124 227.068 19.584 226.732 18.464C226.396 17.316 225.808 16.49 224.968 15.986C224.128 15.482 222.826 15.23 221.062 15.23H218.794V39.128C218.794 40.248 218.892 41.088 219.088 41.648C219.312 42.208 219.732 42.586 220.348 42.782C220.964 42.978 221.86 43.104 223.036 43.16V44C222.308 43.944 221.384 43.916 220.264 43.916C219.144 43.888 218.01 43.874 216.862 43.874C215.602 43.874 214.412 43.888 213.292 43.916C212.2 43.916 211.318 43.944 210.646 44V43.16C211.822 43.104 212.718 42.978 213.334 42.782C213.95 42.586 214.356 42.208 214.552 41.648C214.776 41.088 214.888 40.248 214.888 39.128V15.23H212.62C210.884 15.23 209.582 15.482 208.714 15.986C207.874 16.49 207.286 17.316 206.95 18.464C206.614 19.584 206.348 21.124 206.152 23.084H205.186C205.242 22.636 205.27 22.118 205.27 21.53C205.298 20.942 205.312 20.312 205.312 19.64C205.312 19.108 205.284 18.352 205.228 17.372C205.2 16.364 205.13 15.328 205.018 14.264C206.194 14.292 207.468 14.32 208.84 14.348C210.24 14.376 211.64 14.39 213.04 14.39C214.44 14.39 215.714 14.39 216.862 14.39C218.01 14.39 219.27 14.39 220.642 14.39C222.042 14.39 223.442 14.376 224.842 14.348C226.242 14.32 227.516 14.292 228.664 14.264ZM252.608 14.264C252.496 15.244 252.412 16.196 252.356 17.12C252.328 18.044 252.314 18.744 252.314 19.22C252.314 19.724 252.328 20.214 252.356 20.69C252.384 21.138 252.412 21.516 252.44 21.824H251.474C251.306 20.172 251.068 18.87 250.76 17.918C250.452 16.938 249.92 16.252 249.164 15.86C248.436 15.44 247.33 15.23 245.846 15.23H242.36C241.408 15.23 240.68 15.314 240.176 15.482C239.7 15.622 239.378 15.944 239.21 16.448C239.042 16.924 238.958 17.68 238.958 18.716V39.548C238.958 40.556 239.042 41.312 239.21 41.816C239.378 42.32 239.7 42.656 240.176 42.824C240.68 42.964 241.408 43.034 242.36 43.034H245.426C247.19 43.034 248.52 42.796 249.416 42.32C250.34 41.844 250.998 41.074 251.39 40.01C251.81 38.918 252.118 37.448 252.314 35.6H253.28C253.196 36.356 253.154 37.364 253.154 38.624C253.154 39.156 253.168 39.926 253.196 40.934C253.252 41.914 253.336 42.936 253.448 44C252.02 43.944 250.41 43.916 248.618 43.916C246.826 43.888 245.23 43.874 243.83 43.874C243.214 43.874 242.416 43.874 241.436 43.874C240.484 43.874 239.448 43.888 238.328 43.916C237.208 43.916 236.074 43.93 234.926 43.958C233.778 43.958 232.686 43.972 231.65 44V43.16C232.602 43.104 233.316 42.992 233.792 42.824C234.296 42.656 234.632 42.32 234.8 41.816C234.968 41.312 235.052 40.556 235.052 39.548V18.716C235.052 17.68 234.968 16.924 234.8 16.448C234.632 15.944 234.296 15.608 233.792 15.44C233.316 15.244 232.602 15.132 231.65 15.104V14.264C232.686 14.292 233.778 14.32 234.926 14.348C236.074 14.348 237.208 14.362 238.328 14.39C239.448 14.39 240.484 14.39 241.436 14.39C242.416 14.39 243.214 14.39 243.83 14.39C245.118 14.39 246.574 14.39 248.198 14.39C249.85 14.362 251.32 14.32 252.608 14.264ZM245.384 28.628C245.384 28.628 245.384 28.768 245.384 29.048C245.384 29.328 245.384 29.468 245.384 29.468H237.698C237.698 29.468 237.698 29.328 237.698 29.048C237.698 28.768 237.698 28.628 237.698 28.628H245.384ZM246.602 23.084C246.49 24.68 246.434 25.898 246.434 26.738C246.462 27.578 246.476 28.348 246.476 29.048C246.476 29.748 246.49 30.518 246.518 31.358C246.546 32.198 246.616 33.416 246.728 35.012H245.762C245.65 34.116 245.51 33.248 245.342 32.408C245.202 31.54 244.866 30.84 244.334 30.308C243.83 29.748 242.962 29.468 241.73 29.468V28.628C242.654 28.628 243.354 28.446 243.83 28.082C244.334 27.69 244.698 27.2 244.922 26.612C245.146 26.024 245.3 25.422 245.384 24.806C245.468 24.162 245.552 23.588 245.636 23.084H246.602ZM257.243 14.264C257.831 14.292 258.601 14.32 259.553 14.348C260.505 14.376 261.443 14.39 262.367 14.39C263.683 14.39 264.943 14.376 266.147 14.348C267.351 14.32 268.205 14.306 268.709 14.306C272.097 14.306 274.631 15.076 276.311 16.616C277.991 18.156 278.831 20.144 278.831 22.58C278.831 23.588 278.663 24.652 278.327 25.772C277.991 26.864 277.403 27.886 276.563 28.838C275.751 29.762 274.631 30.518 273.203 31.106C271.775 31.694 269.969 31.988 267.785 31.988H263.753V31.148H267.365C269.353 31.148 270.865 30.77 271.901 30.014C272.965 29.258 273.679 28.264 274.043 27.032C274.435 25.8 274.631 24.47 274.631 23.042C274.631 20.382 274.099 18.394 273.035 17.078C271.999 15.762 270.207 15.104 267.659 15.104C266.371 15.104 265.531 15.342 265.139 15.818C264.747 16.294 264.551 17.26 264.551 18.716V39.548C264.551 40.556 264.649 41.312 264.845 41.816C265.069 42.32 265.489 42.656 266.105 42.824C266.721 42.992 267.617 43.104 268.793 43.16V44C268.065 43.944 267.141 43.916 266.021 43.916C264.901 43.888 263.767 43.874 262.619 43.874C261.527 43.874 260.505 43.888 259.553 43.916C258.601 43.916 257.831 43.944 257.243 44V43.16C258.195 43.104 258.909 42.992 259.385 42.824C259.889 42.656 260.225 42.32 260.393 41.816C260.561 41.312 260.645 40.556 260.645 39.548V18.716C260.645 17.68 260.561 16.924 260.393 16.448C260.225 15.944 259.889 15.608 259.385 15.44C258.909 15.244 258.195 15.132 257.243 15.104V14.264Z" fill="#00875F"/>
<path d="M121.792 58.3427C123.612 58.3427 125.082 58.6227 126.202 59.1827C127.322 59.7147 128.372 60.3447 129.352 61.0727C129.716 61.3527 129.996 61.4927 130.192 61.4927C130.724 61.4927 131.074 60.6387 131.242 58.9307H132.208C132.152 59.9667 132.11 61.2267 132.082 62.7107C132.054 64.1947 132.04 66.1547 132.04 68.5907H131.074C130.878 67.4147 130.64 66.2807 130.36 65.1887C130.08 64.0967 129.618 63.1587 128.974 62.3747C128.162 61.3387 127.098 60.5407 125.782 59.9807C124.466 59.3927 123.108 59.0987 121.708 59.0987C120.308 59.0987 119.034 59.4487 117.886 60.1487C116.766 60.8207 115.8 61.8007 114.988 63.0887C114.176 64.3767 113.546 65.9307 113.098 67.7507C112.678 69.5427 112.468 71.5727 112.468 73.8407C112.468 78.8807 113.28 82.5767 114.904 84.9287C116.528 87.2527 119.048 88.4147 122.464 88.4147C123.472 88.4147 124.34 88.2747 125.068 87.9947C125.824 87.6867 126.412 87.3927 126.832 87.1127C127.364 86.7487 127.7 86.4127 127.84 86.1047C127.98 85.7687 128.05 85.3347 128.05 84.8027V80.7707C128.05 79.6227 127.938 78.7687 127.714 78.2087C127.49 77.6487 127.07 77.2707 126.454 77.0747C125.866 76.8787 124.984 76.7667 123.808 76.7387V75.8987C124.312 75.9267 124.9 75.9547 125.572 75.9827C126.244 75.9827 126.944 75.9967 127.672 76.0247C128.428 76.0247 129.114 76.0247 129.73 76.0247C130.654 76.0247 131.48 76.0107 132.208 75.9827C132.964 75.9547 133.594 75.9267 134.098 75.8987V76.7387C133.482 76.7667 133.02 76.8647 132.712 77.0327C132.404 77.2007 132.194 77.5367 132.082 78.0407C131.998 78.5447 131.956 79.3147 131.956 80.3507V88.6667H131.116C131.088 88.1907 130.976 87.6727 130.78 87.1127C130.612 86.5527 130.346 86.2727 129.982 86.2727C129.814 86.2727 129.646 86.3147 129.478 86.3987C129.31 86.4827 129.016 86.6787 128.596 86.9867C127.672 87.6867 126.692 88.2467 125.656 88.6667C124.62 89.0587 123.416 89.2547 122.044 89.2547C119.16 89.2547 116.682 88.6667 114.61 87.4907C112.566 86.2867 110.998 84.5647 109.906 82.3247C108.814 80.0847 108.268 77.4107 108.268 74.3027C108.268 71.0267 108.856 68.1987 110.032 65.8187C111.208 63.4387 112.804 61.6047 114.82 60.3167C116.864 59.0007 119.188 58.3427 121.792 58.3427ZM149.811 66.4487C150.567 66.4487 151.225 66.6027 151.785 66.9107C152.373 67.2187 152.821 67.6247 153.129 68.1287C153.465 68.6047 153.633 69.1507 153.633 69.7667C153.633 70.4667 153.409 71.0827 152.961 71.6147C152.541 72.1467 151.967 72.4127 151.239 72.4127C150.651 72.4127 150.133 72.2307 149.685 71.8667C149.237 71.4747 149.013 70.9287 149.013 70.2287C149.013 69.6967 149.153 69.2487 149.433 68.8847C149.741 68.4927 150.077 68.1847 150.441 67.9607C150.245 67.6807 149.951 67.5407 149.559 67.5407C148.691 67.5407 147.893 67.8067 147.165 68.3387C146.437 68.8427 145.821 69.5007 145.317 70.3127C144.813 71.1247 144.421 71.9927 144.141 72.9167C143.861 73.8127 143.721 74.6527 143.721 75.4367V84.3407C143.721 85.7127 144.113 86.6367 144.897 87.1127C145.709 87.5607 146.801 87.7847 148.173 87.7847V88.6667C147.529 88.6387 146.619 88.6107 145.443 88.5827C144.267 88.5267 143.021 88.4987 141.705 88.4987C140.753 88.4987 139.801 88.5267 138.849 88.5827C137.925 88.6107 137.225 88.6387 136.749 88.6667V87.7847C137.897 87.7847 138.709 87.5747 139.185 87.1547C139.689 86.7347 139.941 85.9367 139.941 84.7607V71.6147C139.941 70.3547 139.717 69.4307 139.269 68.8427C138.821 68.2267 137.981 67.9187 136.749 67.9187V67.0367C137.645 67.1207 138.513 67.1627 139.353 67.1627C140.165 67.1627 140.935 67.1207 141.663 67.0367C142.419 66.9247 143.105 66.7707 143.721 66.5747V71.8247C144.029 71.0127 144.463 70.2007 145.023 69.3887C145.611 68.5487 146.311 67.8487 147.123 67.2887C147.935 66.7287 148.831 66.4487 149.811 66.4487ZM161.416 88.9607C160.268 88.9607 159.274 88.7507 158.434 88.3307C157.594 87.8827 156.95 87.2667 156.502 86.4827C156.082 85.6987 155.872 84.7887 155.872 83.7527C155.872 82.5207 156.152 81.5127 156.712 80.7287C157.3 79.9447 158.042 79.3147 158.938 78.8387C159.834 78.3627 160.772 77.9707 161.752 77.6627C162.76 77.3267 163.712 77.0187 164.608 76.7387C165.504 76.4307 166.232 76.0807 166.792 75.6887C167.38 75.2967 167.674 74.7787 167.674 74.1347V71.5307C167.674 70.3547 167.492 69.4587 167.128 68.8427C166.792 68.2267 166.33 67.8207 165.742 67.6247C165.154 67.4007 164.496 67.2887 163.768 67.2887C163.068 67.2887 162.312 67.3867 161.5 67.5827C160.716 67.7787 160.086 68.1847 159.61 68.8007C160.142 68.9127 160.604 69.1927 160.996 69.6407C161.388 70.0887 161.584 70.6627 161.584 71.3627C161.584 72.0627 161.36 72.6227 160.912 73.0427C160.464 73.4347 159.89 73.6307 159.19 73.6307C158.378 73.6307 157.776 73.3787 157.384 72.8747C157.02 72.3427 156.838 71.7547 156.838 71.1107C156.838 70.3827 157.02 69.7947 157.384 69.3467C157.748 68.8987 158.21 68.4787 158.77 68.0867C159.414 67.6387 160.24 67.2607 161.248 66.9527C162.284 66.6167 163.446 66.4487 164.734 66.4487C165.882 66.4487 166.862 66.5887 167.674 66.8687C168.486 67.1207 169.158 67.4987 169.69 68.0027C170.418 68.6747 170.894 69.5007 171.118 70.4807C171.342 71.4327 171.454 72.5807 171.454 73.9247V85.6007C171.454 86.3007 171.552 86.8047 171.748 87.1127C171.972 87.4207 172.308 87.5747 172.756 87.5747C173.064 87.5747 173.358 87.5047 173.638 87.3647C173.918 87.2247 174.254 87.0007 174.646 86.6927L175.108 87.4067C174.52 87.8547 173.96 88.2327 173.428 88.5407C172.896 88.8207 172.182 88.9607 171.286 88.9607C170.474 88.9607 169.802 88.8207 169.27 88.5407C168.738 88.2607 168.332 87.8547 168.052 87.3227C167.8 86.7627 167.674 86.0627 167.674 85.2227C166.918 86.4827 166.008 87.4207 164.944 88.0367C163.908 88.6527 162.732 88.9607 161.416 88.9607ZM162.928 87.2807C163.852 87.2807 164.706 87.0147 165.49 86.4827C166.302 85.9507 167.03 85.1527 167.674 84.0887V75.8567C167.338 76.3327 166.848 76.7387 166.204 77.0747C165.56 77.3827 164.86 77.7047 164.104 78.0407C163.348 78.3487 162.62 78.7267 161.92 79.1747C161.248 79.5947 160.688 80.1547 160.24 80.8547C159.792 81.5547 159.568 82.4647 159.568 83.5847C159.568 84.7047 159.862 85.6007 160.45 86.2727C161.066 86.9447 161.892 87.2807 162.928 87.2807ZM183.048 66.5747V92.3627C183.048 93.5667 183.398 94.3647 184.098 94.7567C184.826 95.1767 185.82 95.3867 187.08 95.3867V96.2687C186.464 96.2407 185.61 96.1987 184.518 96.1427C183.426 96.1147 182.264 96.1007 181.032 96.1007C180.164 96.1007 179.296 96.1147 178.428 96.1427C177.588 96.1987 176.944 96.2407 176.496 96.2687V95.3867C177.504 95.3867 178.218 95.2047 178.638 94.8407C179.058 94.4767 179.268 93.7907 179.268 92.7827V71.6147C179.268 70.3547 179.044 69.4307 178.596 68.8427C178.148 68.2267 177.308 67.9187 176.076 67.9187V67.0367C176.972 67.1207 177.84 67.1627 178.68 67.1627C179.492 67.1627 180.262 67.1207 180.99 67.0367C181.746 66.9247 182.432 66.7707 183.048 66.5747ZM189.768 66.4487C191.252 66.4487 192.582 66.8547 193.758 67.6667C194.934 68.4507 195.858 69.6127 196.53 71.1527C197.23 72.6927 197.58 74.5967 197.58 76.8647C197.58 78.3767 197.398 79.8747 197.034 81.3587C196.67 82.8147 196.096 84.1447 195.312 85.3487C194.556 86.5247 193.562 87.4767 192.33 88.2047C191.126 88.9047 189.67 89.2547 187.962 89.2547C186.646 89.2547 185.498 88.9467 184.518 88.3307C183.566 87.7147 182.922 86.9727 182.586 86.1047L183.006 85.5167C183.398 86.3007 183.958 86.9587 184.686 87.4907C185.442 88.0227 186.38 88.2887 187.5 88.2887C189.068 88.2887 190.286 87.7987 191.154 86.8187C192.022 85.8387 192.624 84.5367 192.96 82.9127C193.324 81.2607 193.506 79.4407 193.506 77.4527C193.506 75.2127 193.324 73.3787 192.96 71.9507C192.596 70.5227 192.05 69.4587 191.322 68.7587C190.594 68.0587 189.698 67.7087 188.634 67.7087C187.262 67.7087 186.016 68.2827 184.896 69.4307C183.776 70.5507 183.062 72.2587 182.754 74.5547L182.25 73.9667C182.558 71.5867 183.398 69.7387 184.77 68.4227C186.17 67.1067 187.836 66.4487 189.768 66.4487ZM207.369 55.7807V71.4887C208.097 69.5847 209.105 68.2687 210.393 67.5407C211.709 66.8127 213.081 66.4487 214.509 66.4487C215.573 66.4487 216.455 66.5887 217.155 66.8687C217.883 67.1487 218.485 67.5407 218.961 68.0447C219.493 68.6047 219.871 69.3047 220.095 70.1447C220.319 70.9847 220.431 72.1187 220.431 73.5467V84.7607C220.431 85.9367 220.669 86.7347 221.145 87.1547C221.649 87.5747 222.475 87.7847 223.623 87.7847V88.6667C223.147 88.6387 222.419 88.6107 221.439 88.5827C220.459 88.5267 219.507 88.4987 218.583 88.4987C217.659 88.4987 216.749 88.5267 215.853 88.5827C214.985 88.6107 214.327 88.6387 213.879 88.6667V87.7847C214.887 87.7847 215.601 87.5747 216.021 87.1547C216.441 86.7347 216.651 85.9367 216.651 84.7607V72.6227C216.651 71.7547 216.581 70.9567 216.441 70.2287C216.301 69.5007 215.979 68.9127 215.475 68.4647C214.999 68.0167 214.257 67.7927 213.249 67.7927C212.101 67.7927 211.079 68.1147 210.183 68.7587C209.315 69.4027 208.629 70.2987 208.125 71.4467C207.621 72.5947 207.369 73.9107 207.369 75.3947V84.7607C207.369 85.9367 207.579 86.7347 207.999 87.1547C208.419 87.5747 209.133 87.7847 210.141 87.7847V88.6667C209.693 88.6387 209.021 88.6107 208.125 88.5827C207.257 88.5267 206.361 88.4987 205.437 88.4987C204.513 88.4987 203.561 88.5267 202.581 88.5827C201.601 88.6107 200.873 88.6387 200.397 88.6667V87.7847C201.545 87.7847 202.357 87.5747 202.833 87.1547C203.337 86.7347 203.589 85.9367 203.589 84.7607V60.8207C203.589 59.5607 203.365 58.6367 202.917 58.0487C202.469 57.4327 201.629 57.1247 200.397 57.1247V56.2427C201.293 56.3267 202.161 56.3687 203.001 56.3687C203.813 56.3687 204.583 56.3267 205.311 56.2427C206.067 56.1307 206.753 55.9767 207.369 55.7807ZM230.254 56.5367C230.982 56.5367 231.612 56.8027 232.144 57.3347C232.676 57.8667 232.942 58.4967 232.942 59.2247C232.942 59.9527 232.676 60.5827 232.144 61.1147C231.612 61.6467 230.982 61.9127 230.254 61.9127C229.526 61.9127 228.896 61.6467 228.364 61.1147C227.832 60.5827 227.566 59.9527 227.566 59.2247C227.566 58.4967 227.832 57.8667 228.364 57.3347C228.896 56.8027 229.526 56.5367 230.254 56.5367ZM232.438 66.5747V84.7607C232.438 85.9367 232.676 86.7347 233.152 87.1547C233.656 87.5747 234.482 87.7847 235.63 87.7847V88.6667C235.154 88.6387 234.426 88.6107 233.446 88.5827C232.494 88.5267 231.528 88.4987 230.548 88.4987C229.596 88.4987 228.63 88.5267 227.65 88.5827C226.67 88.6107 225.942 88.6387 225.466 88.6667V87.7847C226.614 87.7847 227.426 87.5747 227.902 87.1547C228.406 86.7347 228.658 85.9367 228.658 84.7607V71.6147C228.658 70.3547 228.434 69.4307 227.986 68.8427C227.538 68.2267 226.698 67.9187 225.466 67.9187V67.0367C226.362 67.1207 227.23 67.1627 228.07 67.1627C228.882 67.1627 229.652 67.1207 230.38 67.0367C231.136 66.9247 231.822 66.7707 232.438 66.5747ZM248.271 66.4487C249.167 66.4487 250.035 66.5607 250.875 66.7847C251.715 67.0087 252.471 67.3447 253.143 67.7927C253.787 68.2127 254.277 68.7027 254.613 69.2627C254.949 69.7947 255.117 70.3827 255.117 71.0267C255.117 71.7827 254.907 72.3707 254.487 72.7907C254.067 73.1827 253.535 73.3787 252.891 73.3787C252.275 73.3787 251.729 73.1967 251.253 72.8327C250.805 72.4687 250.581 71.9507 250.581 71.2787C250.581 70.6347 250.749 70.1167 251.085 69.7247C251.449 69.3327 251.869 69.0807 252.345 68.9687C252.065 68.4647 251.561 68.0447 250.833 67.7087C250.133 67.3727 249.377 67.2047 248.565 67.2047C247.865 67.2047 247.165 67.3727 246.465 67.7087C245.765 68.0447 245.121 68.6047 244.533 69.3887C243.945 70.1447 243.469 71.1947 243.105 72.5387C242.741 73.8547 242.559 75.5067 242.559 77.4947C242.559 79.9587 242.839 81.9187 243.399 83.3747C243.959 84.8307 244.687 85.8807 245.583 86.5247C246.507 87.1407 247.515 87.4487 248.607 87.4487C249.335 87.4487 250.077 87.3087 250.833 87.0287C251.589 86.7487 252.303 86.3007 252.975 85.6847C253.647 85.0407 254.221 84.1867 254.697 83.1227L255.495 83.4167C255.215 84.3127 254.753 85.2227 254.109 86.1467C253.465 87.0427 252.625 87.7847 251.589 88.3727C250.553 88.9607 249.279 89.2547 247.767 89.2547C246.031 89.2547 244.463 88.8067 243.063 87.9107C241.663 87.0147 240.543 85.7407 239.703 84.0887C238.891 82.4087 238.485 80.4207 238.485 78.1247C238.485 75.8287 238.891 73.8127 239.703 72.0767C240.543 70.3127 241.705 68.9407 243.189 67.9607C244.673 66.9527 246.367 66.4487 248.271 66.4487ZM294.948 58.9307V59.7707C293.996 59.7987 293.268 59.9387 292.764 60.1907C292.288 60.4427 291.966 60.8487 291.798 61.4087C291.63 61.9687 291.546 62.7667 291.546 63.8027V76.4447C291.546 78.4047 291.419 80.1127 291.167 81.5687C290.916 83.0247 290.468 84.2847 289.824 85.3487C289.124 86.5247 288.102 87.4767 286.758 88.2047C285.414 88.9047 283.874 89.2547 282.138 89.2547C280.794 89.2547 279.506 89.0867 278.274 88.7507C277.07 88.4427 276.006 87.8547 275.082 86.9867C274.27 86.2027 273.626 85.3767 273.15 84.5087C272.702 83.6407 272.394 82.5767 272.226 81.3167C272.058 80.0567 271.974 78.4747 271.974 76.5707V63.3827C271.974 62.3467 271.89 61.5907 271.722 61.1147C271.554 60.6107 271.218 60.2747 270.714 60.1067C270.238 59.9107 269.524 59.7987 268.572 59.7707V58.9307C269.16 58.9587 269.93 58.9867 270.882 59.0147C271.834 59.0427 272.856 59.0567 273.948 59.0567C274.928 59.0567 275.894 59.0427 276.846 59.0147C277.826 58.9867 278.638 58.9587 279.282 58.9307V59.7707C278.33 59.7987 277.602 59.9107 277.098 60.1067C276.622 60.2747 276.3 60.6107 276.132 61.1147C275.964 61.5907 275.88 62.3467 275.88 63.3827V77.2847C275.88 78.7127 275.95 80.0707 276.09 81.3587C276.23 82.6187 276.51 83.7387 276.93 84.7187C277.378 85.6707 278.05 86.4267 278.946 86.9867C279.842 87.5187 281.032 87.7847 282.516 87.7847C284.644 87.7847 286.282 87.3227 287.43 86.3987C288.606 85.4467 289.418 84.1447 289.866 82.4927C290.342 80.8407 290.579 78.9787 290.579 76.9067V63.8027C290.579 62.7667 290.454 61.9687 290.202 61.4087C289.978 60.8487 289.586 60.4427 289.025 60.1907C288.466 59.9387 287.71 59.7987 286.758 59.7707V58.9307C287.262 58.9587 287.92 58.9867 288.732 59.0147C289.572 59.0427 290.342 59.0567 291.042 59.0567C291.77 59.0567 292.484 59.0427 293.184 59.0147C293.912 58.9867 294.5 58.9587 294.948 58.9307ZM303.777 66.4487C304.897 66.4487 305.849 66.6307 306.633 66.9947C307.417 67.3587 307.991 67.6947 308.355 68.0027C309.279 68.7587 309.839 68.2547 310.035 66.4907H311.001C310.945 67.2747 310.903 68.2127 310.875 69.3047C310.847 70.3687 310.833 71.8107 310.833 73.6307H309.867C309.699 72.5947 309.405 71.5867 308.985 70.6067C308.593 69.6267 308.005 68.8287 307.221 68.2127C306.437 67.5687 305.415 67.2467 304.155 67.2467C303.175 67.2467 302.349 67.5267 301.677 68.0867C301.033 68.6187 300.711 69.4167 300.711 70.4807C300.711 71.3207 300.963 72.0487 301.467 72.6647C301.971 73.2527 302.629 73.8127 303.441 74.3447C304.253 74.8487 305.135 75.4087 306.087 76.0247C307.151 76.6967 308.117 77.3827 308.985 78.0827C309.853 78.7827 310.539 79.5527 311.043 80.3927C311.575 81.2327 311.841 82.2267 311.841 83.3747C311.841 84.6627 311.505 85.7407 310.833 86.6087C310.161 87.4767 309.279 88.1347 308.187 88.5827C307.123 89.0307 305.947 89.2547 304.659 89.2547C304.043 89.2547 303.455 89.1987 302.895 89.0867C302.363 89.0027 301.845 88.8627 301.341 88.6667C301.061 88.5267 300.767 88.3587 300.459 88.1627C300.179 87.9667 299.899 87.7567 299.619 87.5327C299.339 87.3087 299.087 87.3227 298.863 87.5747C298.639 87.7987 298.471 88.2607 298.359 88.9607H297.393C297.449 88.0647 297.491 86.9727 297.519 85.6847C297.547 84.3967 297.561 82.6887 297.561 80.5607H298.527C298.723 82.1287 299.003 83.5007 299.367 84.6767C299.731 85.8527 300.305 86.7767 301.089 87.4487C301.873 88.0927 302.965 88.4147 304.365 88.4147C304.925 88.4147 305.485 88.2887 306.045 88.0367C306.633 87.7847 307.123 87.3647 307.515 86.7767C307.907 86.1887 308.103 85.4047 308.103 84.4247C308.103 83.1927 307.655 82.1847 306.759 81.4007C305.863 80.6167 304.729 79.7907 303.357 78.9227C302.349 78.2787 301.397 77.6347 300.501 76.9907C299.633 76.3467 298.919 75.6187 298.359 74.8067C297.827 73.9947 297.561 73.0147 297.561 71.8667C297.561 70.6067 297.841 69.5847 298.401 68.8007C298.989 67.9887 299.759 67.4007 300.711 67.0367C301.663 66.6447 302.685 66.4487 303.777 66.4487ZM325.25 66.4487C327.714 66.4487 329.632 67.2047 331.004 68.7167C332.404 70.2007 333.104 72.5247 333.104 75.6887H318.278L318.236 74.8907H329.072C329.128 73.5187 329.016 72.2587 328.736 71.1107C328.456 69.9347 328.008 68.9967 327.392 68.2967C326.804 67.5967 326.034 67.2467 325.082 67.2467C323.794 67.2467 322.646 67.8907 321.638 69.1787C320.658 70.4667 320.07 72.5107 319.874 75.3107L320 75.4787C319.944 75.8987 319.902 76.3607 319.874 76.8647C319.846 77.3687 319.832 77.8727 319.832 78.3767C319.832 80.2807 320.14 81.9187 320.756 83.2907C321.372 84.6627 322.17 85.7127 323.15 86.4407C324.158 87.1407 325.194 87.4907 326.258 87.4907C327.098 87.4907 327.896 87.3647 328.652 87.1127C329.408 86.8327 330.108 86.3847 330.752 85.7687C331.396 85.1527 331.956 84.3267 332.432 83.2907L333.272 83.6267C332.964 84.5507 332.46 85.4467 331.76 86.3147C331.06 87.1827 330.178 87.8967 329.114 88.4567C328.05 88.9887 326.818 89.2547 325.418 89.2547C323.402 89.2547 321.666 88.7927 320.21 87.8687C318.782 86.9447 317.676 85.6707 316.892 84.0467C316.136 82.3947 315.758 80.5047 315.758 78.3767C315.758 75.9127 316.15 73.7987 316.934 72.0347C317.718 70.2427 318.824 68.8707 320.252 67.9187C321.68 66.9387 323.346 66.4487 325.25 66.4487ZM349.352 66.4487C350.108 66.4487 350.766 66.6027 351.326 66.9107C351.914 67.2187 352.362 67.6247 352.67 68.1287C353.006 68.6047 353.174 69.1507 353.174 69.7667C353.174 70.4667 352.95 71.0827 352.502 71.6147C352.082 72.1467 351.508 72.4127 350.78 72.4127C350.192 72.4127 349.674 72.2307 349.226 71.8667C348.778 71.4747 348.554 70.9287 348.554 70.2287C348.554 69.6967 348.694 69.2487 348.974 68.8847C349.282 68.4927 349.618 68.1847 349.982 67.9607C349.786 67.6807 349.492 67.5407 349.1 67.5407C348.232 67.5407 347.434 67.8067 346.706 68.3387C345.978 68.8427 345.362 69.5007 344.858 70.3127C344.354 71.1247 343.962 71.9927 343.682 72.9167C343.402 73.8127 343.262 74.6527 343.262 75.4367V84.3407C343.262 85.7127 343.654 86.6367 344.438 87.1127C345.25 87.5607 346.342 87.7847 347.714 87.7847V88.6667C347.07 88.6387 346.16 88.6107 344.984 88.5827C343.808 88.5267 342.562 88.4987 341.246 88.4987C340.294 88.4987 339.342 88.5267 338.39 88.5827C337.466 88.6107 336.766 88.6387 336.29 88.6667V87.7847C337.438 87.7847 338.25 87.5747 338.726 87.1547C339.23 86.7347 339.482 85.9367 339.482 84.7607V71.6147C339.482 70.3547 339.258 69.4307 338.81 68.8427C338.362 68.2267 337.522 67.9187 336.29 67.9187V67.0367C337.186 67.1207 338.054 67.1627 338.894 67.1627C339.706 67.1627 340.476 67.1207 341.204 67.0367C341.96 66.9247 342.646 66.7707 343.262 66.5747V71.8247C343.57 71.0127 344.004 70.2007 344.564 69.3887C345.152 68.5487 345.852 67.8487 346.664 67.2887C347.476 66.7287 348.372 66.4487 349.352 66.4487ZM375.806 58.9307V59.7707C374.854 59.7987 374.126 59.9107 373.622 60.1067C373.146 60.2747 372.824 60.6107 372.656 61.1147C372.488 61.5907 372.404 62.3467 372.404 63.3827V84.2147C372.404 85.2227 372.488 85.9787 372.656 86.4827C372.824 86.9867 373.146 87.3227 373.622 87.4907C374.126 87.6587 374.854 87.7707 375.806 87.8267V88.6667C375.162 88.6107 374.35 88.5827 373.37 88.5827C372.418 88.5547 371.452 88.5407 370.472 88.5407C369.38 88.5407 368.358 88.5547 367.406 88.5827C366.454 88.5827 365.684 88.6107 365.096 88.6667V87.8267C366.048 87.7707 366.762 87.6587 367.238 87.4907C367.742 87.3227 368.078 86.9867 368.246 86.4827C368.414 85.9787 368.498 85.2227 368.498 84.2147V63.3827C368.498 62.3467 368.414 61.5907 368.246 61.1147C368.078 60.6107 367.742 60.2747 367.238 60.1067C366.762 59.9107 366.048 59.7987 365.096 59.7707V58.9307C365.684 58.9587 366.454 58.9867 367.406 59.0147C368.358 59.0427 369.38 59.0567 370.472 59.0567C371.452 59.0567 372.418 59.0427 373.37 59.0147C374.35 58.9867 375.162 58.9587 375.806 58.9307ZM392.894 66.4487C393.958 66.4487 394.84 66.5887 395.54 66.8687C396.268 67.1487 396.87 67.5407 397.346 68.0447C397.878 68.6047 398.256 69.3047 398.48 70.1447C398.704 70.9847 398.816 72.1187 398.816 73.5467V84.7607C398.816 85.9367 399.054 86.7347 399.53 87.1547C400.034 87.5747 400.86 87.7847 402.008 87.7847V88.6667C401.532 88.6387 400.804 88.6107 399.824 88.5827C398.844 88.5267 397.892 88.4987 396.968 88.4987C396.044 88.4987 395.134 88.5267 394.238 88.5827C393.37 88.6107 392.712 88.6387 392.264 88.6667V87.7847C393.272 87.7847 393.986 87.5747 394.406 87.1547C394.826 86.7347 395.036 85.9367 395.036 84.7607V72.6227C395.036 71.7547 394.966 70.9567 394.826 70.2287C394.686 69.5007 394.364 68.9127 393.86 68.4647C393.384 68.0167 392.642 67.7927 391.634 67.7927C390.458 67.7927 389.422 68.1287 388.526 68.8007C387.658 69.4727 386.972 70.3967 386.468 71.5727C385.992 72.7207 385.754 74.0087 385.754 75.4367V84.7607C385.754 85.9367 385.964 86.7347 386.384 87.1547C386.804 87.5747 387.518 87.7847 388.526 87.7847V88.6667C388.078 88.6387 387.406 88.6107 386.51 88.5827C385.642 88.5267 384.746 88.4987 383.822 88.4987C382.898 88.4987 381.946 88.5267 380.966 88.5827C379.986 88.6107 379.258 88.6387 378.782 88.6667V87.7847C379.93 87.7847 380.742 87.5747 381.218 87.1547C381.722 86.7347 381.974 85.9367 381.974 84.7607V71.6147C381.974 70.3547 381.75 69.4307 381.302 68.8427C380.854 68.2267 380.014 67.9187 378.782 67.9187V67.0367C379.678 67.1207 380.546 67.1627 381.386 67.1627C382.198 67.1627 382.968 67.1207 383.696 67.0367C384.452 66.9247 385.138 66.7707 385.754 66.5747V71.5307C386.482 69.6267 387.49 68.3107 388.778 67.5827C390.094 66.8267 391.466 66.4487 392.894 66.4487ZM410.605 60.0647V67.0787H416.821V67.9187H410.605V84.1727C410.605 85.4887 410.843 86.4127 411.319 86.9447C411.795 87.4767 412.453 87.7427 413.293 87.7427C414.133 87.7427 414.861 87.4067 415.477 86.7347C416.093 86.0347 416.625 84.8727 417.073 83.2487L417.913 83.4587C417.633 85.0827 417.073 86.4547 416.233 87.5747C415.421 88.6947 414.161 89.2547 412.453 89.2547C411.501 89.2547 410.717 89.1287 410.101 88.8767C409.485 88.6527 408.939 88.3167 408.463 87.8687C407.847 87.2247 407.413 86.4547 407.161 85.5587C406.937 84.6627 406.825 83.4727 406.825 81.9887V67.9187H402.793V67.0787H406.825V60.6527C407.525 60.6247 408.197 60.5687 408.841 60.4847C409.485 60.4007 410.073 60.2607 410.605 60.0647ZM428.897 66.4487C431.361 66.4487 433.279 67.2047 434.651 68.7167C436.051 70.2007 436.751 72.5247 436.751 75.6887H421.925L421.883 74.8907H432.719C432.775 73.5187 432.663 72.2587 432.383 71.1107C432.103 69.9347 431.655 68.9967 431.039 68.2967C430.451 67.5967 429.681 67.2467 428.729 67.2467C427.441 67.2467 426.293 67.8907 425.285 69.1787C424.305 70.4667 423.717 72.5107 423.521 75.3107L423.647 75.4787C423.591 75.8987 423.549 76.3607 423.521 76.8647C423.493 77.3687 423.479 77.8727 423.479 78.3767C423.479 80.2807 423.787 81.9187 424.403 83.2907C425.019 84.6627 425.817 85.7127 426.797 86.4407C427.805 87.1407 428.841 87.4907 429.905 87.4907C430.745 87.4907 431.543 87.3647 432.299 87.1127C433.055 86.8327 433.755 86.3847 434.399 85.7687C435.043 85.1527 435.603 84.3267 436.079 83.2907L436.919 83.6267C436.611 84.5507 436.107 85.4467 435.407 86.3147C434.707 87.1827 433.825 87.8967 432.761 88.4567C431.697 88.9887 430.465 89.2547 429.065 89.2547C427.049 89.2547 425.313 88.7927 423.857 87.8687C422.429 86.9447 421.323 85.6707 420.539 84.0467C419.783 82.3947 419.405 80.5047 419.405 78.3767C419.405 75.9127 419.797 73.7987 420.581 72.0347C421.365 70.2427 422.471 68.8707 423.899 67.9187C425.327 66.9387 426.993 66.4487 428.897 66.4487ZM452.999 66.4487C453.755 66.4487 454.413 66.6027 454.973 66.9107C455.561 67.2187 456.009 67.6247 456.317 68.1287C456.653 68.6047 456.821 69.1507 456.821 69.7667C456.821 70.4667 456.597 71.0827 456.149 71.6147C455.729 72.1467 455.155 72.4127 454.427 72.4127C453.839 72.4127 453.321 72.2307 452.873 71.8667C452.425 71.4747 452.201 70.9287 452.201 70.2287C452.201 69.6967 452.341 69.2487 452.621 68.8847C452.929 68.4927 453.265 68.1847 453.629 67.9607C453.433 67.6807 453.139 67.5407 452.747 67.5407C451.879 67.5407 451.081 67.8067 450.353 68.3387C449.625 68.8427 449.009 69.5007 448.505 70.3127C448.001 71.1247 447.609 71.9927 447.329 72.9167C447.049 73.8127 446.909 74.6527 446.909 75.4367V84.3407C446.909 85.7127 447.301 86.6367 448.085 87.1127C448.897 87.5607 449.989 87.7847 451.361 87.7847V88.6667C450.717 88.6387 449.807 88.6107 448.631 88.5827C447.455 88.5267 446.209 88.4987 444.893 88.4987C443.941 88.4987 442.989 88.5267 442.037 88.5827C441.113 88.6107 440.413 88.6387 439.937 88.6667V87.7847C441.085 87.7847 441.897 87.5747 442.373 87.1547C442.877 86.7347 443.129 85.9367 443.129 84.7607V71.6147C443.129 70.3547 442.905 69.4307 442.457 68.8427C442.009 68.2267 441.169 67.9187 439.937 67.9187V67.0367C440.833 67.1207 441.701 67.1627 442.541 67.1627C443.353 67.1627 444.123 67.1207 444.851 67.0367C445.607 66.9247 446.293 66.7707 446.909 66.5747V71.8247C447.217 71.0127 447.651 70.2007 448.211 69.3887C448.799 68.5487 449.499 67.8487 450.311 67.2887C451.123 66.7287 452.019 66.4487 452.999 66.4487ZM468.85 55.8227C469.634 55.8227 470.32 55.9347 470.908 56.1587C471.524 56.3547 472.056 56.6207 472.504 56.9567C472.924 57.2927 473.246 57.6847 473.47 58.1327C473.694 58.5807 473.806 59.0567 473.806 59.5607C473.806 60.2047 473.596 60.7367 473.176 61.1567C472.756 61.5767 472.224 61.7867 471.58 61.7867C470.964 61.7867 470.418 61.5907 469.942 61.1987C469.494 60.7787 469.27 60.2187 469.27 59.5187C469.27 58.9307 469.424 58.4547 469.732 58.0907C470.068 57.7267 470.502 57.4887 471.034 57.3767C470.95 57.1247 470.726 56.9147 470.362 56.7467C470.026 56.5507 469.564 56.4527 468.976 56.4527C468.332 56.4527 467.772 56.5927 467.296 56.8727C466.848 57.1527 466.498 57.5307 466.246 58.0067C465.91 58.5947 465.7 59.4767 465.616 60.6527C465.532 61.8007 465.49 63.5787 465.49 65.9867V67.0787H469.984V67.9187H465.49V84.3407C465.49 85.7127 465.882 86.6367 466.666 87.1127C467.478 87.5607 468.57 87.7847 469.942 87.7847V88.6667C469.298 88.6387 468.388 88.6107 467.212 88.5827C466.036 88.5267 464.79 88.4987 463.474 88.4987C462.522 88.4987 461.57 88.5267 460.618 88.5827C459.694 88.6107 458.994 88.6387 458.518 88.6667V87.7847C459.666 87.7847 460.478 87.5747 460.954 87.1547C461.458 86.7347 461.71 85.9367 461.71 84.7607V67.9187H458.35V67.0787H461.71C461.71 65.4267 461.78 64.0407 461.92 62.9207C462.06 61.8007 462.284 60.8487 462.592 60.0647C462.9 59.2527 463.32 58.5387 463.852 57.9227C464.412 57.2787 465.126 56.7747 465.994 56.4107C466.862 56.0187 467.814 55.8227 468.85 55.8227ZM478.385 88.9607C477.237 88.9607 476.243 88.7507 475.403 88.3307C474.563 87.8827 473.919 87.2667 473.471 86.4827C473.051 85.6987 472.841 84.7887 472.841 83.7527C472.841 82.5207 473.121 81.5127 473.681 80.7287C474.269 79.9447 475.011 79.3147 475.907 78.8387C476.803 78.3627 477.741 77.9707 478.721 77.6627C479.729 77.3267 480.681 77.0187 481.577 76.7387C482.473 76.4307 483.201 76.0807 483.761 75.6887C484.349 75.2967 484.643 74.7787 484.643 74.1347V71.5307C484.643 70.3547 484.461 69.4587 484.097 68.8427C483.761 68.2267 483.299 67.8207 482.711 67.6247C482.123 67.4007 481.465 67.2887 480.737 67.2887C480.037 67.2887 479.281 67.3867 478.469 67.5827C477.685 67.7787 477.055 68.1847 476.579 68.8007C477.111 68.9127 477.573 69.1927 477.965 69.6407C478.357 70.0887 478.553 70.6627 478.553 71.3627C478.553 72.0627 478.329 72.6227 477.881 73.0427C477.433 73.4347 476.859 73.6307 476.159 73.6307C475.347 73.6307 474.745 73.3787 474.353 72.8747C473.989 72.3427 473.807 71.7547 473.807 71.1107C473.807 70.3827 473.989 69.7947 474.353 69.3467C474.717 68.8987 475.179 68.4787 475.739 68.0867C476.383 67.6387 477.209 67.2607 478.217 66.9527C479.253 66.6167 480.415 66.4487 481.703 66.4487C482.851 66.4487 483.831 66.5887 484.643 66.8687C485.455 67.1207 486.127 67.4987 486.659 68.0027C487.387 68.6747 487.863 69.5007 488.087 70.4807C488.311 71.4327 488.423 72.5807 488.423 73.9247V85.6007C488.423 86.3007 488.521 86.8047 488.717 87.1127C488.941 87.4207 489.277 87.5747 489.725 87.5747C490.033 87.5747 490.327 87.5047 490.607 87.3647C490.887 87.2247 491.223 87.0007 491.615 86.6927L492.077 87.4067C491.489 87.8547 490.929 88.2327 490.397 88.5407C489.865 88.8207 489.151 88.9607 488.255 88.9607C487.443 88.9607 486.771 88.8207 486.239 88.5407C485.707 88.2607 485.301 87.8547 485.021 87.3227C484.769 86.7627 484.643 86.0627 484.643 85.2227C483.887 86.4827 482.977 87.4207 481.913 88.0367C480.877 88.6527 479.701 88.9607 478.385 88.9607ZM479.897 87.2807C480.821 87.2807 481.675 87.0147 482.459 86.4827C483.271 85.9507 483.999 85.1527 484.643 84.0887V75.8567C484.307 76.3327 483.817 76.7387 483.173 77.0747C482.529 77.3827 481.829 77.7047 481.073 78.0407C480.317 78.3487 479.589 78.7267 478.889 79.1747C478.217 79.5947 477.657 80.1547 477.209 80.8547C476.761 81.5547 476.537 82.4647 476.537 83.5847C476.537 84.7047 476.831 85.6007 477.419 86.2727C478.035 86.9447 478.861 87.2807 479.897 87.2807ZM503.839 66.4487C504.735 66.4487 505.603 66.5607 506.443 66.7847C507.283 67.0087 508.039 67.3447 508.711 67.7927C509.355 68.2127 509.845 68.7027 510.181 69.2627C510.517 69.7947 510.685 70.3827 510.685 71.0267C510.685 71.7827 510.475 72.3707 510.055 72.7907C509.635 73.1827 509.103 73.3787 508.459 73.3787C507.843 73.3787 507.297 73.1967 506.821 72.8327C506.373 72.4687 506.149 71.9507 506.149 71.2787C506.149 70.6347 506.317 70.1167 506.653 69.7247C507.017 69.3327 507.437 69.0807 507.913 68.9687C507.633 68.4647 507.129 68.0447 506.401 67.7087C505.701 67.3727 504.945 67.2047 504.133 67.2047C503.433 67.2047 502.733 67.3727 502.033 67.7087C501.333 68.0447 500.689 68.6047 500.101 69.3887C499.513 70.1447 499.037 71.1947 498.673 72.5387C498.309 73.8547 498.127 75.5067 498.127 77.4947C498.127 79.9587 498.407 81.9187 498.967 83.3747C499.527 84.8307 500.255 85.8807 501.151 86.5247C502.075 87.1407 503.083 87.4487 504.175 87.4487C504.903 87.4487 505.645 87.3087 506.401 87.0287C507.157 86.7487 507.871 86.3007 508.543 85.6847C509.215 85.0407 509.789 84.1867 510.265 83.1227L511.063 83.4167C510.783 84.3127 510.321 85.2227 509.677 86.1467C509.033 87.0427 508.193 87.7847 507.157 88.3727C506.121 88.9607 504.847 89.2547 503.335 89.2547C501.599 89.2547 500.031 88.8067 498.631 87.9107C497.231 87.0147 496.111 85.7407 495.271 84.0887C494.459 82.4087 494.053 80.4207 494.053 78.1247C494.053 75.8287 494.459 73.8127 495.271 72.0767C496.111 70.3127 497.273 68.9407 498.757 67.9607C500.241 66.9527 501.935 66.4487 503.839 66.4487ZM523.971 66.4487C526.435 66.4487 528.353 67.2047 529.725 68.7167C531.125 70.2007 531.825 72.5247 531.825 75.6887H516.999L516.957 74.8907H527.793C527.849 73.5187 527.737 72.2587 527.457 71.1107C527.177 69.9347 526.729 68.9967 526.113 68.2967C525.525 67.5967 524.755 67.2467 523.803 67.2467C522.515 67.2467 521.367 67.8907 520.359 69.1787C519.379 70.4667 518.791 72.5107 518.595 75.3107L518.721 75.4787C518.665 75.8987 518.623 76.3607 518.595 76.8647C518.567 77.3687 518.553 77.8727 518.553 78.3767C518.553 80.2807 518.861 81.9187 519.477 83.2907C520.093 84.6627 520.891 85.7127 521.871 86.4407C522.879 87.1407 523.915 87.4907 524.979 87.4907C525.819 87.4907 526.617 87.3647 527.373 87.1127C528.129 86.8327 528.829 86.3847 529.473 85.7687C530.117 85.1527 530.677 84.3267 531.153 83.2907L531.993 83.6267C531.685 84.5507 531.181 85.4467 530.481 86.3147C529.781 87.1827 528.899 87.8967 527.835 88.4567C526.771 88.9887 525.539 89.2547 524.139 89.2547C522.123 89.2547 520.387 88.7927 518.931 87.8687C517.503 86.9447 516.397 85.6707 515.613 84.0467C514.857 82.3947 514.479 80.5047 514.479 78.3767C514.479 75.9127 514.871 73.7987 515.655 72.0347C516.439 70.2427 517.545 68.8707 518.973 67.9187C520.401 66.9387 522.067 66.4487 523.971 66.4487Z" fill="#1D63ED"/>
<path d="M96.5 50C96.5 73.4721 77.4721 92.5 54 92.5C30.5279 92.5 11.5 73.4721 11.5 50C11.5 26.5279 30.5279 7.5 54 7.5C77.4721 7.5 96.5 26.5279 96.5 50Z" fill="white" stroke="#00875F"/>
<path d="M17.3751 50.3119C16.884 51.0291 17.055 52.0261 17.757 52.5387L52.1315 77.6374C52.8336 78.15 53.8008 77.9841 54.292 77.2669C54.7831 76.5496 54.6121 75.5526 53.9101 75.04L19.5356 49.9413C18.8335 49.4287 17.8662 49.5946 17.3751 50.3119Z" fill="#00875F"/>
<rect width="21.7644" height="3.14797" rx="1.57399" transform="matrix(0.807628 0.589693 0.56498 -0.825105 35.7012 28.0669)" fill="#00875F"/>
<rect width="34.8414" height="3.14797" rx="1.57399" transform="matrix(0.807628 0.589693 0.56498 -0.825105 25.7153 39.9373)" fill="#00875F"/>
<rect width="21.6099" height="3.14797" rx="1.57399" transform="matrix(0.807628 -0.589693 0.56498 0.825105 52.28 35.8684)" fill="#00875F"/>
<path d="M53.1693 56.6737C52.6782 55.9564 52.8492 54.9594 53.5512 54.4468L78.8642 35.9645C79.5662 35.4519 80.5335 35.6178 81.0246 36.335C81.5158 37.0523 81.3448 38.0493 80.6427 38.5619L55.3298 57.0442C54.6277 57.5569 53.6604 57.391 53.1693 56.6737Z" fill="#00875F"/>
<path d="M52.28 15.8868C52.28 14.9368 53.0501 14.1667 54 14.1667C54.95 14.1667 55.72 14.9368 55.72 15.8867V89.4167H52.28V15.8868Z" fill="#00875F"/>
<path d="M53.9349 75.1005C53.4438 74.3832 53.6148 73.3862 54.3168 72.8736L87.9302 48.3307C88.6323 47.818 89.5995 47.9839 90.0907 48.7012C90.5818 49.4184 90.4108 50.4154 89.7087 50.9281L56.0954 75.471C55.3933 75.9836 54.4261 75.8177 53.9349 75.1005Z" fill="#00875F"/>
</svg>
