<svg width="640" height="96" viewBox="0 0 640 96" fill="none" xmlns="http://www.w3.org/2000/svg">
<path d="M85.5 53C85.5 76.4721 66.4721 95.5 43 95.5C19.5279 95.5 0.5 76.4721 0.5 53C0.5 29.5279 19.5279 10.5 43 10.5C66.4721 10.5 85.5 29.5279 85.5 53Z" fill="white" stroke="#00875F"/>
<path d="M6.3751 53.3119C5.88397 54.0291 6.05496 55.0261 6.75702 55.5387L41.1315 80.6374C41.8336 81.15 42.8008 80.9841 43.292 80.2669C43.7831 79.5496 43.6121 78.5526 42.9101 78.04L8.53556 52.9413C7.8335 52.4287 6.86623 52.5946 6.3751 53.3119Z" fill="#00875F"/>
<rect width="21.7644" height="3.14797" rx="1.57399" transform="matrix(0.807628 0.589693 0.56498 -0.825105 24.7012 31.0669)" fill="#00875F"/>
<rect width="34.8414" height="3.14797" rx="1.57399" transform="matrix(0.807628 0.589693 0.56498 -0.825105 14.7153 42.9373)" fill="#00875F"/>
<rect width="21.6099" height="3.14797" rx="1.57399" transform="matrix(0.807628 -0.589693 0.56498 0.825105 41.28 38.8684)" fill="#00875F"/>
<path d="M42.1693 59.6737C41.6782 58.9564 41.8492 57.9594 42.5512 57.4468L67.8642 38.9645C68.5662 38.4519 69.5335 38.6178 70.0246 39.335C70.5158 40.0523 70.3448 41.0493 69.6427 41.5619L44.3298 60.0442C43.6277 60.5569 42.6604 60.391 42.1693 59.6737Z" fill="#00875F"/>
<path d="M41.28 18.8868C41.28 17.9368 42.0501 17.1667 43 17.1667C43.95 17.1667 44.72 17.9368 44.72 18.8867V92.4167H41.28V18.8868Z" fill="#00875F"/>
<path d="M42.9349 78.1005C42.4438 77.3832 42.6148 76.3862 43.3168 75.8736L76.9302 51.3307C77.6323 50.818 78.5995 50.9839 79.0907 51.7012C79.5818 52.4184 79.4108 53.4154 78.7087 53.9281L45.0954 78.471C44.3933 78.9836 43.4261 78.8177 42.9349 78.1005Z" fill="#00875F"/>
<path d="M110.051 23.054L120.299 49.472C120.719 50.536 121.195 51.25 121.727 51.614C122.259 51.95 122.749 52.132 123.197 52.16V53C122.637 52.944 121.951 52.916 121.139 52.916C120.327 52.888 119.515 52.874 118.703 52.874C117.611 52.874 116.589 52.888 115.637 52.916C114.685 52.916 113.915 52.944 113.327 53V52.16C114.755 52.104 115.665 51.866 116.057 51.446C116.449 50.998 116.365 50.06 115.805 48.632L107.993 27.758L108.665 27.212L101.357 46.196C100.909 47.316 100.643 48.268 100.559 49.052C100.475 49.808 100.545 50.41 100.769 50.858C101.021 51.306 101.427 51.628 101.987 51.824C102.575 52.02 103.303 52.132 104.171 52.16V53C103.387 52.944 102.561 52.916 101.693 52.916C100.853 52.888 100.069 52.874 99.3414 52.874C98.6414 52.874 98.0394 52.888 97.5354 52.916C97.0594 52.916 96.6114 52.944 96.1914 53V52.16C96.7514 52.02 97.3254 51.698 97.9134 51.194C98.5014 50.662 99.0334 49.766 99.5094 48.506L109.379 23.054C109.491 23.054 109.603 23.054 109.715 23.054C109.827 23.054 109.939 23.054 110.051 23.054ZM115.175 40.904V41.744H102.659L103.079 40.904H115.175ZM138.27 30.782C139.334 30.782 140.216 30.922 140.916 31.202C141.644 31.482 142.246 31.874 142.722 32.378C143.254 32.938 143.632 33.638 143.856 34.478C144.08 35.318 144.192 36.452 144.192 37.88V49.094C144.192 50.27 144.43 51.068 144.906 51.488C145.41 51.908 146.236 52.118 147.384 52.118V53C146.908 52.972 146.18 52.944 145.2 52.916C144.22 52.86 143.268 52.832 142.344 52.832C141.42 52.832 140.51 52.86 139.614 52.916C138.746 52.944 138.088 52.972 137.64 53V52.118C138.648 52.118 139.362 51.908 139.782 51.488C140.202 51.068 140.412 50.27 140.412 49.094V36.956C140.412 36.088 140.342 35.29 140.202 34.562C140.062 33.834 139.74 33.246 139.236 32.798C138.76 32.35 138.018 32.126 137.01 32.126C135.834 32.126 134.798 32.462 133.902 33.134C133.034 33.806 132.348 34.73 131.844 35.906C131.368 37.054 131.13 38.342 131.13 39.77V49.094C131.13 50.27 131.34 51.068 131.76 51.488C132.18 51.908 132.894 52.118 133.902 52.118V53C133.454 52.972 132.782 52.944 131.886 52.916C131.018 52.86 130.122 52.832 129.198 52.832C128.274 52.832 127.322 52.86 126.342 52.916C125.362 52.944 124.634 52.972 124.158 53V52.118C125.306 52.118 126.118 51.908 126.594 51.488C127.098 51.068 127.35 50.27 127.35 49.094V35.948C127.35 34.688 127.126 33.764 126.678 33.176C126.23 32.56 125.39 32.252 124.158 32.252V31.37C125.054 31.454 125.922 31.496 126.762 31.496C127.574 31.496 128.344 31.454 129.072 31.37C129.828 31.258 130.514 31.104 131.13 30.908V35.864C131.858 33.96 132.866 32.644 134.154 31.916C135.47 31.16 136.842 30.782 138.27 30.782ZM163.331 30.782C164.395 30.782 165.277 30.922 165.977 31.202C166.705 31.482 167.307 31.874 167.783 32.378C168.315 32.938 168.693 33.638 168.917 34.478C169.141 35.318 169.253 36.452 169.253 37.88V49.094C169.253 50.27 169.491 51.068 169.967 51.488C170.471 51.908 171.297 52.118 172.445 52.118V53C171.969 52.972 171.241 52.944 170.261 52.916C169.281 52.86 168.329 52.832 167.405 52.832C166.481 52.832 165.571 52.86 164.675 52.916C163.807 52.944 163.149 52.972 162.701 53V52.118C163.709 52.118 164.423 51.908 164.843 51.488C165.263 51.068 165.473 50.27 165.473 49.094V36.956C165.473 36.088 165.403 35.29 165.263 34.562C165.123 33.834 164.801 33.246 164.297 32.798C163.821 32.35 163.079 32.126 162.071 32.126C160.895 32.126 159.859 32.462 158.963 33.134C158.095 33.806 157.409 34.73 156.905 35.906C156.429 37.054 156.191 38.342 156.191 39.77V49.094C156.191 50.27 156.401 51.068 156.821 51.488C157.241 51.908 157.955 52.118 158.963 52.118V53C158.515 52.972 157.843 52.944 156.947 52.916C156.079 52.86 155.183 52.832 154.259 52.832C153.335 52.832 152.383 52.86 151.403 52.916C150.423 52.944 149.695 52.972 149.219 53V52.118C150.367 52.118 151.179 51.908 151.655 51.488C152.159 51.068 152.411 50.27 152.411 49.094V35.948C152.411 34.688 152.187 33.764 151.739 33.176C151.291 32.56 150.451 32.252 149.219 32.252V31.37C150.115 31.454 150.983 31.496 151.823 31.496C152.635 31.496 153.405 31.454 154.133 31.37C154.889 31.258 155.575 31.104 156.191 30.908V35.864C156.919 33.96 157.927 32.644 159.215 31.916C160.531 31.16 161.903 30.782 163.331 30.782ZM184.57 30.782C186.362 30.782 187.972 31.174 189.4 31.958C190.828 32.742 191.962 33.974 192.802 35.654C193.67 37.334 194.104 39.518 194.104 42.206C194.104 44.894 193.67 47.078 192.802 48.758C191.962 50.41 190.828 51.628 189.4 52.412C187.972 53.196 186.362 53.588 184.57 53.588C182.806 53.588 181.196 53.196 179.74 52.412C178.312 51.628 177.164 50.41 176.296 48.758C175.456 47.078 175.036 44.894 175.036 42.206C175.036 39.518 175.456 37.334 176.296 35.654C177.164 33.974 178.312 32.742 179.74 31.958C181.196 31.174 182.806 30.782 184.57 30.782ZM184.57 31.622C182.974 31.622 181.658 32.448 180.622 34.1C179.614 35.752 179.11 38.454 179.11 42.206C179.11 45.958 179.614 48.66 180.622 50.312C181.658 51.936 182.974 52.748 184.57 52.748C186.166 52.748 187.468 51.936 188.476 50.312C189.512 48.66 190.03 45.958 190.03 42.206C190.03 38.454 189.512 35.752 188.476 34.1C187.468 32.448 186.166 31.622 184.57 31.622ZM219.131 23.264C219.019 24.328 218.935 25.364 218.879 26.372C218.851 27.352 218.837 28.108 218.837 28.64C218.837 29.312 218.851 29.942 218.879 30.53C218.907 31.118 218.935 31.636 218.963 32.084H217.997C217.801 30.124 217.535 28.584 217.199 27.464C216.863 26.316 216.275 25.49 215.435 24.986C214.595 24.482 213.293 24.23 211.529 24.23H209.261V48.128C209.261 49.248 209.359 50.088 209.555 50.648C209.779 51.208 210.199 51.586 210.815 51.782C211.431 51.978 212.327 52.104 213.503 52.16V53C212.775 52.944 211.851 52.916 210.731 52.916C209.611 52.888 208.477 52.874 207.329 52.874C206.069 52.874 204.879 52.888 203.759 52.916C202.667 52.916 201.785 52.944 201.113 53V52.16C202.289 52.104 203.185 51.978 203.801 51.782C204.417 51.586 204.823 51.208 205.019 50.648C205.243 50.088 205.355 49.248 205.355 48.128V24.23H203.087C201.351 24.23 200.049 24.482 199.181 24.986C198.341 25.49 197.753 26.316 197.417 27.464C197.081 28.584 196.815 30.124 196.619 32.084H195.653C195.709 31.636 195.737 31.118 195.737 30.53C195.765 29.942 195.779 29.312 195.779 28.64C195.779 28.108 195.751 27.352 195.695 26.372C195.667 25.364 195.597 24.328 195.485 23.264C196.661 23.292 197.935 23.32 199.307 23.348C200.707 23.376 202.107 23.39 203.507 23.39C204.907 23.39 206.181 23.39 207.329 23.39C208.477 23.39 209.737 23.39 211.109 23.39C212.509 23.39 213.909 23.376 215.309 23.348C216.709 23.32 217.983 23.292 219.131 23.264ZM243.075 23.264C242.963 24.244 242.879 25.196 242.823 26.12C242.795 27.044 242.781 27.744 242.781 28.22C242.781 28.724 242.795 29.214 242.823 29.69C242.851 30.138 242.879 30.516 242.907 30.824H241.941C241.773 29.172 241.535 27.87 241.227 26.918C240.919 25.938 240.387 25.252 239.631 24.86C238.903 24.44 237.797 24.23 236.313 24.23H232.827C231.875 24.23 231.147 24.314 230.643 24.482C230.167 24.622 229.845 24.944 229.677 25.448C229.509 25.924 229.425 26.68 229.425 27.716V48.548C229.425 49.556 229.509 50.312 229.677 50.816C229.845 51.32 230.167 51.656 230.643 51.824C231.147 51.964 231.875 52.034 232.827 52.034H235.893C237.657 52.034 238.987 51.796 239.883 51.32C240.807 50.844 241.465 50.074 241.857 49.01C242.277 47.918 242.585 46.448 242.781 44.6H243.747C243.663 45.356 243.621 46.364 243.621 47.624C243.621 48.156 243.635 48.926 243.663 49.934C243.719 50.914 243.803 51.936 243.915 53C242.487 52.944 240.877 52.916 239.085 52.916C237.293 52.888 235.697 52.874 234.297 52.874C233.681 52.874 232.883 52.874 231.903 52.874C230.951 52.874 229.915 52.888 228.795 52.916C227.675 52.916 226.541 52.93 225.393 52.958C224.245 52.958 223.153 52.972 222.117 53V52.16C223.069 52.104 223.783 51.992 224.259 51.824C224.763 51.656 225.099 51.32 225.267 50.816C225.435 50.312 225.519 49.556 225.519 48.548V27.716C225.519 26.68 225.435 25.924 225.267 25.448C225.099 24.944 224.763 24.608 224.259 24.44C223.783 24.244 223.069 24.132 222.117 24.104V23.264C223.153 23.292 224.245 23.32 225.393 23.348C226.541 23.348 227.675 23.362 228.795 23.39C229.915 23.39 230.951 23.39 231.903 23.39C232.883 23.39 233.681 23.39 234.297 23.39C235.585 23.39 237.041 23.39 238.665 23.39C240.317 23.362 241.787 23.32 243.075 23.264ZM235.851 37.628C235.851 37.628 235.851 37.768 235.851 38.048C235.851 38.328 235.851 38.468 235.851 38.468H228.165C228.165 38.468 228.165 38.328 228.165 38.048C228.165 37.768 228.165 37.628 228.165 37.628H235.851ZM237.069 32.084C236.957 33.68 236.901 34.898 236.901 35.738C236.929 36.578 236.943 37.348 236.943 38.048C236.943 38.748 236.957 39.518 236.985 40.358C237.013 41.198 237.083 42.416 237.195 44.012H236.229C236.117 43.116 235.977 42.248 235.809 41.408C235.669 40.54 235.333 39.84 234.801 39.308C234.297 38.748 233.429 38.468 232.197 38.468V37.628C233.121 37.628 233.821 37.446 234.297 37.082C234.801 36.69 235.165 36.2 235.389 35.612C235.613 35.024 235.767 34.422 235.851 33.806C235.935 33.162 236.019 32.588 236.103 32.084H237.069ZM247.71 23.264C248.298 23.292 249.068 23.32 250.02 23.348C250.972 23.376 251.91 23.39 252.834 23.39C254.15 23.39 255.41 23.376 256.614 23.348C257.818 23.32 258.672 23.306 259.176 23.306C262.564 23.306 265.098 24.076 266.778 25.616C268.458 27.156 269.298 29.144 269.298 31.58C269.298 32.588 269.13 33.652 268.794 34.772C268.458 35.864 267.87 36.886 267.03 37.838C266.218 38.762 265.098 39.518 263.67 40.106C262.242 40.694 260.436 40.988 258.252 40.988H254.22V40.148H257.832C259.82 40.148 261.332 39.77 262.368 39.014C263.432 38.258 264.146 37.264 264.51 36.032C264.902 34.8 265.098 33.47 265.098 32.042C265.098 29.382 264.566 27.394 263.502 26.078C262.466 24.762 260.674 24.104 258.126 24.104C256.838 24.104 255.998 24.342 255.606 24.818C255.214 25.294 255.018 26.26 255.018 27.716V48.548C255.018 49.556 255.116 50.312 255.312 50.816C255.536 51.32 255.956 51.656 256.572 51.824C257.188 51.992 258.084 52.104 259.26 52.16V53C258.532 52.944 257.608 52.916 256.488 52.916C255.368 52.888 254.234 52.874 253.086 52.874C251.994 52.874 250.972 52.888 250.02 52.916C249.068 52.916 248.298 52.944 247.71 53V52.16C248.662 52.104 249.376 51.992 249.852 51.824C250.356 51.656 250.692 51.32 250.86 50.816C251.028 50.312 251.112 49.556 251.112 48.548V27.716C251.112 26.68 251.028 25.924 250.86 25.448C250.692 24.944 250.356 24.608 249.852 24.44C249.376 24.244 248.662 24.132 247.71 24.104V23.264Z" fill="#00875F"/>
<path d="M104.398 72.1287L110.742 88.4827C111.002 89.1414 111.297 89.5834 111.626 89.8087C111.955 90.0167 112.259 90.1294 112.536 90.1467V90.6667C112.189 90.6321 111.765 90.6147 111.262 90.6147C110.759 90.5974 110.257 90.5887 109.754 90.5887C109.078 90.5887 108.445 90.5974 107.856 90.6147C107.267 90.6147 106.79 90.6321 106.426 90.6667V90.1467C107.31 90.1121 107.873 89.9647 108.116 89.7047C108.359 89.4274 108.307 88.8467 107.96 87.9627L103.124 75.0407L103.54 74.7027L99.016 86.4547C98.7387 87.1481 98.574 87.7374 98.522 88.2227C98.47 88.6907 98.5133 89.0634 98.652 89.3407C98.808 89.6181 99.0593 89.8174 99.406 89.9387C99.77 90.0601 100.221 90.1294 100.758 90.1467V90.6667C100.273 90.6321 99.7613 90.6147 99.224 90.6147C98.704 90.5974 98.2187 90.5887 97.768 90.5887C97.3347 90.5887 96.962 90.5974 96.65 90.6147C96.3553 90.6147 96.078 90.6321 95.818 90.6667V90.1467C96.1647 90.0601 96.52 89.8607 96.884 89.5487C97.248 89.2194 97.5773 88.6647 97.872 87.8847L103.982 72.1287C104.051 72.1287 104.121 72.1287 104.19 72.1287C104.259 72.1287 104.329 72.1287 104.398 72.1287ZM107.57 83.1787V83.6987H99.822L100.082 83.1787H107.57ZM121.867 76.9127C122.526 76.9127 123.072 76.9994 123.505 77.1727C123.956 77.3461 124.328 77.5887 124.623 77.9007C124.952 78.2474 125.186 78.6807 125.325 79.2007C125.464 79.7207 125.533 80.4227 125.533 81.3067V88.2487C125.533 88.9767 125.68 89.4707 125.975 89.7307C126.287 89.9907 126.798 90.1207 127.509 90.1207V90.6667C127.214 90.6494 126.764 90.6321 126.157 90.6147C125.55 90.5801 124.961 90.5627 124.389 90.5627C123.817 90.5627 123.254 90.5801 122.699 90.6147C122.162 90.6321 121.754 90.6494 121.477 90.6667V90.1207C122.101 90.1207 122.543 89.9907 122.803 89.7307C123.063 89.4707 123.193 88.9767 123.193 88.2487V80.7347C123.193 80.1974 123.15 79.7034 123.063 79.2527C122.976 78.8021 122.777 78.4381 122.465 78.1607C122.17 77.8834 121.711 77.7447 121.087 77.7447C120.359 77.7447 119.718 77.9527 119.163 78.3687C118.626 78.7847 118.201 79.3567 117.889 80.0847C117.594 80.7954 117.447 81.5927 117.447 82.4767V88.2487C117.447 88.9767 117.577 89.4707 117.837 89.7307C118.097 89.9907 118.539 90.1207 119.163 90.1207V90.6667C118.886 90.6494 118.47 90.6321 117.915 90.6147C117.378 90.5801 116.823 90.5627 116.251 90.5627C115.679 90.5627 115.09 90.5801 114.483 90.6147C113.876 90.6321 113.426 90.6494 113.131 90.6667V90.1207C113.842 90.1207 114.344 89.9907 114.639 89.7307C114.951 89.4707 115.107 88.9767 115.107 88.2487V80.1107C115.107 79.3307 114.968 78.7587 114.691 78.3947C114.414 78.0134 113.894 77.8227 113.131 77.8227V77.2767C113.686 77.3287 114.223 77.3547 114.743 77.3547C115.246 77.3547 115.722 77.3287 116.173 77.2767C116.641 77.2074 117.066 77.1121 117.447 76.9907V80.0587C117.898 78.8801 118.522 78.0654 119.319 77.6147C120.134 77.1467 120.983 76.9127 121.867 76.9127ZM137.381 76.9127C138.039 76.9127 138.585 76.9994 139.019 77.1727C139.469 77.3461 139.842 77.5887 140.137 77.9007C140.466 78.2474 140.7 78.6807 140.839 79.2007C140.977 79.7207 141.047 80.4227 141.047 81.3067V88.2487C141.047 88.9767 141.194 89.4707 141.489 89.7307C141.801 89.9907 142.312 90.1207 143.023 90.1207V90.6667C142.728 90.6494 142.277 90.6321 141.671 90.6147C141.064 90.5801 140.475 90.5627 139.903 90.5627C139.331 90.5627 138.767 90.5801 138.213 90.6147C137.675 90.6321 137.268 90.6494 136.991 90.6667V90.1207C137.615 90.1207 138.057 89.9907 138.317 89.7307C138.577 89.4707 138.707 88.9767 138.707 88.2487V80.7347C138.707 80.1974 138.663 79.7034 138.577 79.2527C138.49 78.8021 138.291 78.4381 137.979 78.1607C137.684 77.8834 137.225 77.7447 136.601 77.7447C135.873 77.7447 135.231 77.9527 134.677 78.3687C134.139 78.7847 133.715 79.3567 133.403 80.0847C133.108 80.7954 132.961 81.5927 132.961 82.4767V88.2487C132.961 88.9767 133.091 89.4707 133.351 89.7307C133.611 89.9907 134.053 90.1207 134.677 90.1207V90.6667C134.399 90.6494 133.983 90.6321 133.429 90.6147C132.891 90.5801 132.337 90.5627 131.765 90.5627C131.193 90.5627 130.603 90.5801 129.997 90.6147C129.39 90.6321 128.939 90.6494 128.645 90.6667V90.1207C129.355 90.1207 129.858 89.9907 130.153 89.7307C130.465 89.4707 130.621 88.9767 130.621 88.2487V80.1107C130.621 79.3307 130.482 78.7587 130.205 78.3947C129.927 78.0134 129.407 77.8227 128.645 77.8227V77.2767C129.199 77.3287 129.737 77.3547 130.257 77.3547C130.759 77.3547 131.236 77.3287 131.687 77.2767C132.155 77.2074 132.579 77.1121 132.961 76.9907V80.0587C133.411 78.8801 134.035 78.0654 134.833 77.6147C135.647 77.1467 136.497 76.9127 137.381 76.9127ZM150.528 76.9127C151.638 76.9127 152.634 77.1554 153.518 77.6407C154.402 78.1261 155.104 78.8887 155.624 79.9287C156.162 80.9687 156.43 82.3207 156.43 83.9847C156.43 85.6487 156.162 87.0007 155.624 88.0407C155.104 89.0634 154.402 89.8174 153.518 90.3027C152.634 90.7881 151.638 91.0307 150.528 91.0307C149.436 91.0307 148.44 90.7881 147.538 90.3027C146.654 89.8174 145.944 89.0634 145.406 88.0407C144.886 87.0007 144.626 85.6487 144.626 83.9847C144.626 82.3207 144.886 80.9687 145.406 79.9287C145.944 78.8887 146.654 78.1261 147.538 77.6407C148.44 77.1554 149.436 76.9127 150.528 76.9127ZM150.528 77.4327C149.54 77.4327 148.726 77.9441 148.084 78.9667C147.46 79.9894 147.148 81.6621 147.148 83.9847C147.148 86.3074 147.46 87.9801 148.084 89.0027C148.726 90.0081 149.54 90.5107 150.528 90.5107C151.516 90.5107 152.322 90.0081 152.946 89.0027C153.588 87.9801 153.908 86.3074 153.908 83.9847C153.908 81.6621 153.588 79.9894 152.946 78.9667C152.322 77.9441 151.516 77.4327 150.528 77.4327ZM162.588 72.9607V77.3027H166.436V77.8227H162.588V87.8847C162.588 88.6994 162.736 89.2714 163.03 89.6007C163.325 89.9301 163.732 90.0947 164.252 90.0947C164.772 90.0947 165.223 89.8867 165.604 89.4707C165.986 89.0374 166.315 88.3181 166.592 87.3127L167.112 87.4427C166.939 88.4481 166.592 89.2974 166.072 89.9907C165.57 90.6841 164.79 91.0307 163.732 91.0307C163.143 91.0307 162.658 90.9527 162.276 90.7967C161.895 90.6581 161.557 90.4501 161.262 90.1727C160.881 89.7741 160.612 89.2974 160.456 88.7427C160.318 88.1881 160.248 87.4514 160.248 86.5327V77.8227H157.752V77.3027H160.248V73.3247C160.682 73.3074 161.098 73.2727 161.496 73.2207C161.895 73.1687 162.259 73.0821 162.588 72.9607ZM171.286 90.8487C170.575 90.8487 169.96 90.7187 169.44 90.4587C168.92 90.1814 168.521 89.8001 168.244 89.3147C167.984 88.8294 167.854 88.2661 167.854 87.6247C167.854 86.8621 168.027 86.2381 168.374 85.7527C168.738 85.2674 169.197 84.8774 169.752 84.5827C170.307 84.2881 170.887 84.0454 171.494 83.8547C172.118 83.6467 172.707 83.4561 173.262 83.2827C173.817 83.0921 174.267 82.8754 174.614 82.6327C174.978 82.3901 175.16 82.0694 175.16 81.6707V80.0587C175.16 79.3307 175.047 78.7761 174.822 78.3947C174.614 78.0134 174.328 77.7621 173.964 77.6407C173.6 77.5021 173.193 77.4327 172.742 77.4327C172.309 77.4327 171.841 77.4934 171.338 77.6147C170.853 77.7361 170.463 77.9874 170.168 78.3687C170.497 78.4381 170.783 78.6114 171.026 78.8887C171.269 79.1661 171.39 79.5214 171.39 79.9547C171.39 80.3881 171.251 80.7347 170.974 80.9947C170.697 81.2374 170.341 81.3587 169.908 81.3587C169.405 81.3587 169.033 81.2027 168.79 80.8907C168.565 80.5614 168.452 80.1974 168.452 79.7987C168.452 79.3481 168.565 78.9841 168.79 78.7067C169.015 78.4294 169.301 78.1694 169.648 77.9267C170.047 77.6494 170.558 77.4154 171.182 77.2247C171.823 77.0167 172.543 76.9127 173.34 76.9127C174.051 76.9127 174.657 76.9994 175.16 77.1727C175.663 77.3287 176.079 77.5627 176.408 77.8747C176.859 78.2907 177.153 78.8021 177.292 79.4087C177.431 79.9981 177.5 80.7087 177.5 81.5407V88.7687C177.5 89.2021 177.561 89.5141 177.682 89.7047C177.821 89.8954 178.029 89.9907 178.306 89.9907C178.497 89.9907 178.679 89.9474 178.852 89.8607C179.025 89.7741 179.233 89.6354 179.476 89.4447L179.762 89.8867C179.398 90.1641 179.051 90.3981 178.722 90.5887C178.393 90.7621 177.951 90.8487 177.396 90.8487C176.893 90.8487 176.477 90.7621 176.148 90.5887C175.819 90.4154 175.567 90.1641 175.394 89.8347C175.238 89.4881 175.16 89.0547 175.16 88.5347C174.692 89.3147 174.129 89.8954 173.47 90.2767C172.829 90.6581 172.101 90.8487 171.286 90.8487ZM172.222 89.8087C172.794 89.8087 173.323 89.6441 173.808 89.3147C174.311 88.9854 174.761 88.4914 175.16 87.8327V82.7367C174.952 83.0314 174.649 83.2827 174.25 83.4907C173.851 83.6814 173.418 83.8807 172.95 84.0887C172.482 84.2794 172.031 84.5134 171.598 84.7907C171.182 85.0507 170.835 85.3974 170.558 85.8307C170.281 86.2641 170.142 86.8274 170.142 87.5207C170.142 88.2141 170.324 88.7687 170.688 89.1847C171.069 89.6007 171.581 89.8087 172.222 89.8087ZM184.729 72.9607V77.3027H188.577V77.8227H184.729V87.8847C184.729 88.6994 184.876 89.2714 185.171 89.6007C185.466 89.9301 185.873 90.0947 186.393 90.0947C186.913 90.0947 187.364 89.8867 187.745 89.4707C188.126 89.0374 188.456 88.3181 188.733 87.3127L189.253 87.4427C189.08 88.4481 188.733 89.2974 188.213 89.9907C187.71 90.6841 186.93 91.0307 185.873 91.0307C185.284 91.0307 184.798 90.9527 184.417 90.7967C184.036 90.6581 183.698 90.4501 183.403 90.1727C183.022 89.7741 182.753 89.2974 182.597 88.7427C182.458 88.1881 182.389 87.4514 182.389 86.5327V77.8227H179.893V77.3027H182.389V73.3247C182.822 73.3074 183.238 73.2727 183.637 73.2207C184.036 73.1687 184.4 73.0821 184.729 72.9607ZM192.698 70.7767C193.149 70.7767 193.539 70.9414 193.868 71.2707C194.198 71.6001 194.362 71.9901 194.362 72.4407C194.362 72.8914 194.198 73.2814 193.868 73.6107C193.539 73.9401 193.149 74.1047 192.698 74.1047C192.248 74.1047 191.858 73.9401 191.528 73.6107C191.199 73.2814 191.034 72.8914 191.034 72.4407C191.034 71.9901 191.199 71.6001 191.528 71.2707C191.858 70.9414 192.248 70.7767 192.698 70.7767ZM194.05 76.9907V88.2487C194.05 88.9767 194.198 89.4707 194.492 89.7307C194.804 89.9907 195.316 90.1207 196.026 90.1207V90.6667C195.732 90.6494 195.281 90.6321 194.674 90.6147C194.085 90.5801 193.487 90.5627 192.88 90.5627C192.291 90.5627 191.693 90.5801 191.086 90.6147C190.48 90.6321 190.029 90.6494 189.734 90.6667V90.1207C190.445 90.1207 190.948 89.9907 191.242 89.7307C191.554 89.4707 191.71 88.9767 191.71 88.2487V80.1107C191.71 79.3307 191.572 78.7587 191.294 78.3947C191.017 78.0134 190.497 77.8227 189.734 77.8227V77.2767C190.289 77.3287 190.826 77.3547 191.346 77.3547C191.849 77.3547 192.326 77.3287 192.776 77.2767C193.244 77.2074 193.669 77.1121 194.05 76.9907ZM203.722 76.9127C204.831 76.9127 205.828 77.1554 206.712 77.6407C207.596 78.1261 208.298 78.8887 208.818 79.9287C209.355 80.9687 209.624 82.3207 209.624 83.9847C209.624 85.6487 209.355 87.0007 208.818 88.0407C208.298 89.0634 207.596 89.8174 206.712 90.3027C205.828 90.7881 204.831 91.0307 203.722 91.0307C202.63 91.0307 201.633 90.7881 200.732 90.3027C199.848 89.8174 199.137 89.0634 198.6 88.0407C198.08 87.0007 197.82 85.6487 197.82 83.9847C197.82 82.3207 198.08 80.9687 198.6 79.9287C199.137 78.8887 199.848 78.1261 200.732 77.6407C201.633 77.1554 202.63 76.9127 203.722 76.9127ZM203.722 77.4327C202.734 77.4327 201.919 77.9441 201.278 78.9667C200.654 79.9894 200.342 81.6621 200.342 83.9847C200.342 86.3074 200.654 87.9801 201.278 89.0027C201.919 90.0081 202.734 90.5107 203.722 90.5107C204.71 90.5107 205.516 90.0081 206.14 89.0027C206.781 87.9801 207.102 86.3074 207.102 83.9847C207.102 81.6621 206.781 79.9894 206.14 78.9667C205.516 77.9441 204.71 77.4327 203.722 77.4327ZM220.332 76.9127C220.99 76.9127 221.536 76.9994 221.97 77.1727C222.42 77.3461 222.793 77.5887 223.088 77.9007C223.417 78.2474 223.651 78.6807 223.79 79.2007C223.928 79.7207 223.998 80.4227 223.998 81.3067V88.2487C223.998 88.9767 224.145 89.4707 224.44 89.7307C224.752 89.9907 225.263 90.1207 225.974 90.1207V90.6667C225.679 90.6494 225.228 90.6321 224.622 90.6147C224.015 90.5801 223.426 90.5627 222.854 90.5627C222.282 90.5627 221.718 90.5801 221.164 90.6147C220.626 90.6321 220.219 90.6494 219.942 90.6667V90.1207C220.566 90.1207 221.008 89.9907 221.268 89.7307C221.528 89.4707 221.658 88.9767 221.658 88.2487V80.7347C221.658 80.1974 221.614 79.7034 221.528 79.2527C221.441 78.8021 221.242 78.4381 220.93 78.1607C220.635 77.8834 220.176 77.7447 219.552 77.7447C218.824 77.7447 218.182 77.9527 217.628 78.3687C217.09 78.7847 216.666 79.3567 216.354 80.0847C216.059 80.7954 215.912 81.5927 215.912 82.4767V88.2487C215.912 88.9767 216.042 89.4707 216.302 89.7307C216.562 89.9907 217.004 90.1207 217.628 90.1207V90.6667C217.35 90.6494 216.934 90.6321 216.38 90.6147C215.842 90.5801 215.288 90.5627 214.716 90.5627C214.144 90.5627 213.554 90.5801 212.948 90.6147C212.341 90.6321 211.89 90.6494 211.596 90.6667V90.1207C212.306 90.1207 212.809 89.9907 213.104 89.7307C213.416 89.4707 213.572 88.9767 213.572 88.2487V80.1107C213.572 79.3307 213.433 78.7587 213.156 78.3947C212.878 78.0134 212.358 77.8227 211.596 77.8227V77.2767C212.15 77.3287 212.688 77.3547 213.208 77.3547C213.71 77.3547 214.187 77.3287 214.638 77.2767C215.106 77.2074 215.53 77.1121 215.912 76.9907V80.0587C216.362 78.8801 216.986 78.0654 217.784 77.6147C218.598 77.1467 219.448 76.9127 220.332 76.9127ZM239.954 76.9127C241.063 76.9127 242.06 77.1554 242.944 77.6407C243.828 78.1261 244.53 78.8887 245.05 79.9287C245.587 80.9687 245.856 82.3207 245.856 83.9847C245.856 85.6487 245.587 87.0007 245.05 88.0407C244.53 89.0634 243.828 89.8174 242.944 90.3027C242.06 90.7881 241.063 91.0307 239.954 91.0307C238.862 91.0307 237.865 90.7881 236.964 90.3027C236.08 89.8174 235.369 89.0634 234.832 88.0407C234.312 87.0007 234.052 85.6487 234.052 83.9847C234.052 82.3207 234.312 80.9687 234.832 79.9287C235.369 78.8887 236.08 78.1261 236.964 77.6407C237.865 77.1554 238.862 76.9127 239.954 76.9127ZM239.954 77.4327C238.966 77.4327 238.151 77.9441 237.51 78.9667C236.886 79.9894 236.574 81.6621 236.574 83.9847C236.574 86.3074 236.886 87.9801 237.51 89.0027C238.151 90.0081 238.966 90.5107 239.954 90.5107C240.942 90.5107 241.748 90.0081 242.372 89.0027C243.013 87.9801 243.334 86.3074 243.334 83.9847C243.334 81.6621 243.013 79.9894 242.372 78.9667C241.748 77.9441 240.942 77.4327 239.954 77.4327ZM254.25 70.3347C254.736 70.3347 255.16 70.4041 255.524 70.5427C255.906 70.6641 256.235 70.8287 256.512 71.0367C256.772 71.2447 256.972 71.4874 257.11 71.7647C257.249 72.0421 257.318 72.3367 257.318 72.6487C257.318 73.0474 257.188 73.3767 256.928 73.6367C256.668 73.8967 256.339 74.0267 255.94 74.0267C255.559 74.0267 255.221 73.9054 254.926 73.6627C254.649 73.4027 254.51 73.0561 254.51 72.6227C254.51 72.2587 254.606 71.9641 254.796 71.7387C255.004 71.5134 255.273 71.3661 255.602 71.2967C255.55 71.1407 255.412 71.0107 255.186 70.9067C254.978 70.7854 254.692 70.7247 254.328 70.7247C253.93 70.7247 253.583 70.8114 253.288 70.9847C253.011 71.1581 252.794 71.3921 252.638 71.6867C252.43 72.0507 252.3 72.5967 252.248 73.3247C252.196 74.0354 252.17 75.1361 252.17 76.6267V77.3027H254.952V77.8227H252.17V87.9887C252.17 88.8381 252.413 89.4101 252.898 89.7047C253.401 89.9821 254.077 90.1207 254.926 90.1207V90.6667C254.528 90.6494 253.964 90.6321 253.236 90.6147C252.508 90.5801 251.737 90.5627 250.922 90.5627C250.333 90.5627 249.744 90.5801 249.154 90.6147C248.582 90.6321 248.149 90.6494 247.854 90.6667V90.1207C248.565 90.1207 249.068 89.9907 249.362 89.7307C249.674 89.4707 249.83 88.9767 249.83 88.2487V77.8227H247.75V77.3027H249.83C249.83 76.2801 249.874 75.4221 249.96 74.7287C250.047 74.0354 250.186 73.4461 250.376 72.9607C250.567 72.4581 250.827 72.0161 251.156 71.6347C251.503 71.2361 251.945 70.9241 252.482 70.6987C253.02 70.4561 253.609 70.3347 254.25 70.3347ZM276.939 72.2587C276.87 72.9174 276.818 73.5587 276.783 74.1827C276.766 74.7894 276.757 75.2574 276.757 75.5867C276.757 76.0027 276.766 76.3927 276.783 76.7567C276.8 77.1207 276.818 77.4414 276.835 77.7187H276.237C276.116 76.5054 275.951 75.5521 275.743 74.8587C275.535 74.1481 275.171 73.6367 274.651 73.3247C274.131 73.0127 273.325 72.8567 272.233 72.8567H270.829V87.6507C270.829 88.3441 270.89 88.8641 271.011 89.2107C271.15 89.5574 271.41 89.7914 271.791 89.9127C272.172 90.0341 272.727 90.1121 273.455 90.1467V90.6667C273.004 90.6321 272.432 90.6147 271.739 90.6147C271.046 90.5974 270.344 90.5887 269.633 90.5887C268.853 90.5887 268.116 90.5974 267.423 90.6147C266.747 90.6147 266.201 90.6321 265.785 90.6667V90.1467C266.513 90.1121 267.068 90.0341 267.449 89.9127C267.83 89.7914 268.082 89.5574 268.203 89.2107C268.342 88.8641 268.411 88.3441 268.411 87.6507V72.8567H267.007C265.932 72.8567 265.126 73.0127 264.589 73.3247C264.069 73.6367 263.705 74.1481 263.497 74.8587C263.289 75.5521 263.124 76.5054 263.003 77.7187H262.405C262.44 77.4414 262.457 77.1207 262.457 76.7567C262.474 76.3927 262.483 76.0027 262.483 75.5867C262.483 75.2574 262.466 74.7894 262.431 74.1827C262.414 73.5587 262.37 72.9174 262.301 72.2587C263.029 72.2761 263.818 72.2934 264.667 72.3107C265.534 72.3281 266.4 72.3367 267.267 72.3367C268.134 72.3367 268.922 72.3367 269.633 72.3367C270.344 72.3367 271.124 72.3367 271.973 72.3367C272.84 72.3367 273.706 72.3281 274.573 72.3107C275.44 72.2934 276.228 72.2761 276.939 72.2587ZM286.535 76.9127C287.003 76.9127 287.411 77.0081 287.757 77.1987C288.121 77.3894 288.399 77.6407 288.589 77.9527C288.797 78.2474 288.901 78.5854 288.901 78.9667C288.901 79.4001 288.763 79.7814 288.485 80.1107C288.225 80.4401 287.87 80.6047 287.419 80.6047C287.055 80.6047 286.735 80.4921 286.457 80.2667C286.18 80.0241 286.041 79.6861 286.041 79.2527C286.041 78.9234 286.128 78.6461 286.301 78.4207C286.492 78.1781 286.7 77.9874 286.925 77.8487C286.804 77.6754 286.622 77.5887 286.379 77.5887C285.842 77.5887 285.348 77.7534 284.897 78.0827C284.447 78.3947 284.065 78.8021 283.753 79.3047C283.441 79.8074 283.199 80.3447 283.025 80.9167C282.852 81.4714 282.765 81.9914 282.765 82.4767V87.9887C282.765 88.8381 283.008 89.4101 283.493 89.7047C283.996 89.9821 284.672 90.1207 285.521 90.1207V90.6667C285.123 90.6494 284.559 90.6321 283.831 90.6147C283.103 90.5801 282.332 90.5627 281.517 90.5627C280.928 90.5627 280.339 90.5801 279.749 90.6147C279.177 90.6321 278.744 90.6494 278.449 90.6667V90.1207C279.16 90.1207 279.663 89.9907 279.957 89.7307C280.269 89.4707 280.425 88.9767 280.425 88.2487V80.1107C280.425 79.3307 280.287 78.7587 280.009 78.3947C279.732 78.0134 279.212 77.8227 278.449 77.8227V77.2767C279.004 77.3287 279.541 77.3547 280.061 77.3547C280.564 77.3547 281.041 77.3287 281.491 77.2767C281.959 77.2074 282.384 77.1121 282.765 76.9907V80.2407C282.956 79.7381 283.225 79.2354 283.571 78.7327C283.935 78.2127 284.369 77.7794 284.871 77.4327C285.374 77.0861 285.929 76.9127 286.535 76.9127ZM293.719 90.8487C293.009 90.8487 292.393 90.7187 291.873 90.4587C291.353 90.1814 290.955 89.8001 290.677 89.3147C290.417 88.8294 290.287 88.2661 290.287 87.6247C290.287 86.8621 290.461 86.2381 290.807 85.7527C291.171 85.2674 291.631 84.8774 292.185 84.5827C292.74 84.2881 293.321 84.0454 293.927 83.8547C294.551 83.6467 295.141 83.4561 295.695 83.2827C296.25 83.0921 296.701 82.8754 297.047 82.6327C297.411 82.3901 297.593 82.0694 297.593 81.6707V80.0587C297.593 79.3307 297.481 78.7761 297.255 78.3947C297.047 78.0134 296.761 77.7621 296.397 77.6407C296.033 77.5021 295.626 77.4327 295.175 77.4327C294.742 77.4327 294.274 77.4934 293.771 77.6147C293.286 77.7361 292.896 77.9874 292.601 78.3687C292.931 78.4381 293.217 78.6114 293.459 78.8887C293.702 79.1661 293.823 79.5214 293.823 79.9547C293.823 80.3881 293.685 80.7347 293.407 80.9947C293.13 81.2374 292.775 81.3587 292.341 81.3587C291.839 81.3587 291.466 81.2027 291.223 80.8907C290.998 80.5614 290.885 80.1974 290.885 79.7987C290.885 79.3481 290.998 78.9841 291.223 78.7067C291.449 78.4294 291.735 78.1694 292.081 77.9267C292.48 77.6494 292.991 77.4154 293.615 77.2247C294.257 77.0167 294.976 76.9127 295.773 76.9127C296.484 76.9127 297.091 76.9994 297.593 77.1727C298.096 77.3287 298.512 77.5627 298.841 77.8747C299.292 78.2907 299.587 78.8021 299.725 79.4087C299.864 79.9981 299.933 80.7087 299.933 81.5407V88.7687C299.933 89.2021 299.994 89.5141 300.115 89.7047C300.254 89.8954 300.462 89.9907 300.739 89.9907C300.93 89.9907 301.112 89.9474 301.285 89.8607C301.459 89.7741 301.667 89.6354 301.909 89.4447L302.195 89.8867C301.831 90.1641 301.485 90.3981 301.155 90.5887C300.826 90.7621 300.384 90.8487 299.829 90.8487C299.327 90.8487 298.911 90.7621 298.581 90.5887C298.252 90.4154 298.001 90.1641 297.827 89.8347C297.671 89.4881 297.593 89.0547 297.593 88.5347C297.125 89.3147 296.562 89.8954 295.903 90.2767C295.262 90.6581 294.534 90.8487 293.719 90.8487ZM294.655 89.8087C295.227 89.8087 295.756 89.6441 296.241 89.3147C296.744 88.9854 297.195 88.4914 297.593 87.8327V82.7367C297.385 83.0314 297.082 83.2827 296.683 83.4907C296.285 83.6814 295.851 83.8807 295.383 84.0887C294.915 84.2794 294.465 84.5134 294.031 84.7907C293.615 85.0507 293.269 85.3974 292.991 85.8307C292.714 86.2641 292.575 86.8274 292.575 87.5207C292.575 88.2141 292.757 88.7687 293.121 89.1847C293.503 89.6007 294.014 89.8087 294.655 89.8087ZM311.713 76.9127C312.371 76.9127 312.917 76.9994 313.351 77.1727C313.801 77.3461 314.174 77.5887 314.469 77.9007C314.798 78.2474 315.032 78.6807 315.171 79.2007C315.309 79.7207 315.379 80.4227 315.379 81.3067V88.2487C315.379 88.9767 315.526 89.4707 315.821 89.7307C316.133 89.9907 316.644 90.1207 317.355 90.1207V90.6667C317.06 90.6494 316.609 90.6321 316.003 90.6147C315.396 90.5801 314.807 90.5627 314.235 90.5627C313.663 90.5627 313.099 90.5801 312.545 90.6147C312.007 90.6321 311.6 90.6494 311.323 90.6667V90.1207C311.947 90.1207 312.389 89.9907 312.649 89.7307C312.909 89.4707 313.039 88.9767 313.039 88.2487V80.7347C313.039 80.1974 312.995 79.7034 312.909 79.2527C312.822 78.8021 312.623 78.4381 312.311 78.1607C312.016 77.8834 311.557 77.7447 310.933 77.7447C310.205 77.7447 309.563 77.9527 309.009 78.3687C308.471 78.7847 308.047 79.3567 307.735 80.0847C307.44 80.7954 307.293 81.5927 307.293 82.4767V88.2487C307.293 88.9767 307.423 89.4707 307.683 89.7307C307.943 89.9907 308.385 90.1207 309.009 90.1207V90.6667C308.731 90.6494 308.315 90.6321 307.761 90.6147C307.223 90.5801 306.669 90.5627 306.097 90.5627C305.525 90.5627 304.935 90.5801 304.329 90.6147C303.722 90.6321 303.271 90.6494 302.977 90.6667V90.1207C303.687 90.1207 304.19 89.9907 304.485 89.7307C304.797 89.4707 304.953 88.9767 304.953 88.2487V80.1107C304.953 79.3307 304.814 78.7587 304.537 78.3947C304.259 78.0134 303.739 77.8227 302.977 77.8227V77.2767C303.531 77.3287 304.069 77.3547 304.589 77.3547C305.091 77.3547 305.568 77.3287 306.019 77.2767C306.487 77.2074 306.911 77.1121 307.293 76.9907V80.0587C307.743 78.8801 308.367 78.0654 309.165 77.6147C309.979 77.1467 310.829 76.9127 311.713 76.9127ZM323.144 76.9127C323.838 76.9127 324.427 77.0254 324.912 77.2507C325.398 77.4761 325.753 77.6841 325.978 77.8747C326.55 78.3427 326.897 78.0307 327.018 76.9387H327.616C327.582 77.4241 327.556 78.0047 327.538 78.6807C327.521 79.3394 327.512 80.2321 327.512 81.3587H326.914C326.81 80.7174 326.628 80.0934 326.368 79.4867C326.126 78.8801 325.762 78.3861 325.276 78.0047C324.791 77.6061 324.158 77.4067 323.378 77.4067C322.772 77.4067 322.26 77.5801 321.844 77.9267C321.446 78.2561 321.246 78.7501 321.246 79.4087C321.246 79.9287 321.402 80.3794 321.714 80.7607C322.026 81.1247 322.434 81.4714 322.936 81.8007C323.439 82.1127 323.985 82.4594 324.574 82.8407C325.233 83.2567 325.831 83.6814 326.368 84.1147C326.906 84.5481 327.33 85.0247 327.642 85.5447C327.972 86.0647 328.136 86.6801 328.136 87.3907C328.136 88.1881 327.928 88.8554 327.512 89.3927C327.096 89.9301 326.55 90.3374 325.874 90.6147C325.216 90.8921 324.488 91.0307 323.69 91.0307C323.309 91.0307 322.945 90.9961 322.598 90.9267C322.269 90.8747 321.948 90.7881 321.636 90.6667C321.463 90.5801 321.281 90.4761 321.09 90.3547C320.917 90.2334 320.744 90.1034 320.57 89.9647C320.397 89.8261 320.241 89.8347 320.102 89.9907C319.964 90.1294 319.86 90.4154 319.79 90.8487H319.192C319.227 90.2941 319.253 89.6181 319.27 88.8207C319.288 88.0234 319.296 86.9661 319.296 85.6487H319.894C320.016 86.6194 320.189 87.4687 320.414 88.1967C320.64 88.9247 320.995 89.4967 321.48 89.9127C321.966 90.3114 322.642 90.5107 323.508 90.5107C323.855 90.5107 324.202 90.4327 324.548 90.2767C324.912 90.1207 325.216 89.8607 325.458 89.4967C325.701 89.1327 325.822 88.6474 325.822 88.0407C325.822 87.2781 325.545 86.6541 324.99 86.1687C324.436 85.6834 323.734 85.1721 322.884 84.6347C322.26 84.2361 321.671 83.8374 321.116 83.4387C320.579 83.0401 320.137 82.5894 319.79 82.0867C319.461 81.5841 319.296 80.9774 319.296 80.2667C319.296 79.4867 319.47 78.8541 319.816 78.3687C320.18 77.8661 320.657 77.5021 321.246 77.2767C321.836 77.0341 322.468 76.9127 323.144 76.9127ZM334.253 76.9907V92.9547C334.253 93.7001 334.47 94.1941 334.903 94.4367C335.354 94.6967 335.969 94.8267 336.749 94.8267V95.3727C336.368 95.3554 335.839 95.3294 335.163 95.2947C334.487 95.2774 333.768 95.2687 333.005 95.2687C332.468 95.2687 331.931 95.2774 331.393 95.2947C330.873 95.3294 330.475 95.3554 330.197 95.3727V94.8267C330.821 94.8267 331.263 94.7141 331.523 94.4887C331.783 94.2634 331.913 93.8387 331.913 93.2147V80.1107C331.913 79.3307 331.775 78.7587 331.497 78.3947C331.22 78.0134 330.7 77.8227 329.937 77.8227V77.2767C330.492 77.3287 331.029 77.3547 331.549 77.3547C332.052 77.3547 332.529 77.3287 332.979 77.2767C333.447 77.2074 333.872 77.1121 334.253 76.9907ZM338.413 76.9127C339.332 76.9127 340.155 77.1641 340.883 77.6667C341.611 78.1521 342.183 78.8714 342.599 79.8247C343.033 80.7781 343.249 81.9567 343.249 83.3607C343.249 84.2967 343.137 85.2241 342.911 86.1427C342.686 87.0441 342.331 87.8674 341.845 88.6127C341.377 89.3407 340.762 89.9301 339.999 90.3807C339.254 90.8141 338.353 91.0307 337.295 91.0307C336.481 91.0307 335.77 90.8401 335.163 90.4587C334.574 90.0774 334.175 89.6181 333.967 89.0807L334.227 88.7167C334.47 89.2021 334.817 89.6094 335.267 89.9387C335.735 90.2681 336.316 90.4327 337.009 90.4327C337.98 90.4327 338.734 90.1294 339.271 89.5227C339.809 88.9161 340.181 88.1101 340.389 87.1047C340.615 86.0821 340.727 84.9554 340.727 83.7247C340.727 82.3381 340.615 81.2027 340.389 80.3187C340.164 79.4347 339.826 78.7761 339.375 78.3427C338.925 77.9094 338.37 77.6927 337.711 77.6927C336.862 77.6927 336.091 78.0481 335.397 78.7587C334.704 79.4521 334.262 80.5094 334.071 81.9307L333.759 81.5667C333.95 80.0934 334.47 78.9494 335.319 78.1347C336.186 77.3201 337.217 76.9127 338.413 76.9127ZM351.597 76.9127C352.706 76.9127 353.703 77.1554 354.587 77.6407C355.471 78.1261 356.173 78.8887 356.693 79.9287C357.23 80.9687 357.499 82.3207 357.499 83.9847C357.499 85.6487 357.23 87.0007 356.693 88.0407C356.173 89.0634 355.471 89.8174 354.587 90.3027C353.703 90.7881 352.706 91.0307 351.597 91.0307C350.505 91.0307 349.508 90.7881 348.607 90.3027C347.723 89.8174 347.012 89.0634 346.475 88.0407C345.955 87.0007 345.695 85.6487 345.695 83.9847C345.695 82.3207 345.955 80.9687 346.475 79.9287C347.012 78.8887 347.723 78.1261 348.607 77.6407C349.508 77.1554 350.505 76.9127 351.597 76.9127ZM351.597 77.4327C350.609 77.4327 349.794 77.9441 349.153 78.9667C348.529 79.9894 348.217 81.6621 348.217 83.9847C348.217 86.3074 348.529 87.9801 349.153 89.0027C349.794 90.0081 350.609 90.5107 351.597 90.5107C352.585 90.5107 353.391 90.0081 354.015 89.0027C354.656 87.9801 354.977 86.3074 354.977 83.9847C354.977 81.6621 354.656 79.9894 354.015 78.9667C353.391 77.9441 352.585 77.4327 351.597 77.4327ZM364.125 76.9127C364.818 76.9127 365.407 77.0254 365.893 77.2507C366.378 77.4761 366.733 77.6841 366.959 77.8747C367.531 78.3427 367.877 78.0307 367.999 76.9387H368.597C368.562 77.4241 368.536 78.0047 368.519 78.6807C368.501 79.3394 368.493 80.2321 368.493 81.3587H367.895C367.791 80.7174 367.609 80.0934 367.349 79.4867C367.106 78.8801 366.742 78.3861 366.257 78.0047C365.771 77.6061 365.139 77.4067 364.359 77.4067C363.752 77.4067 363.241 77.5801 362.825 77.9267C362.426 78.2561 362.227 78.7501 362.227 79.4087C362.227 79.9287 362.383 80.3794 362.695 80.7607C363.007 81.1247 363.414 81.4714 363.917 81.8007C364.419 82.1127 364.965 82.4594 365.555 82.8407C366.213 83.2567 366.811 83.6814 367.349 84.1147C367.886 84.5481 368.311 85.0247 368.623 85.5447C368.952 86.0647 369.117 86.6801 369.117 87.3907C369.117 88.1881 368.909 88.8554 368.493 89.3927C368.077 89.9301 367.531 90.3374 366.855 90.6147C366.196 90.8921 365.468 91.0307 364.671 91.0307C364.289 91.0307 363.925 90.9961 363.579 90.9267C363.249 90.8747 362.929 90.7881 362.617 90.6667C362.443 90.5801 362.261 90.4761 362.071 90.3547C361.897 90.2334 361.724 90.1034 361.551 89.9647C361.377 89.8261 361.221 89.8347 361.083 89.9907C360.944 90.1294 360.84 90.4154 360.771 90.8487H360.173C360.207 90.2941 360.233 89.6181 360.251 88.8207C360.268 88.0234 360.277 86.9661 360.277 85.6487H360.875C360.996 86.6194 361.169 87.4687 361.395 88.1967C361.62 88.9247 361.975 89.4967 362.461 89.9127C362.946 90.3114 363.622 90.5107 364.489 90.5107C364.835 90.5107 365.182 90.4327 365.529 90.2767C365.893 90.1207 366.196 89.8607 366.439 89.4967C366.681 89.1327 366.803 88.6474 366.803 88.0407C366.803 87.2781 366.525 86.6541 365.971 86.1687C365.416 85.6834 364.714 85.1721 363.865 84.6347C363.241 84.2361 362.651 83.8374 362.097 83.4387C361.559 83.0401 361.117 82.5894 360.771 82.0867C360.441 81.5841 360.277 80.9774 360.277 80.2667C360.277 79.4867 360.45 78.8541 360.797 78.3687C361.161 77.8661 361.637 77.5021 362.227 77.2767C362.816 77.0341 363.449 76.9127 364.125 76.9127ZM374.792 90.8487C374.081 90.8487 373.466 90.7187 372.946 90.4587C372.426 90.1814 372.027 89.8001 371.75 89.3147C371.49 88.8294 371.36 88.2661 371.36 87.6247C371.36 86.8621 371.533 86.2381 371.88 85.7527C372.244 85.2674 372.703 84.8774 373.258 84.5827C373.812 84.2881 374.393 84.0454 375 83.8547C375.624 83.6467 376.213 83.4561 376.768 83.2827C377.322 83.0921 377.773 82.8754 378.12 82.6327C378.484 82.3901 378.666 82.0694 378.666 81.6707V80.0587C378.666 79.3307 378.553 78.7761 378.328 78.3947C378.12 78.0134 377.834 77.7621 377.47 77.6407C377.106 77.5021 376.698 77.4327 376.248 77.4327C375.814 77.4327 375.346 77.4934 374.844 77.6147C374.358 77.7361 373.968 77.9874 373.674 78.3687C374.003 78.4381 374.289 78.6114 374.532 78.8887C374.774 79.1661 374.896 79.5214 374.896 79.9547C374.896 80.3881 374.757 80.7347 374.48 80.9947C374.202 81.2374 373.847 81.3587 373.414 81.3587C372.911 81.3587 372.538 81.2027 372.296 80.8907C372.07 80.5614 371.958 80.1974 371.958 79.7987C371.958 79.3481 372.07 78.9841 372.296 78.7067C372.521 78.4294 372.807 78.1694 373.154 77.9267C373.552 77.6494 374.064 77.4154 374.688 77.2247C375.329 77.0167 376.048 76.9127 376.846 76.9127C377.556 76.9127 378.163 76.9994 378.666 77.1727C379.168 77.3287 379.584 77.5627 379.914 77.8747C380.364 78.2907 380.659 78.8021 380.798 79.4087C380.936 79.9981 381.006 80.7087 381.006 81.5407V88.7687C381.006 89.2021 381.066 89.5141 381.188 89.7047C381.326 89.8954 381.534 89.9907 381.812 89.9907C382.002 89.9907 382.184 89.9474 382.358 89.8607C382.531 89.7741 382.739 89.6354 382.982 89.4447L383.268 89.8867C382.904 90.1641 382.557 90.3981 382.228 90.5887C381.898 90.7621 381.456 90.8487 380.902 90.8487C380.399 90.8487 379.983 90.7621 379.654 90.5887C379.324 90.4154 379.073 90.1641 378.9 89.8347C378.744 89.4881 378.666 89.0547 378.666 88.5347C378.198 89.3147 377.634 89.8954 376.976 90.2767C376.334 90.6581 375.606 90.8487 374.792 90.8487ZM375.728 89.8087C376.3 89.8087 376.828 89.6441 377.314 89.3147C377.816 88.9854 378.267 88.4914 378.666 87.8327V82.7367C378.458 83.0314 378.154 83.2827 377.756 83.4907C377.357 83.6814 376.924 83.8807 376.456 84.0887C375.988 84.2794 375.537 84.5134 375.104 84.7907C374.688 85.0507 374.341 85.3974 374.064 85.8307C373.786 86.2641 373.648 86.8274 373.648 87.5207C373.648 88.2141 373.83 88.7687 374.194 89.1847C374.575 89.6007 375.086 89.8087 375.728 89.8087ZM391.771 76.9127C393.192 76.9127 394.371 77.5021 395.307 78.6807C396.243 79.8421 396.711 81.6101 396.711 83.9847C396.711 85.5447 396.442 86.8534 395.905 87.9107C395.385 88.9507 394.683 89.7307 393.799 90.2507C392.915 90.7707 391.953 91.0307 390.913 91.0307C390.046 91.0307 389.206 90.7881 388.391 90.3027C387.594 89.8001 386.996 89.0634 386.597 88.0927L387.117 88.3787C387.55 89.0721 388.088 89.5921 388.729 89.9387C389.37 90.2681 390.029 90.4327 390.705 90.4327C391.866 90.4327 392.733 89.9127 393.305 88.8727C393.894 87.8154 394.189 86.1861 394.189 83.9847C394.189 82.5807 394.076 81.4107 393.851 80.4747C393.626 79.5387 393.279 78.8454 392.811 78.3947C392.343 77.9267 391.745 77.6927 391.017 77.6927C390.22 77.6927 389.474 78.0567 388.781 78.7847C388.105 79.4954 387.689 80.5441 387.533 81.9307L387.221 81.5667C387.412 80.0934 387.923 78.9494 388.755 78.1347C389.604 77.3201 390.61 76.9127 391.771 76.9127ZM387.715 70.3087V89.3147C387.49 89.5054 387.256 89.7047 387.013 89.9127C386.788 90.1034 386.562 90.2941 386.337 90.4847C386.112 90.6754 385.878 90.8747 385.635 91.0827L385.193 90.9007C385.262 90.6581 385.306 90.4154 385.323 90.1727C385.358 89.9127 385.375 89.6527 385.375 89.3927V73.4287C385.375 72.6487 385.236 72.0767 384.959 71.7127C384.682 71.3314 384.162 71.1407 383.399 71.1407V70.5947C383.954 70.6467 384.491 70.6727 385.011 70.6727C385.514 70.6727 385.99 70.6467 386.441 70.5947C386.909 70.5254 387.334 70.4301 387.715 70.3087ZM402.579 70.2827V88.2487C402.579 88.9767 402.727 89.4707 403.021 89.7307C403.333 89.9907 403.845 90.1207 404.555 90.1207V90.6667C404.261 90.6494 403.81 90.6321 403.203 90.6147C402.614 90.5801 402.016 90.5627 401.409 90.5627C400.82 90.5627 400.222 90.5801 399.615 90.6147C399.009 90.6321 398.558 90.6494 398.263 90.6667V90.1207C398.974 90.1207 399.477 89.9907 399.771 89.7307C400.083 89.4707 400.239 88.9767 400.239 88.2487V73.4027C400.239 72.6227 400.101 72.0507 399.823 71.6867C399.546 71.3054 399.026 71.1147 398.263 71.1147V70.5687C398.818 70.6207 399.355 70.6467 399.875 70.6467C400.378 70.6467 400.855 70.6207 401.305 70.5687C401.773 70.4994 402.198 70.4041 402.579 70.2827ZM411.949 76.9127C413.474 76.9127 414.662 77.3807 415.511 78.3167C416.378 79.2354 416.811 80.6741 416.811 82.6327H407.633L407.607 82.1387H414.315C414.35 81.2894 414.28 80.5094 414.107 79.7987C413.934 79.0707 413.656 78.4901 413.275 78.0567C412.911 77.6234 412.434 77.4067 411.845 77.4067C411.048 77.4067 410.337 77.8054 409.713 78.6027C409.106 79.4001 408.742 80.6654 408.621 82.3987L408.699 82.5027C408.664 82.7627 408.638 83.0487 408.621 83.3607C408.604 83.6727 408.595 83.9847 408.595 84.2967C408.595 85.4754 408.786 86.4894 409.167 87.3387C409.548 88.1881 410.042 88.8381 410.649 89.2887C411.273 89.7221 411.914 89.9387 412.573 89.9387C413.093 89.9387 413.587 89.8607 414.055 89.7047C414.523 89.5314 414.956 89.2541 415.355 88.8727C415.754 88.4914 416.1 87.9801 416.395 87.3387L416.915 87.5467C416.724 88.1187 416.412 88.6734 415.979 89.2107C415.546 89.7481 415 90.1901 414.341 90.5367C413.682 90.8661 412.92 91.0307 412.053 91.0307C410.805 91.0307 409.73 90.7447 408.829 90.1727C407.945 89.6007 407.26 88.8121 406.775 87.8067C406.307 86.7841 406.073 85.6141 406.073 84.2967C406.073 82.7714 406.316 81.4627 406.801 80.3707C407.286 79.2614 407.971 78.4121 408.855 77.8227C409.739 77.2161 410.77 76.9127 411.949 76.9127ZM438.57 72.2587C438.501 72.8654 438.449 73.4547 438.414 74.0267C438.397 74.5987 438.388 75.0321 438.388 75.3267C438.388 75.6387 438.397 75.9421 438.414 76.2367C438.431 76.5141 438.449 76.7481 438.466 76.9387H437.868C437.764 75.9161 437.617 75.1101 437.426 74.5207C437.235 73.9141 436.906 73.4894 436.438 73.2467C435.987 72.9867 435.303 72.8567 434.384 72.8567H432.226C431.637 72.8567 431.186 72.9087 430.874 73.0127C430.579 73.0994 430.38 73.2987 430.276 73.6107C430.172 73.9054 430.12 74.3734 430.12 75.0147V87.9107C430.12 88.5347 430.172 89.0027 430.276 89.3147C430.38 89.6267 430.579 89.8347 430.874 89.9387C431.186 90.0254 431.637 90.0687 432.226 90.0687H434.124C435.216 90.0687 436.039 89.9214 436.594 89.6267C437.166 89.3321 437.573 88.8554 437.816 88.1967C438.076 87.5207 438.267 86.6107 438.388 85.4667H438.986C438.934 85.9347 438.908 86.5587 438.908 87.3387C438.908 87.6681 438.917 88.1447 438.934 88.7687C438.969 89.3754 439.021 90.0081 439.09 90.6667C438.206 90.6321 437.209 90.6147 436.1 90.6147C434.991 90.5974 434.003 90.5887 433.136 90.5887C432.755 90.5887 432.261 90.5887 431.654 90.5887C431.065 90.5887 430.423 90.5974 429.73 90.6147C429.037 90.6147 428.335 90.6234 427.624 90.6407C426.913 90.6407 426.237 90.6494 425.596 90.6667V90.1467C426.185 90.1121 426.627 90.0427 426.922 89.9387C427.234 89.8347 427.442 89.6267 427.546 89.3147C427.65 89.0027 427.702 88.5347 427.702 87.9107V75.0147C427.702 74.3734 427.65 73.9054 427.546 73.6107C427.442 73.2987 427.234 73.0907 426.922 72.9867C426.627 72.8654 426.185 72.7961 425.596 72.7787V72.2587C426.237 72.2761 426.913 72.2934 427.624 72.3107C428.335 72.3107 429.037 72.3194 429.73 72.3367C430.423 72.3367 431.065 72.3367 431.654 72.3367C432.261 72.3367 432.755 72.3367 433.136 72.3367C433.933 72.3367 434.835 72.3367 435.84 72.3367C436.863 72.3194 437.773 72.2934 438.57 72.2587ZM434.098 81.1507C434.098 81.1507 434.098 81.2374 434.098 81.4107C434.098 81.5841 434.098 81.6707 434.098 81.6707H429.34C429.34 81.6707 429.34 81.5841 429.34 81.4107C429.34 81.2374 429.34 81.1507 429.34 81.1507H434.098ZM434.852 77.7187C434.783 78.7067 434.748 79.4607 434.748 79.9807C434.765 80.5007 434.774 80.9774 434.774 81.4107C434.774 81.8441 434.783 82.3207 434.8 82.8407C434.817 83.3607 434.861 84.1147 434.93 85.1027H434.332C434.263 84.5481 434.176 84.0107 434.072 83.4907C433.985 82.9534 433.777 82.5201 433.448 82.1907C433.136 81.8441 432.599 81.6707 431.836 81.6707V81.1507C432.408 81.1507 432.841 81.0381 433.136 80.8127C433.448 80.5701 433.673 80.2667 433.812 79.9027C433.951 79.5387 434.046 79.1661 434.098 78.7847C434.15 78.3861 434.202 78.0307 434.254 77.7187H434.852ZM445.236 70.2827V88.2487C445.236 88.9767 445.383 89.4707 445.678 89.7307C445.99 89.9907 446.501 90.1207 447.212 90.1207V90.6667C446.917 90.6494 446.466 90.6321 445.86 90.6147C445.27 90.5801 444.672 90.5627 444.066 90.5627C443.476 90.5627 442.878 90.5801 442.272 90.6147C441.665 90.6321 441.214 90.6494 440.92 90.6667V90.1207C441.63 90.1207 442.133 89.9907 442.428 89.7307C442.74 89.4707 442.896 88.9767 442.896 88.2487V73.4027C442.896 72.6227 442.757 72.0507 442.48 71.6867C442.202 71.3054 441.682 71.1147 440.92 71.1147V70.5687C441.474 70.6207 442.012 70.6467 442.532 70.6467C443.034 70.6467 443.511 70.6207 443.962 70.5687C444.43 70.4994 444.854 70.4041 445.236 70.2827ZM454.605 76.9127C456.131 76.9127 457.318 77.3807 458.167 78.3167C459.034 79.2354 459.467 80.6741 459.467 82.6327H450.289L450.263 82.1387H456.971C457.006 81.2894 456.937 80.5094 456.763 79.7987C456.59 79.0707 456.313 78.4901 455.931 78.0567C455.567 77.6234 455.091 77.4067 454.501 77.4067C453.704 77.4067 452.993 77.8054 452.369 78.6027C451.763 79.4001 451.399 80.6654 451.277 82.3987L451.355 82.5027C451.321 82.7627 451.295 83.0487 451.277 83.3607C451.26 83.6727 451.251 83.9847 451.251 84.2967C451.251 85.4754 451.442 86.4894 451.823 87.3387C452.205 88.1881 452.699 88.8381 453.305 89.2887C453.929 89.7221 454.571 89.9387 455.229 89.9387C455.749 89.9387 456.243 89.8607 456.711 89.7047C457.179 89.5314 457.613 89.2541 458.011 88.8727C458.41 88.4914 458.757 87.9801 459.051 87.3387L459.571 87.5467C459.381 88.1187 459.069 88.6734 458.635 89.2107C458.202 89.7481 457.656 90.1901 456.997 90.5367C456.339 90.8661 455.576 91.0307 454.709 91.0307C453.461 91.0307 452.387 90.7447 451.485 90.1727C450.601 89.6007 449.917 88.8121 449.431 87.8067C448.963 86.7841 448.729 85.6141 448.729 84.2967C448.729 82.7714 448.972 81.4627 449.457 80.3707C449.943 79.2614 450.627 78.4121 451.511 77.8227C452.395 77.2161 453.427 76.9127 454.605 76.9127ZM470.02 76.9127C470.626 76.9127 471.155 76.9994 471.606 77.1727C472.056 77.3461 472.429 77.5887 472.724 77.9007C473.053 78.2474 473.278 78.6981 473.4 79.2527C473.521 79.8074 473.582 80.4921 473.582 81.3067V88.2487C473.582 88.9767 473.729 89.4707 474.024 89.7307C474.336 89.9907 474.847 90.1207 475.558 90.1207V90.6667C475.263 90.6494 474.812 90.6321 474.206 90.6147C473.599 90.5801 473.01 90.5627 472.438 90.5627C471.866 90.5627 471.302 90.5801 470.748 90.6147C470.21 90.6321 469.803 90.6494 469.526 90.6667V90.1207C470.15 90.1207 470.592 89.9907 470.852 89.7307C471.112 89.4707 471.242 88.9767 471.242 88.2487V80.7347C471.242 80.1974 471.207 79.7034 471.138 79.2527C471.068 78.8021 470.895 78.4381 470.618 78.1607C470.34 77.8834 469.89 77.7447 469.266 77.7447C468.59 77.7447 467.983 77.9527 467.446 78.3687C466.926 78.7847 466.51 79.3567 466.198 80.0847C465.903 80.7954 465.756 81.5927 465.756 82.4767V88.2487C465.756 88.9767 465.886 89.4707 466.146 89.7307C466.406 89.9907 466.848 90.1207 467.472 90.1207V90.6667C467.194 90.6494 466.778 90.6321 466.224 90.6147C465.686 90.5801 465.132 90.5627 464.56 90.5627C463.988 90.5627 463.398 90.5801 462.792 90.6147C462.185 90.6321 461.734 90.6494 461.44 90.6667V90.1207C462.15 90.1207 462.653 89.9907 462.948 89.7307C463.26 89.4707 463.416 88.9767 463.416 88.2487V80.1107C463.416 79.3307 463.277 78.7587 463 78.3947C462.722 78.0134 462.202 77.8227 461.44 77.8227V77.2767C461.994 77.3287 462.532 77.3547 463.052 77.3547C463.554 77.3547 464.031 77.3287 464.482 77.2767C464.95 77.2074 465.374 77.1121 465.756 76.9907V80.0587C466.206 78.9321 466.822 78.1261 467.602 77.6407C468.382 77.1554 469.188 76.9127 470.02 76.9127ZM477.846 76.9127C478.452 76.9127 478.981 76.9994 479.432 77.1727C479.882 77.3461 480.255 77.5887 480.55 77.9007C480.879 78.2474 481.104 78.6981 481.226 79.2527C481.347 79.8074 481.408 80.4921 481.408 81.3067V88.2487C481.408 88.9767 481.555 89.4707 481.85 89.7307C482.162 89.9907 482.673 90.1207 483.384 90.1207V90.6667C483.089 90.6494 482.638 90.6321 482.032 90.6147C481.425 90.5801 480.836 90.5627 480.264 90.5627C479.692 90.5627 479.128 90.5801 478.574 90.6147C478.036 90.6321 477.629 90.6494 477.352 90.6667V90.1207C477.976 90.1207 478.418 89.9907 478.678 89.7307C478.938 89.4707 479.068 88.9767 479.068 88.2487V80.7347C479.068 80.1974 479.033 79.7034 478.964 79.2527C478.894 78.8021 478.721 78.4381 478.444 78.1607C478.166 77.8834 477.716 77.7447 477.092 77.7447C476.416 77.7447 475.809 77.9527 475.272 78.3687C474.752 78.7847 474.336 79.3481 474.024 80.0587C473.729 80.7694 473.582 81.5667 473.582 82.4507L473.504 80.0327C473.972 78.8367 474.604 78.0221 475.402 77.5887C476.199 77.1381 477.014 76.9127 477.846 76.9127ZM490.838 76.9127C492.363 76.9127 493.55 77.3807 494.4 78.3167C495.266 79.2354 495.7 80.6741 495.7 82.6327H486.522L486.496 82.1387H493.204C493.238 81.2894 493.169 80.5094 492.996 79.7987C492.822 79.0707 492.545 78.4901 492.164 78.0567C491.8 77.6234 491.323 77.4067 490.734 77.4067C489.936 77.4067 489.226 77.8054 488.602 78.6027C487.995 79.4001 487.631 80.6654 487.51 82.3987L487.588 82.5027C487.553 82.7627 487.527 83.0487 487.51 83.3607C487.492 83.6727 487.484 83.9847 487.484 84.2967C487.484 85.4754 487.674 86.4894 488.056 87.3387C488.437 88.1881 488.931 88.8381 489.538 89.2887C490.162 89.7221 490.803 89.9387 491.462 89.9387C491.982 89.9387 492.476 89.8607 492.944 89.7047C493.412 89.5314 493.845 89.2541 494.244 88.8727C494.642 88.4914 494.989 87.9801 495.284 87.3387L495.804 87.5467C495.613 88.1187 495.301 88.6734 494.868 89.2107C494.434 89.7481 493.888 90.1901 493.23 90.5367C492.571 90.8661 491.808 91.0307 490.942 91.0307C489.694 91.0307 488.619 90.7447 487.718 90.1727C486.834 89.6007 486.149 88.8121 485.664 87.8067C485.196 86.7841 484.962 85.6141 484.962 84.2967C484.962 82.7714 485.204 81.4627 485.69 80.3707C486.175 79.2614 486.86 78.4121 487.744 77.8227C488.628 77.2161 489.659 76.9127 490.838 76.9127ZM506.408 76.9127C507.067 76.9127 507.613 76.9994 508.046 77.1727C508.497 77.3461 508.869 77.5887 509.164 77.9007C509.493 78.2474 509.727 78.6807 509.866 79.2007C510.005 79.7207 510.074 80.4227 510.074 81.3067V88.2487C510.074 88.9767 510.221 89.4707 510.516 89.7307C510.828 89.9907 511.339 90.1207 512.05 90.1207V90.6667C511.755 90.6494 511.305 90.6321 510.698 90.6147C510.091 90.5801 509.502 90.5627 508.93 90.5627C508.358 90.5627 507.795 90.5801 507.24 90.6147C506.703 90.6321 506.295 90.6494 506.018 90.6667V90.1207C506.642 90.1207 507.084 89.9907 507.344 89.7307C507.604 89.4707 507.734 88.9767 507.734 88.2487V80.7347C507.734 80.1974 507.691 79.7034 507.604 79.2527C507.517 78.8021 507.318 78.4381 507.006 78.1607C506.711 77.8834 506.252 77.7447 505.628 77.7447C504.9 77.7447 504.259 77.9527 503.704 78.3687C503.167 78.7847 502.742 79.3567 502.43 80.0847C502.135 80.7954 501.988 81.5927 501.988 82.4767V88.2487C501.988 88.9767 502.118 89.4707 502.378 89.7307C502.638 89.9907 503.08 90.1207 503.704 90.1207V90.6667C503.427 90.6494 503.011 90.6321 502.456 90.6147C501.919 90.5801 501.364 90.5627 500.792 90.5627C500.22 90.5627 499.631 90.5801 499.024 90.6147C498.417 90.6321 497.967 90.6494 497.672 90.6667V90.1207C498.383 90.1207 498.885 89.9907 499.18 89.7307C499.492 89.4707 499.648 88.9767 499.648 88.2487V80.1107C499.648 79.3307 499.509 78.7587 499.232 78.3947C498.955 78.0134 498.435 77.8227 497.672 77.8227V77.2767C498.227 77.3287 498.764 77.3547 499.284 77.3547C499.787 77.3547 500.263 77.3287 500.714 77.2767C501.182 77.2074 501.607 77.1121 501.988 76.9907V80.0587C502.439 78.8801 503.063 78.0654 503.86 77.6147C504.675 77.1467 505.524 76.9127 506.408 76.9127ZM517.372 72.9607V77.3027H521.22V77.8227H517.372V87.8847C517.372 88.6994 517.519 89.2714 517.814 89.6007C518.108 89.9301 518.516 90.0947 519.036 90.0947C519.556 90.0947 520.006 89.8867 520.388 89.4707C520.769 89.0374 521.098 88.3181 521.376 87.3127L521.896 87.4427C521.722 88.4481 521.376 89.2974 520.856 89.9907C520.353 90.6841 519.573 91.0307 518.516 91.0307C517.926 91.0307 517.441 90.9527 517.06 90.7967C516.678 90.6581 516.34 90.4501 516.046 90.1727C515.664 89.7741 515.396 89.2974 515.24 88.7427C515.101 88.1881 515.032 87.4514 515.032 86.5327V77.8227H512.536V77.3027H515.032V73.3247C515.465 73.3074 515.881 73.2727 516.28 73.2207C516.678 73.1687 517.042 73.0821 517.372 72.9607ZM527.031 76.9127C527.724 76.9127 528.314 77.0254 528.799 77.2507C529.284 77.4761 529.64 77.6841 529.865 77.8747C530.437 78.3427 530.784 78.0307 530.905 76.9387H531.503C531.468 77.4241 531.442 78.0047 531.425 78.6807C531.408 79.3394 531.399 80.2321 531.399 81.3587H530.801C530.697 80.7174 530.515 80.0934 530.255 79.4867C530.012 78.8801 529.648 78.3861 529.163 78.0047C528.678 77.6061 528.045 77.4067 527.265 77.4067C526.658 77.4067 526.147 77.5801 525.731 77.9267C525.332 78.2561 525.133 78.7501 525.133 79.4087C525.133 79.9287 525.289 80.3794 525.601 80.7607C525.913 81.1247 526.32 81.4714 526.823 81.8007C527.326 82.1127 527.872 82.4594 528.461 82.8407C529.12 83.2567 529.718 83.6814 530.255 84.1147C530.792 84.5481 531.217 85.0247 531.529 85.5447C531.858 86.0647 532.023 86.6801 532.023 87.3907C532.023 88.1881 531.815 88.8554 531.399 89.3927C530.983 89.9301 530.437 90.3374 529.761 90.6147C529.102 90.8921 528.374 91.0307 527.577 91.0307C527.196 91.0307 526.832 90.9961 526.485 90.9267C526.156 90.8747 525.835 90.7881 525.523 90.6667C525.35 90.5801 525.168 90.4761 524.977 90.3547C524.804 90.2334 524.63 90.1034 524.457 89.9647C524.284 89.8261 524.128 89.8347 523.989 89.9907C523.85 90.1294 523.746 90.4154 523.677 90.8487H523.079C523.114 90.2941 523.14 89.6181 523.157 88.8207C523.174 88.0234 523.183 86.9661 523.183 85.6487H523.781C523.902 86.6194 524.076 87.4687 524.301 88.1967C524.526 88.9247 524.882 89.4967 525.367 89.9127C525.852 90.3114 526.528 90.5107 527.395 90.5107C527.742 90.5107 528.088 90.4327 528.435 90.2767C528.799 90.1207 529.102 89.8607 529.345 89.4967C529.588 89.1327 529.709 88.6474 529.709 88.0407C529.709 87.2781 529.432 86.6541 528.877 86.1687C528.322 85.6834 527.62 85.1721 526.771 84.6347C526.147 84.2361 525.558 83.8374 525.003 83.4387C524.466 83.0401 524.024 82.5894 523.677 82.0867C523.348 81.5841 523.183 80.9774 523.183 80.2667C523.183 79.4867 523.356 78.8541 523.703 78.3687C524.067 77.8661 524.544 77.5021 525.133 77.2767C525.722 77.0341 526.355 76.9127 527.031 76.9127ZM543.445 70.7767C543.895 70.7767 544.285 70.9414 544.615 71.2707C544.944 71.6001 545.109 71.9901 545.109 72.4407C545.109 72.8914 544.944 73.2814 544.615 73.6107C544.285 73.9401 543.895 74.1047 543.445 74.1047C542.994 74.1047 542.604 73.9401 542.275 73.6107C541.945 73.2814 541.781 72.8914 541.781 72.4407C541.781 71.9901 541.945 71.6001 542.275 71.2707C542.604 70.9414 542.994 70.7767 543.445 70.7767ZM544.797 76.9907V88.2487C544.797 88.9767 544.944 89.4707 545.239 89.7307C545.551 89.9907 546.062 90.1207 546.773 90.1207V90.6667C546.478 90.6494 546.027 90.6321 545.421 90.6147C544.831 90.5801 544.233 90.5627 543.627 90.5627C543.037 90.5627 542.439 90.5801 541.833 90.6147C541.226 90.6321 540.775 90.6494 540.481 90.6667V90.1207C541.191 90.1207 541.694 89.9907 541.989 89.7307C542.301 89.4707 542.457 88.9767 542.457 88.2487V80.1107C542.457 79.3307 542.318 78.7587 542.041 78.3947C541.763 78.0134 541.243 77.8227 540.481 77.8227V77.2767C541.035 77.3287 541.573 77.3547 542.093 77.3547C542.595 77.3547 543.072 77.3287 543.523 77.2767C543.991 77.2074 544.415 77.1121 544.797 76.9907ZM556.834 76.9127C557.492 76.9127 558.038 76.9994 558.472 77.1727C558.922 77.3461 559.295 77.5887 559.59 77.9007C559.919 78.2474 560.153 78.6807 560.292 79.2007C560.43 79.7207 560.5 80.4227 560.5 81.3067V88.2487C560.5 88.9767 560.647 89.4707 560.942 89.7307C561.254 89.9907 561.765 90.1207 562.476 90.1207V90.6667C562.181 90.6494 561.73 90.6321 561.124 90.6147C560.517 90.5801 559.928 90.5627 559.356 90.5627C558.784 90.5627 558.22 90.5801 557.666 90.6147C557.128 90.6321 556.721 90.6494 556.444 90.6667V90.1207C557.068 90.1207 557.51 89.9907 557.77 89.7307C558.03 89.4707 558.16 88.9767 558.16 88.2487V80.7347C558.16 80.1974 558.116 79.7034 558.03 79.2527C557.943 78.8021 557.744 78.4381 557.432 78.1607C557.137 77.8834 556.678 77.7447 556.054 77.7447C555.326 77.7447 554.684 77.9527 554.13 78.3687C553.592 78.7847 553.168 79.3567 552.856 80.0847C552.561 80.7954 552.414 81.5927 552.414 82.4767V88.2487C552.414 88.9767 552.544 89.4707 552.804 89.7307C553.064 89.9907 553.506 90.1207 554.13 90.1207V90.6667C553.852 90.6494 553.436 90.6321 552.882 90.6147C552.344 90.5801 551.79 90.5627 551.218 90.5627C550.646 90.5627 550.056 90.5801 549.45 90.6147C548.843 90.6321 548.392 90.6494 548.098 90.6667V90.1207C548.808 90.1207 549.311 89.9907 549.606 89.7307C549.918 89.4707 550.074 88.9767 550.074 88.2487V80.1107C550.074 79.3307 549.935 78.7587 549.658 78.3947C549.38 78.0134 548.86 77.8227 548.098 77.8227V77.2767C548.652 77.3287 549.19 77.3547 549.71 77.3547C550.212 77.3547 550.689 77.3287 551.14 77.2767C551.608 77.2074 552.032 77.1121 552.414 76.9907V80.0587C552.864 78.8801 553.488 78.0654 554.286 77.6147C555.1 77.1467 555.95 76.9127 556.834 76.9127ZM570.424 72.2587C570.788 72.2761 571.265 72.2934 571.854 72.3107C572.443 72.3281 573.024 72.3367 573.596 72.3367C574.411 72.3367 575.191 72.3281 575.936 72.3107C576.681 72.2934 577.21 72.2847 577.522 72.2847C579.619 72.2847 581.188 72.7614 582.228 73.7147C583.268 74.6681 583.788 75.8987 583.788 77.4067C583.788 78.0307 583.684 78.6894 583.476 79.3827C583.268 80.0587 582.904 80.6914 582.384 81.2807C581.881 81.8527 581.188 82.3207 580.304 82.6847C579.42 83.0487 578.302 83.2307 576.95 83.2307H574.454V82.7107H576.69C577.921 82.7107 578.857 82.4767 579.498 82.0087C580.157 81.5407 580.599 80.9254 580.824 80.1627C581.067 79.4001 581.188 78.5767 581.188 77.6927C581.188 76.0461 580.859 74.8154 580.2 74.0007C579.559 73.1861 578.449 72.7787 576.872 72.7787C576.075 72.7787 575.555 72.9261 575.312 73.2207C575.069 73.5154 574.948 74.1134 574.948 75.0147V87.9107C574.948 88.5347 575.009 89.0027 575.13 89.3147C575.269 89.6267 575.529 89.8347 575.91 89.9387C576.291 90.0427 576.846 90.1121 577.574 90.1467V90.6667C577.123 90.6321 576.551 90.6147 575.858 90.6147C575.165 90.5974 574.463 90.5887 573.752 90.5887C573.076 90.5887 572.443 90.5974 571.854 90.6147C571.265 90.6147 570.788 90.6321 570.424 90.6667V90.1467C571.013 90.1121 571.455 90.0427 571.75 89.9387C572.062 89.8347 572.27 89.6267 572.374 89.3147C572.478 89.0027 572.53 88.5347 572.53 87.9107V75.0147C572.53 74.3734 572.478 73.9054 572.374 73.6107C572.27 73.2987 572.062 73.0907 571.75 72.9867C571.455 72.8654 571.013 72.7961 570.424 72.7787V72.2587ZM589.201 70.2827V88.2487C589.201 88.9767 589.348 89.4707 589.643 89.7307C589.955 89.9907 590.466 90.1207 591.176 90.1207V90.6667C590.882 90.6494 590.431 90.6321 589.825 90.6147C589.235 90.5801 588.637 90.5627 588.031 90.5627C587.441 90.5627 586.843 90.5801 586.237 90.6147C585.63 90.6321 585.179 90.6494 584.885 90.6667V90.1207C585.595 90.1207 586.098 89.9907 586.393 89.7307C586.705 89.4707 586.861 88.9767 586.861 88.2487V73.4027C586.861 72.6227 586.722 72.0507 586.445 71.6867C586.167 71.3054 585.647 71.1147 584.885 71.1147V70.5687C585.439 70.6207 585.977 70.6467 586.497 70.6467C586.999 70.6467 587.476 70.6207 587.927 70.5687C588.395 70.4994 588.819 70.4041 589.201 70.2827ZM596.198 90.8487C595.487 90.8487 594.872 90.7187 594.352 90.4587C593.832 90.1814 593.433 89.8001 593.156 89.3147C592.896 88.8294 592.766 88.2661 592.766 87.6247C592.766 86.8621 592.939 86.2381 593.286 85.7527C593.65 85.2674 594.109 84.8774 594.664 84.5827C595.219 84.2881 595.799 84.0454 596.406 83.8547C597.03 83.6467 597.619 83.4561 598.174 83.2827C598.729 83.0921 599.179 82.8754 599.526 82.6327C599.89 82.3901 600.072 82.0694 600.072 81.6707V80.0587C600.072 79.3307 599.959 78.7761 599.734 78.3947C599.526 78.0134 599.24 77.7621 598.876 77.6407C598.512 77.5021 598.105 77.4327 597.654 77.4327C597.221 77.4327 596.753 77.4934 596.25 77.6147C595.765 77.7361 595.375 77.9874 595.08 78.3687C595.409 78.4381 595.695 78.6114 595.938 78.8887C596.181 79.1661 596.302 79.5214 596.302 79.9547C596.302 80.3881 596.163 80.7347 595.886 80.9947C595.609 81.2374 595.253 81.3587 594.82 81.3587C594.317 81.3587 593.945 81.2027 593.702 80.8907C593.477 80.5614 593.364 80.1974 593.364 79.7987C593.364 79.3481 593.477 78.9841 593.702 78.7067C593.927 78.4294 594.213 78.1694 594.56 77.9267C594.959 77.6494 595.47 77.4154 596.094 77.2247C596.735 77.0167 597.455 76.9127 598.252 76.9127C598.963 76.9127 599.569 76.9994 600.072 77.1727C600.575 77.3287 600.991 77.5627 601.32 77.8747C601.771 78.2907 602.065 78.8021 602.204 79.4087C602.343 79.9981 602.412 80.7087 602.412 81.5407V88.7687C602.412 89.2021 602.473 89.5141 602.594 89.7047C602.733 89.8954 602.941 89.9907 603.218 89.9907C603.409 89.9907 603.591 89.9474 603.764 89.8607C603.937 89.7741 604.145 89.6354 604.388 89.4447L604.674 89.8867C604.31 90.1641 603.963 90.3981 603.634 90.5887C603.305 90.7621 602.863 90.8487 602.308 90.8487C601.805 90.8487 601.389 90.7621 601.06 90.5887C600.731 90.4154 600.479 90.1641 600.306 89.8347C600.15 89.4881 600.072 89.0547 600.072 88.5347C599.604 89.3147 599.041 89.8954 598.382 90.2767C597.741 90.6581 597.013 90.8487 596.198 90.8487ZM597.134 89.8087C597.706 89.8087 598.235 89.6441 598.72 89.3147C599.223 88.9854 599.673 88.4914 600.072 87.8327V82.7367C599.864 83.0314 599.561 83.2827 599.162 83.4907C598.763 83.6814 598.33 83.8807 597.862 84.0887C597.394 84.2794 596.943 84.5134 596.51 84.7907C596.094 85.0507 595.747 85.3974 595.47 85.8307C595.193 86.2641 595.054 86.8274 595.054 87.5207C595.054 88.2141 595.236 88.7687 595.6 89.1847C595.981 89.6007 596.493 89.8087 597.134 89.8087ZM614.191 76.9127C614.85 76.9127 615.396 76.9994 615.829 77.1727C616.28 77.3461 616.653 77.5887 616.947 77.9007C617.277 78.2474 617.511 78.6807 617.649 79.2007C617.788 79.7207 617.857 80.4227 617.857 81.3067V88.2487C617.857 88.9767 618.005 89.4707 618.299 89.7307C618.611 89.9907 619.123 90.1207 619.833 90.1207V90.6667C619.539 90.6494 619.088 90.6321 618.481 90.6147C617.875 90.5801 617.285 90.5627 616.713 90.5627C616.141 90.5627 615.578 90.5801 615.023 90.6147C614.486 90.6321 614.079 90.6494 613.801 90.6667V90.1207C614.425 90.1207 614.867 89.9907 615.127 89.7307C615.387 89.4707 615.517 88.9767 615.517 88.2487V80.7347C615.517 80.1974 615.474 79.7034 615.387 79.2527C615.301 78.8021 615.101 78.4381 614.789 78.1607C614.495 77.8834 614.035 77.7447 613.411 77.7447C612.683 77.7447 612.042 77.9527 611.487 78.3687C610.95 78.7847 610.525 79.3567 610.213 80.0847C609.919 80.7954 609.771 81.5927 609.771 82.4767V88.2487C609.771 88.9767 609.901 89.4707 610.161 89.7307C610.421 89.9907 610.863 90.1207 611.487 90.1207V90.6667C611.21 90.6494 610.794 90.6321 610.239 90.6147C609.702 90.5801 609.147 90.5627 608.575 90.5627C608.003 90.5627 607.414 90.5801 606.807 90.6147C606.201 90.6321 605.75 90.6494 605.455 90.6667V90.1207C606.166 90.1207 606.669 89.9907 606.963 89.7307C607.275 89.4707 607.431 88.9767 607.431 88.2487V80.1107C607.431 79.3307 607.293 78.7587 607.015 78.3947C606.738 78.0134 606.218 77.8227 605.455 77.8227V77.2767C606.01 77.3287 606.547 77.3547 607.067 77.3547C607.57 77.3547 608.047 77.3287 608.497 77.2767C608.965 77.2074 609.39 77.1121 609.771 76.9907V80.0587C610.222 78.8801 610.846 78.0654 611.643 77.6147C612.458 77.1467 613.307 76.9127 614.191 76.9127ZM625.155 72.9607V77.3027H629.003V77.8227H625.155V87.8847C625.155 88.6994 625.302 89.2714 625.597 89.6007C625.892 89.9301 626.299 90.0947 626.819 90.0947C627.339 90.0947 627.79 89.8867 628.171 89.4707C628.552 89.0374 628.882 88.3181 629.159 87.3127L629.679 87.4427C629.506 88.4481 629.159 89.2974 628.639 89.9907C628.136 90.6841 627.356 91.0307 626.299 91.0307C625.71 91.0307 625.224 90.9527 624.843 90.7967C624.462 90.6581 624.124 90.4501 623.829 90.1727C623.448 89.7741 623.179 89.2974 623.023 88.7427C622.884 88.1881 622.815 87.4514 622.815 86.5327V77.8227H620.319V77.3027H622.815V73.3247C623.248 73.3074 623.664 73.2727 624.063 73.2207C624.462 73.1687 624.826 73.0821 625.155 72.9607ZM634.814 76.9127C635.508 76.9127 636.097 77.0254 636.582 77.2507C637.068 77.4761 637.423 77.6841 637.648 77.8747C638.22 78.3427 638.567 78.0307 638.688 76.9387H639.286C639.252 77.4241 639.226 78.0047 639.208 78.6807C639.191 79.3394 639.182 80.2321 639.182 81.3587H638.584C638.48 80.7174 638.298 80.0934 638.038 79.4867C637.796 78.8801 637.432 78.3861 636.946 78.0047C636.461 77.6061 635.828 77.4067 635.048 77.4067C634.442 77.4067 633.93 77.5801 633.514 77.9267C633.116 78.2561 632.916 78.7501 632.916 79.4087C632.916 79.9287 633.072 80.3794 633.384 80.7607C633.696 81.1247 634.104 81.4714 634.606 81.8007C635.109 82.1127 635.655 82.4594 636.244 82.8407C636.903 83.2567 637.501 83.6814 638.038 84.1147C638.576 84.5481 639 85.0247 639.312 85.5447C639.642 86.0647 639.806 86.6801 639.806 87.3907C639.806 88.1881 639.598 88.8554 639.182 89.3927C638.766 89.9301 638.22 90.3374 637.544 90.6147C636.886 90.8921 636.158 91.0307 635.36 91.0307C634.979 91.0307 634.615 90.9961 634.268 90.9267C633.939 90.8747 633.618 90.7881 633.306 90.6667C633.133 90.5801 632.951 90.4761 632.76 90.3547C632.587 90.2334 632.414 90.1034 632.24 89.9647C632.067 89.8261 631.911 89.8347 631.772 89.9907C631.634 90.1294 631.53 90.4154 631.46 90.8487H630.862C630.897 90.2941 630.923 89.6181 630.94 88.8207C630.958 88.0234 630.966 86.9661 630.966 85.6487H631.564C631.686 86.6194 631.859 87.4687 632.084 88.1967C632.31 88.9247 632.665 89.4967 633.15 89.9127C633.636 90.3114 634.312 90.5107 635.178 90.5107C635.525 90.5107 635.872 90.4327 636.218 90.2767C636.582 90.1207 636.886 89.8607 637.128 89.4967C637.371 89.1327 637.492 88.6474 637.492 88.0407C637.492 87.2781 637.215 86.6541 636.66 86.1687C636.106 85.6834 635.404 85.1721 634.554 84.6347C633.93 84.2361 633.341 83.8374 632.786 83.4387C632.249 83.0401 631.807 82.5894 631.46 82.0867C631.131 81.5841 630.966 80.9774 630.966 80.2667C630.966 79.4867 631.14 78.8541 631.486 78.3687C631.85 77.8661 632.327 77.5021 632.916 77.2767C633.506 77.0341 634.138 76.9127 634.814 76.9127Z" fill="#8D6FC5"/>
</svg>
