<svg width="640" height="95" viewBox="0 0 640 95" fill="none" xmlns="http://www.w3.org/2000/svg">
<path d="M85.5 46C85.5 69.4721 66.4721 88.5 43 88.5C19.5279 88.5 0.5 69.4721 0.5 46C0.5 22.5279 19.5279 3.5 43 3.5C66.4721 3.5 85.5 22.5279 85.5 46Z" fill="white" stroke="#00875F"/>
<path d="M6.3751 46.3119C5.88397 47.0291 6.05496 48.0261 6.75702 48.5387L41.1315 73.6374C41.8336 74.15 42.8008 73.9841 43.292 73.2669C43.7831 72.5496 43.6121 71.5526 42.9101 71.04L8.53556 45.9413C7.8335 45.4287 6.86623 45.5946 6.3751 46.3119Z" fill="#00875F"/>
<rect width="21.7644" height="3.14797" rx="1.57399" transform="matrix(0.807628 0.589693 0.56498 -0.825105 24.7012 24.0669)" fill="#00875F"/>
<rect width="34.8414" height="3.14797" rx="1.57399" transform="matrix(0.807628 0.589693 0.56498 -0.825105 14.7153 35.9373)" fill="#00875F"/>
<rect width="21.6099" height="3.14797" rx="1.57399" transform="matrix(0.807628 -0.589693 0.56498 0.825105 41.28 31.8684)" fill="#00875F"/>
<path d="M42.1693 52.6737C41.6782 51.9564 41.8492 50.9594 42.5512 50.4468L67.8642 31.9645C68.5662 31.4519 69.5335 31.6178 70.0246 32.335C70.5158 33.0523 70.3448 34.0493 69.6427 34.5619L44.3298 53.0442C43.6277 53.5569 42.6604 53.391 42.1693 52.6737Z" fill="#00875F"/>
<path d="M41.28 11.8868C41.28 10.9368 42.0501 10.1667 43 10.1667C43.95 10.1667 44.72 10.9368 44.72 11.8867V85.4167H41.28V11.8868Z" fill="#00875F"/>
<path d="M42.9349 71.1005C42.4438 70.3832 42.6148 69.3862 43.3168 68.8736L76.9302 44.3307C77.6323 43.818 78.5995 43.9839 79.0907 44.7012C79.5818 45.4184 79.4108 46.4154 78.7087 46.9281L45.0954 71.471C44.3933 71.9836 43.4261 71.8177 42.9349 71.1005Z" fill="#00875F"/>
<path d="M110.051 15.054L120.299 41.472C120.719 42.536 121.195 43.25 121.727 43.614C122.259 43.95 122.749 44.132 123.197 44.16V45C122.637 44.944 121.951 44.916 121.139 44.916C120.327 44.888 119.515 44.874 118.703 44.874C117.611 44.874 116.589 44.888 115.637 44.916C114.685 44.916 113.915 44.944 113.327 45V44.16C114.755 44.104 115.665 43.866 116.057 43.446C116.449 42.998 116.365 42.06 115.805 40.632L107.993 19.758L108.665 19.212L101.357 38.196C100.909 39.316 100.643 40.268 100.559 41.052C100.475 41.808 100.545 42.41 100.769 42.858C101.021 43.306 101.427 43.628 101.987 43.824C102.575 44.02 103.303 44.132 104.171 44.16V45C103.387 44.944 102.561 44.916 101.693 44.916C100.853 44.888 100.069 44.874 99.3414 44.874C98.6414 44.874 98.0394 44.888 97.5354 44.916C97.0594 44.916 96.6114 44.944 96.1914 45V44.16C96.7514 44.02 97.3254 43.698 97.9134 43.194C98.5014 42.662 99.0334 41.766 99.5094 40.506L109.379 15.054C109.491 15.054 109.603 15.054 109.715 15.054C109.827 15.054 109.939 15.054 110.051 15.054ZM115.175 32.904V33.744H102.659L103.079 32.904H115.175ZM138.27 22.782C139.334 22.782 140.216 22.922 140.916 23.202C141.644 23.482 142.246 23.874 142.722 24.378C143.254 24.938 143.632 25.638 143.856 26.478C144.08 27.318 144.192 28.452 144.192 29.88V41.094C144.192 42.27 144.43 43.068 144.906 43.488C145.41 43.908 146.236 44.118 147.384 44.118V45C146.908 44.972 146.18 44.944 145.2 44.916C144.22 44.86 143.268 44.832 142.344 44.832C141.42 44.832 140.51 44.86 139.614 44.916C138.746 44.944 138.088 44.972 137.64 45V44.118C138.648 44.118 139.362 43.908 139.782 43.488C140.202 43.068 140.412 42.27 140.412 41.094V28.956C140.412 28.088 140.342 27.29 140.202 26.562C140.062 25.834 139.74 25.246 139.236 24.798C138.76 24.35 138.018 24.126 137.01 24.126C135.834 24.126 134.798 24.462 133.902 25.134C133.034 25.806 132.348 26.73 131.844 27.906C131.368 29.054 131.13 30.342 131.13 31.77V41.094C131.13 42.27 131.34 43.068 131.76 43.488C132.18 43.908 132.894 44.118 133.902 44.118V45C133.454 44.972 132.782 44.944 131.886 44.916C131.018 44.86 130.122 44.832 129.198 44.832C128.274 44.832 127.322 44.86 126.342 44.916C125.362 44.944 124.634 44.972 124.158 45V44.118C125.306 44.118 126.118 43.908 126.594 43.488C127.098 43.068 127.35 42.27 127.35 41.094V27.948C127.35 26.688 127.126 25.764 126.678 25.176C126.23 24.56 125.39 24.252 124.158 24.252V23.37C125.054 23.454 125.922 23.496 126.762 23.496C127.574 23.496 128.344 23.454 129.072 23.37C129.828 23.258 130.514 23.104 131.13 22.908V27.864C131.858 25.96 132.866 24.644 134.154 23.916C135.47 23.16 136.842 22.782 138.27 22.782ZM163.331 22.782C164.395 22.782 165.277 22.922 165.977 23.202C166.705 23.482 167.307 23.874 167.783 24.378C168.315 24.938 168.693 25.638 168.917 26.478C169.141 27.318 169.253 28.452 169.253 29.88V41.094C169.253 42.27 169.491 43.068 169.967 43.488C170.471 43.908 171.297 44.118 172.445 44.118V45C171.969 44.972 171.241 44.944 170.261 44.916C169.281 44.86 168.329 44.832 167.405 44.832C166.481 44.832 165.571 44.86 164.675 44.916C163.807 44.944 163.149 44.972 162.701 45V44.118C163.709 44.118 164.423 43.908 164.843 43.488C165.263 43.068 165.473 42.27 165.473 41.094V28.956C165.473 28.088 165.403 27.29 165.263 26.562C165.123 25.834 164.801 25.246 164.297 24.798C163.821 24.35 163.079 24.126 162.071 24.126C160.895 24.126 159.859 24.462 158.963 25.134C158.095 25.806 157.409 26.73 156.905 27.906C156.429 29.054 156.191 30.342 156.191 31.77V41.094C156.191 42.27 156.401 43.068 156.821 43.488C157.241 43.908 157.955 44.118 158.963 44.118V45C158.515 44.972 157.843 44.944 156.947 44.916C156.079 44.86 155.183 44.832 154.259 44.832C153.335 44.832 152.383 44.86 151.403 44.916C150.423 44.944 149.695 44.972 149.219 45V44.118C150.367 44.118 151.179 43.908 151.655 43.488C152.159 43.068 152.411 42.27 152.411 41.094V27.948C152.411 26.688 152.187 25.764 151.739 25.176C151.291 24.56 150.451 24.252 149.219 24.252V23.37C150.115 23.454 150.983 23.496 151.823 23.496C152.635 23.496 153.405 23.454 154.133 23.37C154.889 23.258 155.575 23.104 156.191 22.908V27.864C156.919 25.96 157.927 24.644 159.215 23.916C160.531 23.16 161.903 22.782 163.331 22.782ZM184.57 22.782C186.362 22.782 187.972 23.174 189.4 23.958C190.828 24.742 191.962 25.974 192.802 27.654C193.67 29.334 194.104 31.518 194.104 34.206C194.104 36.894 193.67 39.078 192.802 40.758C191.962 42.41 190.828 43.628 189.4 44.412C187.972 45.196 186.362 45.588 184.57 45.588C182.806 45.588 181.196 45.196 179.74 44.412C178.312 43.628 177.164 42.41 176.296 40.758C175.456 39.078 175.036 36.894 175.036 34.206C175.036 31.518 175.456 29.334 176.296 27.654C177.164 25.974 178.312 24.742 179.74 23.958C181.196 23.174 182.806 22.782 184.57 22.782ZM184.57 23.622C182.974 23.622 181.658 24.448 180.622 26.1C179.614 27.752 179.11 30.454 179.11 34.206C179.11 37.958 179.614 40.66 180.622 42.312C181.658 43.936 182.974 44.748 184.57 44.748C186.166 44.748 187.468 43.936 188.476 42.312C189.512 40.66 190.03 37.958 190.03 34.206C190.03 30.454 189.512 27.752 188.476 26.1C187.468 24.448 186.166 23.622 184.57 23.622ZM219.131 15.264C219.019 16.328 218.935 17.364 218.879 18.372C218.851 19.352 218.837 20.108 218.837 20.64C218.837 21.312 218.851 21.942 218.879 22.53C218.907 23.118 218.935 23.636 218.963 24.084H217.997C217.801 22.124 217.535 20.584 217.199 19.464C216.863 18.316 216.275 17.49 215.435 16.986C214.595 16.482 213.293 16.23 211.529 16.23H209.261V40.128C209.261 41.248 209.359 42.088 209.555 42.648C209.779 43.208 210.199 43.586 210.815 43.782C211.431 43.978 212.327 44.104 213.503 44.16V45C212.775 44.944 211.851 44.916 210.731 44.916C209.611 44.888 208.477 44.874 207.329 44.874C206.069 44.874 204.879 44.888 203.759 44.916C202.667 44.916 201.785 44.944 201.113 45V44.16C202.289 44.104 203.185 43.978 203.801 43.782C204.417 43.586 204.823 43.208 205.019 42.648C205.243 42.088 205.355 41.248 205.355 40.128V16.23H203.087C201.351 16.23 200.049 16.482 199.181 16.986C198.341 17.49 197.753 18.316 197.417 19.464C197.081 20.584 196.815 22.124 196.619 24.084H195.653C195.709 23.636 195.737 23.118 195.737 22.53C195.765 21.942 195.779 21.312 195.779 20.64C195.779 20.108 195.751 19.352 195.695 18.372C195.667 17.364 195.597 16.328 195.485 15.264C196.661 15.292 197.935 15.32 199.307 15.348C200.707 15.376 202.107 15.39 203.507 15.39C204.907 15.39 206.181 15.39 207.329 15.39C208.477 15.39 209.737 15.39 211.109 15.39C212.509 15.39 213.909 15.376 215.309 15.348C216.709 15.32 217.983 15.292 219.131 15.264ZM243.075 15.264C242.963 16.244 242.879 17.196 242.823 18.12C242.795 19.044 242.781 19.744 242.781 20.22C242.781 20.724 242.795 21.214 242.823 21.69C242.851 22.138 242.879 22.516 242.907 22.824H241.941C241.773 21.172 241.535 19.87 241.227 18.918C240.919 17.938 240.387 17.252 239.631 16.86C238.903 16.44 237.797 16.23 236.313 16.23H232.827C231.875 16.23 231.147 16.314 230.643 16.482C230.167 16.622 229.845 16.944 229.677 17.448C229.509 17.924 229.425 18.68 229.425 19.716V40.548C229.425 41.556 229.509 42.312 229.677 42.816C229.845 43.32 230.167 43.656 230.643 43.824C231.147 43.964 231.875 44.034 232.827 44.034H235.893C237.657 44.034 238.987 43.796 239.883 43.32C240.807 42.844 241.465 42.074 241.857 41.01C242.277 39.918 242.585 38.448 242.781 36.6H243.747C243.663 37.356 243.621 38.364 243.621 39.624C243.621 40.156 243.635 40.926 243.663 41.934C243.719 42.914 243.803 43.936 243.915 45C242.487 44.944 240.877 44.916 239.085 44.916C237.293 44.888 235.697 44.874 234.297 44.874C233.681 44.874 232.883 44.874 231.903 44.874C230.951 44.874 229.915 44.888 228.795 44.916C227.675 44.916 226.541 44.93 225.393 44.958C224.245 44.958 223.153 44.972 222.117 45V44.16C223.069 44.104 223.783 43.992 224.259 43.824C224.763 43.656 225.099 43.32 225.267 42.816C225.435 42.312 225.519 41.556 225.519 40.548V19.716C225.519 18.68 225.435 17.924 225.267 17.448C225.099 16.944 224.763 16.608 224.259 16.44C223.783 16.244 223.069 16.132 222.117 16.104V15.264C223.153 15.292 224.245 15.32 225.393 15.348C226.541 15.348 227.675 15.362 228.795 15.39C229.915 15.39 230.951 15.39 231.903 15.39C232.883 15.39 233.681 15.39 234.297 15.39C235.585 15.39 237.041 15.39 238.665 15.39C240.317 15.362 241.787 15.32 243.075 15.264ZM235.851 29.628C235.851 29.628 235.851 29.768 235.851 30.048C235.851 30.328 235.851 30.468 235.851 30.468H228.165C228.165 30.468 228.165 30.328 228.165 30.048C228.165 29.768 228.165 29.628 228.165 29.628H235.851ZM237.069 24.084C236.957 25.68 236.901 26.898 236.901 27.738C236.929 28.578 236.943 29.348 236.943 30.048C236.943 30.748 236.957 31.518 236.985 32.358C237.013 33.198 237.083 34.416 237.195 36.012H236.229C236.117 35.116 235.977 34.248 235.809 33.408C235.669 32.54 235.333 31.84 234.801 31.308C234.297 30.748 233.429 30.468 232.197 30.468V29.628C233.121 29.628 233.821 29.446 234.297 29.082C234.801 28.69 235.165 28.2 235.389 27.612C235.613 27.024 235.767 26.422 235.851 25.806C235.935 25.162 236.019 24.588 236.103 24.084H237.069ZM247.71 15.264C248.298 15.292 249.068 15.32 250.02 15.348C250.972 15.376 251.91 15.39 252.834 15.39C254.15 15.39 255.41 15.376 256.614 15.348C257.818 15.32 258.672 15.306 259.176 15.306C262.564 15.306 265.098 16.076 266.778 17.616C268.458 19.156 269.298 21.144 269.298 23.58C269.298 24.588 269.13 25.652 268.794 26.772C268.458 27.864 267.87 28.886 267.03 29.838C266.218 30.762 265.098 31.518 263.67 32.106C262.242 32.694 260.436 32.988 258.252 32.988H254.22V32.148H257.832C259.82 32.148 261.332 31.77 262.368 31.014C263.432 30.258 264.146 29.264 264.51 28.032C264.902 26.8 265.098 25.47 265.098 24.042C265.098 21.382 264.566 19.394 263.502 18.078C262.466 16.762 260.674 16.104 258.126 16.104C256.838 16.104 255.998 16.342 255.606 16.818C255.214 17.294 255.018 18.26 255.018 19.716V40.548C255.018 41.556 255.116 42.312 255.312 42.816C255.536 43.32 255.956 43.656 256.572 43.824C257.188 43.992 258.084 44.104 259.26 44.16V45C258.532 44.944 257.608 44.916 256.488 44.916C255.368 44.888 254.234 44.874 253.086 44.874C251.994 44.874 250.972 44.888 250.02 44.916C249.068 44.916 248.298 44.944 247.71 45V44.16C248.662 44.104 249.376 43.992 249.852 43.824C250.356 43.656 250.692 43.32 250.86 42.816C251.028 42.312 251.112 41.556 251.112 40.548V19.716C251.112 18.68 251.028 17.924 250.86 17.448C250.692 16.944 250.356 16.608 249.852 16.44C249.376 16.244 248.662 16.132 247.71 16.104V15.264Z" fill="#00875F"/>
<path d="M104.463 63.1287L110.807 79.4827C111.067 80.1414 111.362 80.5834 111.691 80.8087C112.021 81.0167 112.324 81.1294 112.601 81.1467V81.6667C112.255 81.6321 111.83 81.6147 111.327 81.6147C110.825 81.5974 110.322 81.5887 109.819 81.5887C109.143 81.5887 108.511 81.5974 107.921 81.6147C107.332 81.6147 106.855 81.6321 106.491 81.6667V81.1467C107.375 81.1121 107.939 80.9647 108.181 80.7047C108.424 80.4274 108.372 79.8467 108.025 78.9627L103.189 66.0407L103.605 65.7027L99.0814 77.4547C98.8041 78.1481 98.6394 78.7374 98.5874 79.2227C98.5354 79.6907 98.5788 80.0634 98.7174 80.3407C98.8734 80.6181 99.1248 80.8174 99.4714 80.9387C99.8354 81.0601 100.286 81.1294 100.823 81.1467V81.6667C100.338 81.6321 99.8268 81.6147 99.2894 81.6147C98.7694 81.5974 98.2841 81.5887 97.8334 81.5887C97.4001 81.5887 97.0274 81.5974 96.7154 81.6147C96.4208 81.6147 96.1434 81.6321 95.8834 81.6667V81.1467C96.2301 81.0601 96.5854 80.8607 96.9494 80.5487C97.3134 80.2194 97.6428 79.6647 97.9374 78.8847L104.047 63.1287C104.117 63.1287 104.186 63.1287 104.255 63.1287C104.325 63.1287 104.394 63.1287 104.463 63.1287ZM107.635 74.1787V74.6987H99.8874L100.147 74.1787H107.635ZM121.932 67.9127C122.591 67.9127 123.137 67.9994 123.57 68.1727C124.021 68.3461 124.394 68.5887 124.688 68.9007C125.018 69.2474 125.252 69.6807 125.39 70.2007C125.529 70.7207 125.598 71.4227 125.598 72.3067V79.2487C125.598 79.9767 125.746 80.4707 126.04 80.7307C126.352 80.9907 126.864 81.1207 127.574 81.1207V81.6667C127.28 81.6494 126.829 81.6321 126.222 81.6147C125.616 81.5801 125.026 81.5627 124.454 81.5627C123.882 81.5627 123.319 81.5801 122.764 81.6147C122.227 81.6321 121.82 81.6494 121.542 81.6667V81.1207C122.166 81.1207 122.608 80.9907 122.868 80.7307C123.128 80.4707 123.258 79.9767 123.258 79.2487V71.7347C123.258 71.1974 123.215 70.7034 123.128 70.2527C123.042 69.8021 122.842 69.4381 122.53 69.1607C122.236 68.8834 121.776 68.7447 121.152 68.7447C120.424 68.7447 119.783 68.9527 119.228 69.3687C118.691 69.7847 118.266 70.3567 117.954 71.0847C117.66 71.7954 117.512 72.5927 117.512 73.4767V79.2487C117.512 79.9767 117.642 80.4707 117.902 80.7307C118.162 80.9907 118.604 81.1207 119.228 81.1207V81.6667C118.951 81.6494 118.535 81.6321 117.98 81.6147C117.443 81.5801 116.888 81.5627 116.316 81.5627C115.744 81.5627 115.155 81.5801 114.548 81.6147C113.942 81.6321 113.491 81.6494 113.196 81.6667V81.1207C113.907 81.1207 114.41 80.9907 114.704 80.7307C115.016 80.4707 115.172 79.9767 115.172 79.2487V71.1107C115.172 70.3307 115.034 69.7587 114.756 69.3947C114.479 69.0134 113.959 68.8227 113.196 68.8227V68.2767C113.751 68.3287 114.288 68.3547 114.808 68.3547C115.311 68.3547 115.788 68.3287 116.238 68.2767C116.706 68.2074 117.131 68.1121 117.512 67.9907V71.0587C117.963 69.8801 118.587 69.0654 119.384 68.6147C120.199 68.1467 121.048 67.9127 121.932 67.9127ZM137.446 67.9127C138.105 67.9127 138.651 67.9994 139.084 68.1727C139.535 68.3461 139.907 68.5887 140.202 68.9007C140.531 69.2474 140.765 69.6807 140.904 70.2007C141.043 70.7207 141.112 71.4227 141.112 72.3067V79.2487C141.112 79.9767 141.259 80.4707 141.554 80.7307C141.866 80.9907 142.377 81.1207 143.088 81.1207V81.6667C142.793 81.6494 142.343 81.6321 141.736 81.6147C141.129 81.5801 140.54 81.5627 139.968 81.5627C139.396 81.5627 138.833 81.5801 138.278 81.6147C137.741 81.6321 137.333 81.6494 137.056 81.6667V81.1207C137.68 81.1207 138.122 80.9907 138.382 80.7307C138.642 80.4707 138.772 79.9767 138.772 79.2487V71.7347C138.772 71.1974 138.729 70.7034 138.642 70.2527C138.555 69.8021 138.356 69.4381 138.044 69.1607C137.749 68.8834 137.29 68.7447 136.666 68.7447C135.938 68.7447 135.297 68.9527 134.742 69.3687C134.205 69.7847 133.78 70.3567 133.468 71.0847C133.173 71.7954 133.026 72.5927 133.026 73.4767V79.2487C133.026 79.9767 133.156 80.4707 133.416 80.7307C133.676 80.9907 134.118 81.1207 134.742 81.1207V81.6667C134.465 81.6494 134.049 81.6321 133.494 81.6147C132.957 81.5801 132.402 81.5627 131.83 81.5627C131.258 81.5627 130.669 81.5801 130.062 81.6147C129.455 81.6321 129.005 81.6494 128.71 81.6667V81.1207C129.421 81.1207 129.923 80.9907 130.218 80.7307C130.53 80.4707 130.686 79.9767 130.686 79.2487V71.1107C130.686 70.3307 130.547 69.7587 130.27 69.3947C129.993 69.0134 129.473 68.8227 128.71 68.8227V68.2767C129.265 68.3287 129.802 68.3547 130.322 68.3547C130.825 68.3547 131.301 68.3287 131.752 68.2767C132.22 68.2074 132.645 68.1121 133.026 67.9907V71.0587C133.477 69.8801 134.101 69.0654 134.898 68.6147C135.713 68.1467 136.562 67.9127 137.446 67.9127ZM150.594 67.9127C151.703 67.9127 152.7 68.1554 153.584 68.6407C154.468 69.1261 155.17 69.8887 155.69 70.9287C156.227 71.9687 156.496 73.3207 156.496 74.9847C156.496 76.6487 156.227 78.0007 155.69 79.0407C155.17 80.0634 154.468 80.8174 153.584 81.3027C152.7 81.7881 151.703 82.0307 150.594 82.0307C149.502 82.0307 148.505 81.7881 147.604 81.3027C146.72 80.8174 146.009 80.0634 145.472 79.0407C144.952 78.0007 144.692 76.6487 144.692 74.9847C144.692 73.3207 144.952 71.9687 145.472 70.9287C146.009 69.8887 146.72 69.1261 147.604 68.6407C148.505 68.1554 149.502 67.9127 150.594 67.9127ZM150.594 68.4327C149.606 68.4327 148.791 68.9441 148.15 69.9667C147.526 70.9894 147.214 72.6621 147.214 74.9847C147.214 77.3074 147.526 78.9801 148.15 80.0027C148.791 81.0081 149.606 81.5107 150.594 81.5107C151.582 81.5107 152.388 81.0081 153.012 80.0027C153.653 78.9801 153.974 77.3074 153.974 74.9847C153.974 72.6621 153.653 70.9894 153.012 69.9667C152.388 68.9441 151.582 68.4327 150.594 68.4327ZM162.654 63.9607V68.3027H166.502V68.8227H162.654V78.8847C162.654 79.6994 162.801 80.2714 163.096 80.6007C163.391 80.9301 163.798 81.0947 164.318 81.0947C164.838 81.0947 165.289 80.8867 165.67 80.4707C166.051 80.0374 166.381 79.3181 166.658 78.3127L167.178 78.4427C167.005 79.4481 166.658 80.2974 166.138 80.9907C165.635 81.6841 164.855 82.0307 163.798 82.0307C163.209 82.0307 162.723 81.9527 162.342 81.7967C161.961 81.6581 161.623 81.4501 161.328 81.1727C160.947 80.7741 160.678 80.2974 160.522 79.7427C160.383 79.1881 160.314 78.4514 160.314 77.5327V68.8227H157.818V68.3027H160.314V64.3247C160.747 64.3074 161.163 64.2727 161.562 64.2207C161.961 64.1687 162.325 64.0821 162.654 63.9607ZM171.351 81.8487C170.641 81.8487 170.025 81.7187 169.505 81.4587C168.985 81.1814 168.587 80.8001 168.309 80.3147C168.049 79.8294 167.919 79.2661 167.919 78.6247C167.919 77.8621 168.093 77.2381 168.439 76.7527C168.803 76.2674 169.263 75.8774 169.817 75.5827C170.372 75.2881 170.953 75.0454 171.559 74.8547C172.183 74.6467 172.773 74.4561 173.327 74.2827C173.882 74.0921 174.333 73.8754 174.679 73.6327C175.043 73.3901 175.225 73.0694 175.225 72.6707V71.0587C175.225 70.3307 175.113 69.7761 174.887 69.3947C174.679 69.0134 174.393 68.7621 174.029 68.6407C173.665 68.5021 173.258 68.4327 172.807 68.4327C172.374 68.4327 171.906 68.4934 171.403 68.6147C170.918 68.7361 170.528 68.9874 170.233 69.3687C170.563 69.4381 170.849 69.6114 171.091 69.8887C171.334 70.1661 171.455 70.5214 171.455 70.9547C171.455 71.3881 171.317 71.7347 171.039 71.9947C170.762 72.2374 170.407 72.3587 169.973 72.3587C169.471 72.3587 169.098 72.2027 168.855 71.8907C168.63 71.5614 168.517 71.1974 168.517 70.7987C168.517 70.3481 168.63 69.9841 168.855 69.7067C169.081 69.4294 169.367 69.1694 169.713 68.9267C170.112 68.6494 170.623 68.4154 171.247 68.2247C171.889 68.0167 172.608 67.9127 173.405 67.9127C174.116 67.9127 174.723 67.9994 175.225 68.1727C175.728 68.3287 176.144 68.5627 176.473 68.8747C176.924 69.2907 177.219 69.8021 177.357 70.4087C177.496 70.9981 177.565 71.7087 177.565 72.5407V79.7687C177.565 80.2021 177.626 80.5141 177.747 80.7047C177.886 80.8954 178.094 80.9907 178.371 80.9907C178.562 80.9907 178.744 80.9474 178.917 80.8607C179.091 80.7741 179.299 80.6354 179.541 80.4447L179.827 80.8867C179.463 81.1641 179.117 81.3981 178.787 81.5887C178.458 81.7621 178.016 81.8487 177.461 81.8487C176.959 81.8487 176.543 81.7621 176.213 81.5887C175.884 81.4154 175.633 81.1641 175.459 80.8347C175.303 80.4881 175.225 80.0547 175.225 79.5347C174.757 80.3147 174.194 80.8954 173.535 81.2767C172.894 81.6581 172.166 81.8487 171.351 81.8487ZM172.287 80.8087C172.859 80.8087 173.388 80.6441 173.873 80.3147C174.376 79.9854 174.827 79.4914 175.225 78.8327V73.7367C175.017 74.0314 174.714 74.2827 174.315 74.4907C173.917 74.6814 173.483 74.8807 173.015 75.0887C172.547 75.2794 172.097 75.5134 171.663 75.7907C171.247 76.0507 170.901 76.3974 170.623 76.8307C170.346 77.2641 170.207 77.8274 170.207 78.5207C170.207 79.2141 170.389 79.7687 170.753 80.1847C171.135 80.6007 171.646 80.8087 172.287 80.8087ZM184.794 63.9607V68.3027H188.642V68.8227H184.794V78.8847C184.794 79.6994 184.942 80.2714 185.236 80.6007C185.531 80.9301 185.938 81.0947 186.458 81.0947C186.978 81.0947 187.429 80.8867 187.81 80.4707C188.192 80.0374 188.521 79.3181 188.798 78.3127L189.318 78.4427C189.145 79.4481 188.798 80.2974 188.278 80.9907C187.776 81.6841 186.996 82.0307 185.938 82.0307C185.349 82.0307 184.864 81.9527 184.482 81.7967C184.101 81.6581 183.763 81.4501 183.468 81.1727C183.087 80.7741 182.818 80.2974 182.662 79.7427C182.524 79.1881 182.454 78.4514 182.454 77.5327V68.8227H179.958V68.3027H182.454V64.3247C182.888 64.3074 183.304 64.2727 183.702 64.2207C184.101 64.1687 184.465 64.0821 184.794 63.9607ZM192.764 61.7767C193.215 61.7767 193.605 61.9414 193.934 62.2707C194.263 62.6001 194.428 62.9901 194.428 63.4407C194.428 63.8914 194.263 64.2814 193.934 64.6107C193.605 64.9401 193.215 65.1047 192.764 65.1047C192.313 65.1047 191.923 64.9401 191.594 64.6107C191.265 64.2814 191.1 63.8914 191.1 63.4407C191.1 62.9901 191.265 62.6001 191.594 62.2707C191.923 61.9414 192.313 61.7767 192.764 61.7767ZM194.116 67.9907V79.2487C194.116 79.9767 194.263 80.4707 194.558 80.7307C194.87 80.9907 195.381 81.1207 196.092 81.1207V81.6667C195.797 81.6494 195.347 81.6321 194.74 81.6147C194.151 81.5801 193.553 81.5627 192.946 81.5627C192.357 81.5627 191.759 81.5801 191.152 81.6147C190.545 81.6321 190.095 81.6494 189.8 81.6667V81.1207C190.511 81.1207 191.013 80.9907 191.308 80.7307C191.62 80.4707 191.776 79.9767 191.776 79.2487V71.1107C191.776 70.3307 191.637 69.7587 191.36 69.3947C191.083 69.0134 190.563 68.8227 189.8 68.8227V68.2767C190.355 68.3287 190.892 68.3547 191.412 68.3547C191.915 68.3547 192.391 68.3287 192.842 68.2767C193.31 68.2074 193.735 68.1121 194.116 67.9907ZM203.787 67.9127C204.896 67.9127 205.893 68.1554 206.777 68.6407C207.661 69.1261 208.363 69.8887 208.883 70.9287C209.42 71.9687 209.689 73.3207 209.689 74.9847C209.689 76.6487 209.42 78.0007 208.883 79.0407C208.363 80.0634 207.661 80.8174 206.777 81.3027C205.893 81.7881 204.896 82.0307 203.787 82.0307C202.695 82.0307 201.698 81.7881 200.797 81.3027C199.913 80.8174 199.202 80.0634 198.665 79.0407C198.145 78.0007 197.885 76.6487 197.885 74.9847C197.885 73.3207 198.145 71.9687 198.665 70.9287C199.202 69.8887 199.913 69.1261 200.797 68.6407C201.698 68.1554 202.695 67.9127 203.787 67.9127ZM203.787 68.4327C202.799 68.4327 201.984 68.9441 201.343 69.9667C200.719 70.9894 200.407 72.6621 200.407 74.9847C200.407 77.3074 200.719 78.9801 201.343 80.0027C201.984 81.0081 202.799 81.5107 203.787 81.5107C204.775 81.5107 205.581 81.0081 206.205 80.0027C206.846 78.9801 207.167 77.3074 207.167 74.9847C207.167 72.6621 206.846 70.9894 206.205 69.9667C205.581 68.9441 204.775 68.4327 203.787 68.4327ZM220.397 67.9127C221.056 67.9127 221.602 67.9994 222.035 68.1727C222.486 68.3461 222.859 68.5887 223.153 68.9007C223.483 69.2474 223.717 69.6807 223.855 70.2007C223.994 70.7207 224.063 71.4227 224.063 72.3067V79.2487C224.063 79.9767 224.211 80.4707 224.505 80.7307C224.817 80.9907 225.329 81.1207 226.039 81.1207V81.6667C225.745 81.6494 225.294 81.6321 224.687 81.6147C224.081 81.5801 223.491 81.5627 222.919 81.5627C222.347 81.5627 221.784 81.5801 221.229 81.6147C220.692 81.6321 220.285 81.6494 220.007 81.6667V81.1207C220.631 81.1207 221.073 80.9907 221.333 80.7307C221.593 80.4707 221.723 79.9767 221.723 79.2487V71.7347C221.723 71.1974 221.68 70.7034 221.593 70.2527C221.507 69.8021 221.307 69.4381 220.995 69.1607C220.701 68.8834 220.241 68.7447 219.617 68.7447C218.889 68.7447 218.248 68.9527 217.693 69.3687C217.156 69.7847 216.731 70.3567 216.419 71.0847C216.125 71.7954 215.977 72.5927 215.977 73.4767V79.2487C215.977 79.9767 216.107 80.4707 216.367 80.7307C216.627 80.9907 217.069 81.1207 217.693 81.1207V81.6667C217.416 81.6494 217 81.6321 216.445 81.6147C215.908 81.5801 215.353 81.5627 214.781 81.5627C214.209 81.5627 213.62 81.5801 213.013 81.6147C212.407 81.6321 211.956 81.6494 211.661 81.6667V81.1207C212.372 81.1207 212.875 80.9907 213.169 80.7307C213.481 80.4707 213.637 79.9767 213.637 79.2487V71.1107C213.637 70.3307 213.499 69.7587 213.221 69.3947C212.944 69.0134 212.424 68.8227 211.661 68.8227V68.2767C212.216 68.3287 212.753 68.3547 213.273 68.3547C213.776 68.3547 214.253 68.3287 214.703 68.2767C215.171 68.2074 215.596 68.1121 215.977 67.9907V71.0587C216.428 69.8801 217.052 69.0654 217.849 68.6147C218.664 68.1467 219.513 67.9127 220.397 67.9127ZM240.02 67.9127C241.129 67.9127 242.126 68.1554 243.01 68.6407C243.894 69.1261 244.596 69.8887 245.116 70.9287C245.653 71.9687 245.922 73.3207 245.922 74.9847C245.922 76.6487 245.653 78.0007 245.116 79.0407C244.596 80.0634 243.894 80.8174 243.01 81.3027C242.126 81.7881 241.129 82.0307 240.02 82.0307C238.928 82.0307 237.931 81.7881 237.03 81.3027C236.146 80.8174 235.435 80.0634 234.898 79.0407C234.378 78.0007 234.118 76.6487 234.118 74.9847C234.118 73.3207 234.378 71.9687 234.898 70.9287C235.435 69.8887 236.146 69.1261 237.03 68.6407C237.931 68.1554 238.928 67.9127 240.02 67.9127ZM240.02 68.4327C239.032 68.4327 238.217 68.9441 237.576 69.9667C236.952 70.9894 236.64 72.6621 236.64 74.9847C236.64 77.3074 236.952 78.9801 237.576 80.0027C238.217 81.0081 239.032 81.5107 240.02 81.5107C241.008 81.5107 241.814 81.0081 242.438 80.0027C243.079 78.9801 243.4 77.3074 243.4 74.9847C243.4 72.6621 243.079 70.9894 242.438 69.9667C241.814 68.9441 241.008 68.4327 240.02 68.4327ZM254.316 61.3347C254.801 61.3347 255.226 61.4041 255.59 61.5427C255.971 61.6641 256.3 61.8287 256.578 62.0367C256.838 62.2447 257.037 62.4874 257.176 62.7647C257.314 63.0421 257.384 63.3367 257.384 63.6487C257.384 64.0474 257.254 64.3767 256.994 64.6367C256.734 64.8967 256.404 65.0267 256.006 65.0267C255.624 65.0267 255.286 64.9054 254.992 64.6627C254.714 64.4027 254.576 64.0561 254.576 63.6227C254.576 63.2587 254.671 62.9641 254.862 62.7387C255.07 62.5134 255.338 62.3661 255.668 62.2967C255.616 62.1407 255.477 62.0107 255.252 61.9067C255.044 61.7854 254.758 61.7247 254.394 61.7247C253.995 61.7247 253.648 61.8114 253.354 61.9847C253.076 62.1581 252.86 62.3921 252.704 62.6867C252.496 63.0507 252.366 63.5967 252.314 64.3247C252.262 65.0354 252.236 66.1361 252.236 67.6267V68.3027H255.018V68.8227H252.236V78.9887C252.236 79.8381 252.478 80.4101 252.964 80.7047C253.466 80.9821 254.142 81.1207 254.992 81.1207V81.6667C254.593 81.6494 254.03 81.6321 253.302 81.6147C252.574 81.5801 251.802 81.5627 250.988 81.5627C250.398 81.5627 249.809 81.5801 249.22 81.6147C248.648 81.6321 248.214 81.6494 247.92 81.6667V81.1207C248.63 81.1207 249.133 80.9907 249.428 80.7307C249.74 80.4707 249.896 79.9767 249.896 79.2487V68.8227H247.816V68.3027H249.896C249.896 67.2801 249.939 66.4221 250.026 65.7287C250.112 65.0354 250.251 64.4461 250.442 63.9607C250.632 63.4581 250.892 63.0161 251.222 62.6347C251.568 62.2361 252.01 61.9241 252.548 61.6987C253.085 61.4561 253.674 61.3347 254.316 61.3347ZM277.004 63.2587C276.935 63.9174 276.883 64.5587 276.848 65.1827C276.831 65.7894 276.822 66.2574 276.822 66.5867C276.822 67.0027 276.831 67.3927 276.848 67.7567C276.866 68.1207 276.883 68.4414 276.9 68.7187H276.302C276.181 67.5054 276.016 66.5521 275.808 65.8587C275.6 65.1481 275.236 64.6367 274.716 64.3247C274.196 64.0127 273.39 63.8567 272.298 63.8567H270.894V78.6507C270.894 79.3441 270.955 79.8641 271.076 80.2107C271.215 80.5574 271.475 80.7914 271.856 80.9127C272.238 81.0341 272.792 81.1121 273.52 81.1467V81.6667C273.07 81.6321 272.498 81.6147 271.804 81.6147C271.111 81.5974 270.409 81.5887 269.698 81.5887C268.918 81.5887 268.182 81.5974 267.488 81.6147C266.812 81.6147 266.266 81.6321 265.85 81.6667V81.1467C266.578 81.1121 267.133 81.0341 267.514 80.9127C267.896 80.7914 268.147 80.5574 268.268 80.2107C268.407 79.8641 268.476 79.3441 268.476 78.6507V63.8567H267.072C265.998 63.8567 265.192 64.0127 264.654 64.3247C264.134 64.6367 263.77 65.1481 263.562 65.8587C263.354 66.5521 263.19 67.5054 263.068 68.7187H262.47C262.505 68.4414 262.522 68.1207 262.522 67.7567C262.54 67.3927 262.548 67.0027 262.548 66.5867C262.548 66.2574 262.531 65.7894 262.496 65.1827C262.479 64.5587 262.436 63.9174 262.366 63.2587C263.094 63.2761 263.883 63.2934 264.732 63.3107C265.599 63.3281 266.466 63.3367 267.332 63.3367C268.199 63.3367 268.988 63.3367 269.698 63.3367C270.409 63.3367 271.189 63.3367 272.038 63.3367C272.905 63.3367 273.772 63.3281 274.638 63.3107C275.505 63.2934 276.294 63.2761 277.004 63.2587ZM286.601 67.9127C287.069 67.9127 287.476 68.0081 287.823 68.1987C288.187 68.3894 288.464 68.6407 288.655 68.9527C288.863 69.2474 288.967 69.5854 288.967 69.9667C288.967 70.4001 288.828 70.7814 288.551 71.1107C288.291 71.4401 287.935 71.6047 287.485 71.6047C287.121 71.6047 286.8 71.4921 286.523 71.2667C286.245 71.0241 286.107 70.6861 286.107 70.2527C286.107 69.9234 286.193 69.6461 286.367 69.4207C286.557 69.1781 286.765 68.9874 286.991 68.8487C286.869 68.6754 286.687 68.5887 286.445 68.5887C285.907 68.5887 285.413 68.7534 284.963 69.0827C284.512 69.3947 284.131 69.8021 283.819 70.3047C283.507 70.8074 283.264 71.3447 283.091 71.9167C282.917 72.4714 282.831 72.9914 282.831 73.4767V78.9887C282.831 79.8381 283.073 80.4101 283.559 80.7047C284.061 80.9821 284.737 81.1207 285.587 81.1207V81.6667C285.188 81.6494 284.625 81.6321 283.897 81.6147C283.169 81.5801 282.397 81.5627 281.583 81.5627C280.993 81.5627 280.404 81.5801 279.815 81.6147C279.243 81.6321 278.809 81.6494 278.515 81.6667V81.1207C279.225 81.1207 279.728 80.9907 280.023 80.7307C280.335 80.4707 280.491 79.9767 280.491 79.2487V71.1107C280.491 70.3307 280.352 69.7587 280.075 69.3947C279.797 69.0134 279.277 68.8227 278.515 68.8227V68.2767C279.069 68.3287 279.607 68.3547 280.127 68.3547C280.629 68.3547 281.106 68.3287 281.557 68.2767C282.025 68.2074 282.449 68.1121 282.831 67.9907V71.2407C283.021 70.7381 283.29 70.2354 283.637 69.7327C284.001 69.2127 284.434 68.7794 284.937 68.4327C285.439 68.0861 285.994 67.9127 286.601 67.9127ZM293.785 81.8487C293.074 81.8487 292.459 81.7187 291.939 81.4587C291.419 81.1814 291.02 80.8001 290.743 80.3147C290.483 79.8294 290.353 79.2661 290.353 78.6247C290.353 77.8621 290.526 77.2381 290.873 76.7527C291.237 76.2674 291.696 75.8774 292.251 75.5827C292.806 75.2881 293.386 75.0454 293.993 74.8547C294.617 74.6467 295.206 74.4561 295.761 74.2827C296.316 74.0921 296.766 73.8754 297.113 73.6327C297.477 73.3901 297.659 73.0694 297.659 72.6707V71.0587C297.659 70.3307 297.546 69.7761 297.321 69.3947C297.113 69.0134 296.827 68.7621 296.463 68.6407C296.099 68.5021 295.692 68.4327 295.241 68.4327C294.808 68.4327 294.34 68.4934 293.837 68.6147C293.352 68.7361 292.962 68.9874 292.667 69.3687C292.996 69.4381 293.282 69.6114 293.525 69.8887C293.768 70.1661 293.889 70.5214 293.889 70.9547C293.889 71.3881 293.75 71.7347 293.473 71.9947C293.196 72.2374 292.84 72.3587 292.407 72.3587C291.904 72.3587 291.532 72.2027 291.289 71.8907C291.064 71.5614 290.951 71.1974 290.951 70.7987C290.951 70.3481 291.064 69.9841 291.289 69.7067C291.514 69.4294 291.8 69.1694 292.147 68.9267C292.546 68.6494 293.057 68.4154 293.681 68.2247C294.322 68.0167 295.042 67.9127 295.839 67.9127C296.55 67.9127 297.156 67.9994 297.659 68.1727C298.162 68.3287 298.578 68.5627 298.907 68.8747C299.358 69.2907 299.652 69.8021 299.791 70.4087C299.93 70.9981 299.999 71.7087 299.999 72.5407V79.7687C299.999 80.2021 300.06 80.5141 300.181 80.7047C300.32 80.8954 300.528 80.9907 300.805 80.9907C300.996 80.9907 301.178 80.9474 301.351 80.8607C301.524 80.7741 301.732 80.6354 301.975 80.4447L302.261 80.8867C301.897 81.1641 301.55 81.3981 301.221 81.5887C300.892 81.7621 300.45 81.8487 299.895 81.8487C299.392 81.8487 298.976 81.7621 298.647 81.5887C298.318 81.4154 298.066 81.1641 297.893 80.8347C297.737 80.4881 297.659 80.0547 297.659 79.5347C297.191 80.3147 296.628 80.8954 295.969 81.2767C295.328 81.6581 294.6 81.8487 293.785 81.8487ZM294.721 80.8087C295.293 80.8087 295.822 80.6441 296.307 80.3147C296.81 79.9854 297.26 79.4914 297.659 78.8327V73.7367C297.451 74.0314 297.148 74.2827 296.749 74.4907C296.35 74.6814 295.917 74.8807 295.449 75.0887C294.981 75.2794 294.53 75.5134 294.097 75.7907C293.681 76.0507 293.334 76.3974 293.057 76.8307C292.78 77.2641 292.641 77.8274 292.641 78.5207C292.641 79.2141 292.823 79.7687 293.187 80.1847C293.568 80.6007 294.08 80.8087 294.721 80.8087ZM311.778 67.9127C312.437 67.9127 312.983 67.9994 313.416 68.1727C313.867 68.3461 314.239 68.5887 314.534 68.9007C314.863 69.2474 315.097 69.6807 315.236 70.2007C315.375 70.7207 315.444 71.4227 315.444 72.3067V79.2487C315.444 79.9767 315.591 80.4707 315.886 80.7307C316.198 80.9907 316.709 81.1207 317.42 81.1207V81.6667C317.125 81.6494 316.675 81.6321 316.068 81.6147C315.461 81.5801 314.872 81.5627 314.3 81.5627C313.728 81.5627 313.165 81.5801 312.61 81.6147C312.073 81.6321 311.665 81.6494 311.388 81.6667V81.1207C312.012 81.1207 312.454 80.9907 312.714 80.7307C312.974 80.4707 313.104 79.9767 313.104 79.2487V71.7347C313.104 71.1974 313.061 70.7034 312.974 70.2527C312.887 69.8021 312.688 69.4381 312.376 69.1607C312.081 68.8834 311.622 68.7447 310.998 68.7447C310.27 68.7447 309.629 68.9527 309.074 69.3687C308.537 69.7847 308.112 70.3567 307.8 71.0847C307.505 71.7954 307.358 72.5927 307.358 73.4767V79.2487C307.358 79.9767 307.488 80.4707 307.748 80.7307C308.008 80.9907 308.45 81.1207 309.074 81.1207V81.6667C308.797 81.6494 308.381 81.6321 307.826 81.6147C307.289 81.5801 306.734 81.5627 306.162 81.5627C305.59 81.5627 305.001 81.5801 304.394 81.6147C303.787 81.6321 303.337 81.6494 303.042 81.6667V81.1207C303.753 81.1207 304.255 80.9907 304.55 80.7307C304.862 80.4707 305.018 79.9767 305.018 79.2487V71.1107C305.018 70.3307 304.879 69.7587 304.602 69.3947C304.325 69.0134 303.805 68.8227 303.042 68.8227V68.2767C303.597 68.3287 304.134 68.3547 304.654 68.3547C305.157 68.3547 305.633 68.3287 306.084 68.2767C306.552 68.2074 306.977 68.1121 307.358 67.9907V71.0587C307.809 69.8801 308.433 69.0654 309.23 68.6147C310.045 68.1467 310.894 67.9127 311.778 67.9127ZM323.21 67.9127C323.903 67.9127 324.492 68.0254 324.978 68.2507C325.463 68.4761 325.818 68.6841 326.044 68.8747C326.616 69.3427 326.962 69.0307 327.084 67.9387H327.682C327.647 68.4241 327.621 69.0047 327.604 69.6807C327.586 70.3394 327.578 71.2321 327.578 72.3587H326.98C326.876 71.7174 326.694 71.0934 326.434 70.4867C326.191 69.8801 325.827 69.3861 325.342 69.0047C324.856 68.6061 324.224 68.4067 323.444 68.4067C322.837 68.4067 322.326 68.5801 321.91 68.9267C321.511 69.2561 321.312 69.7501 321.312 70.4087C321.312 70.9287 321.468 71.3794 321.78 71.7607C322.092 72.1247 322.499 72.4714 323.002 72.8007C323.504 73.1127 324.05 73.4594 324.64 73.8407C325.298 74.2567 325.896 74.6814 326.434 75.1147C326.971 75.5481 327.396 76.0247 327.708 76.5447C328.037 77.0647 328.202 77.6801 328.202 78.3907C328.202 79.1881 327.994 79.8554 327.578 80.3927C327.162 80.9301 326.616 81.3374 325.94 81.6147C325.281 81.8921 324.553 82.0307 323.756 82.0307C323.374 82.0307 323.01 81.9961 322.664 81.9267C322.334 81.8747 322.014 81.7881 321.702 81.6667C321.528 81.5801 321.346 81.4761 321.156 81.3547C320.982 81.2334 320.809 81.1034 320.636 80.9647C320.462 80.8261 320.306 80.8347 320.168 80.9907C320.029 81.1294 319.925 81.4154 319.856 81.8487H319.258C319.292 81.2941 319.318 80.6181 319.336 79.8207C319.353 79.0234 319.362 77.9661 319.362 76.6487H319.96C320.081 77.6194 320.254 78.4687 320.48 79.1967C320.705 79.9247 321.06 80.4967 321.546 80.9127C322.031 81.3114 322.707 81.5107 323.574 81.5107C323.92 81.5107 324.267 81.4327 324.614 81.2767C324.978 81.1207 325.281 80.8607 325.524 80.4967C325.766 80.1327 325.888 79.6474 325.888 79.0407C325.888 78.2781 325.61 77.6541 325.056 77.1687C324.501 76.6834 323.799 76.1721 322.95 75.6347C322.326 75.2361 321.736 74.8374 321.182 74.4387C320.644 74.0401 320.202 73.5894 319.856 73.0867C319.526 72.5841 319.362 71.9774 319.362 71.2667C319.362 70.4867 319.535 69.8541 319.882 69.3687C320.246 68.8661 320.722 68.5021 321.312 68.2767C321.901 68.0341 322.534 67.9127 323.21 67.9127ZM334.319 67.9907V83.9547C334.319 84.7001 334.535 85.1941 334.969 85.4367C335.419 85.6967 336.035 85.8267 336.815 85.8267V86.3727C336.433 86.3554 335.905 86.3294 335.229 86.2947C334.553 86.2774 333.833 86.2687 333.071 86.2687C332.533 86.2687 331.996 86.2774 331.459 86.2947C330.939 86.3294 330.54 86.3554 330.263 86.3727V85.8267C330.887 85.8267 331.329 85.7141 331.589 85.4887C331.849 85.2634 331.979 84.8387 331.979 84.2147V71.1107C331.979 70.3307 331.84 69.7587 331.563 69.3947C331.285 69.0134 330.765 68.8227 330.003 68.8227V68.2767C330.557 68.3287 331.095 68.3547 331.615 68.3547C332.117 68.3547 332.594 68.3287 333.045 68.2767C333.513 68.2074 333.937 68.1121 334.319 67.9907ZM338.479 67.9127C339.397 67.9127 340.221 68.1641 340.949 68.6667C341.677 69.1521 342.249 69.8714 342.665 70.8247C343.098 71.7781 343.315 72.9567 343.315 74.3607C343.315 75.2967 343.202 76.2241 342.977 77.1427C342.751 78.0441 342.396 78.8674 341.911 79.6127C341.443 80.3407 340.827 80.9301 340.065 81.3807C339.319 81.8141 338.418 82.0307 337.361 82.0307C336.546 82.0307 335.835 81.8401 335.229 81.4587C334.639 81.0774 334.241 80.6181 334.033 80.0807L334.293 79.7167C334.535 80.2021 334.882 80.6094 335.333 80.9387C335.801 81.2681 336.381 81.4327 337.075 81.4327C338.045 81.4327 338.799 81.1294 339.337 80.5227C339.874 79.9161 340.247 79.1101 340.455 78.1047C340.68 77.0821 340.793 75.9554 340.793 74.7247C340.793 73.3381 340.68 72.2027 340.455 71.3187C340.229 70.4347 339.891 69.7761 339.441 69.3427C338.99 68.9094 338.435 68.6927 337.777 68.6927C336.927 68.6927 336.156 69.0481 335.463 69.7587C334.769 70.4521 334.327 71.5094 334.137 72.9307L333.825 72.5667C334.015 71.0934 334.535 69.9494 335.385 69.1347C336.251 68.3201 337.283 67.9127 338.479 67.9127ZM351.662 67.9127C352.771 67.9127 353.768 68.1554 354.652 68.6407C355.536 69.1261 356.238 69.8887 356.758 70.9287C357.295 71.9687 357.564 73.3207 357.564 74.9847C357.564 76.6487 357.295 78.0007 356.758 79.0407C356.238 80.0634 355.536 80.8174 354.652 81.3027C353.768 81.7881 352.771 82.0307 351.662 82.0307C350.57 82.0307 349.573 81.7881 348.672 81.3027C347.788 80.8174 347.077 80.0634 346.54 79.0407C346.02 78.0007 345.76 76.6487 345.76 74.9847C345.76 73.3207 346.02 71.9687 346.54 70.9287C347.077 69.8887 347.788 69.1261 348.672 68.6407C349.573 68.1554 350.57 67.9127 351.662 67.9127ZM351.662 68.4327C350.674 68.4327 349.859 68.9441 349.218 69.9667C348.594 70.9894 348.282 72.6621 348.282 74.9847C348.282 77.3074 348.594 78.9801 349.218 80.0027C349.859 81.0081 350.674 81.5107 351.662 81.5107C352.65 81.5107 353.456 81.0081 354.08 80.0027C354.721 78.9801 355.042 77.3074 355.042 74.9847C355.042 72.6621 354.721 70.9894 354.08 69.9667C353.456 68.9441 352.65 68.4327 351.662 68.4327ZM364.19 67.9127C364.884 67.9127 365.473 68.0254 365.958 68.2507C366.444 68.4761 366.799 68.6841 367.024 68.8747C367.596 69.3427 367.943 69.0307 368.064 67.9387H368.662C368.628 68.4241 368.602 69.0047 368.584 69.6807C368.567 70.3394 368.558 71.2321 368.558 72.3587H367.96C367.856 71.7174 367.674 71.0934 367.414 70.4867C367.172 69.8801 366.808 69.3861 366.322 69.0047C365.837 68.6061 365.204 68.4067 364.424 68.4067C363.818 68.4067 363.306 68.5801 362.89 68.9267C362.492 69.2561 362.292 69.7501 362.292 70.4087C362.292 70.9287 362.448 71.3794 362.76 71.7607C363.072 72.1247 363.48 72.4714 363.982 72.8007C364.485 73.1127 365.031 73.4594 365.62 73.8407C366.279 74.2567 366.877 74.6814 367.414 75.1147C367.952 75.5481 368.376 76.0247 368.688 76.5447C369.018 77.0647 369.182 77.6801 369.182 78.3907C369.182 79.1881 368.974 79.8554 368.558 80.3927C368.142 80.9301 367.596 81.3374 366.92 81.6147C366.262 81.8921 365.534 82.0307 364.736 82.0307C364.355 82.0307 363.991 81.9961 363.644 81.9267C363.315 81.8747 362.994 81.7881 362.682 81.6667C362.509 81.5801 362.327 81.4761 362.136 81.3547C361.963 81.2334 361.79 81.1034 361.616 80.9647C361.443 80.8261 361.287 80.8347 361.148 80.9907C361.01 81.1294 360.906 81.4154 360.836 81.8487H360.238C360.273 81.2941 360.299 80.6181 360.316 79.8207C360.334 79.0234 360.342 77.9661 360.342 76.6487H360.94C361.062 77.6194 361.235 78.4687 361.46 79.1967C361.686 79.9247 362.041 80.4967 362.526 80.9127C363.012 81.3114 363.688 81.5107 364.554 81.5107C364.901 81.5107 365.248 81.4327 365.594 81.2767C365.958 81.1207 366.262 80.8607 366.504 80.4967C366.747 80.1327 366.868 79.6474 366.868 79.0407C366.868 78.2781 366.591 77.6541 366.036 77.1687C365.482 76.6834 364.78 76.1721 363.93 75.6347C363.306 75.2361 362.717 74.8374 362.162 74.4387C361.625 74.0401 361.183 73.5894 360.836 73.0867C360.507 72.5841 360.342 71.9774 360.342 71.2667C360.342 70.4867 360.516 69.8541 360.862 69.3687C361.226 68.8661 361.703 68.5021 362.292 68.2767C362.882 68.0341 363.514 67.9127 364.19 67.9127ZM374.857 81.8487C374.146 81.8487 373.531 81.7187 373.011 81.4587C372.491 81.1814 372.092 80.8001 371.815 80.3147C371.555 79.8294 371.425 79.2661 371.425 78.6247C371.425 77.8621 371.598 77.2381 371.945 76.7527C372.309 76.2674 372.768 75.8774 373.323 75.5827C373.878 75.2881 374.458 75.0454 375.065 74.8547C375.689 74.6467 376.278 74.4561 376.833 74.2827C377.388 74.0921 377.838 73.8754 378.185 73.6327C378.549 73.3901 378.731 73.0694 378.731 72.6707V71.0587C378.731 70.3307 378.618 69.7761 378.393 69.3947C378.185 69.0134 377.899 68.7621 377.535 68.6407C377.171 68.5021 376.764 68.4327 376.313 68.4327C375.88 68.4327 375.412 68.4934 374.909 68.6147C374.424 68.7361 374.034 68.9874 373.739 69.3687C374.068 69.4381 374.354 69.6114 374.597 69.8887C374.84 70.1661 374.961 70.5214 374.961 70.9547C374.961 71.3881 374.822 71.7347 374.545 71.9947C374.268 72.2374 373.912 72.3587 373.479 72.3587C372.976 72.3587 372.604 72.2027 372.361 71.8907C372.136 71.5614 372.023 71.1974 372.023 70.7987C372.023 70.3481 372.136 69.9841 372.361 69.7067C372.586 69.4294 372.872 69.1694 373.219 68.9267C373.618 68.6494 374.129 68.4154 374.753 68.2247C375.394 68.0167 376.114 67.9127 376.911 67.9127C377.622 67.9127 378.228 67.9994 378.731 68.1727C379.234 68.3287 379.65 68.5627 379.979 68.8747C380.43 69.2907 380.724 69.8021 380.863 70.4087C381.002 70.9981 381.071 71.7087 381.071 72.5407V79.7687C381.071 80.2021 381.132 80.5141 381.253 80.7047C381.392 80.8954 381.6 80.9907 381.877 80.9907C382.068 80.9907 382.25 80.9474 382.423 80.8607C382.596 80.7741 382.804 80.6354 383.047 80.4447L383.333 80.8867C382.969 81.1641 382.622 81.3981 382.293 81.5887C381.964 81.7621 381.522 81.8487 380.967 81.8487C380.464 81.8487 380.048 81.7621 379.719 81.5887C379.39 81.4154 379.138 81.1641 378.965 80.8347C378.809 80.4881 378.731 80.0547 378.731 79.5347C378.263 80.3147 377.7 80.8954 377.041 81.2767C376.4 81.6581 375.672 81.8487 374.857 81.8487ZM375.793 80.8087C376.365 80.8087 376.894 80.6441 377.379 80.3147C377.882 79.9854 378.332 79.4914 378.731 78.8327V73.7367C378.523 74.0314 378.22 74.2827 377.821 74.4907C377.422 74.6814 376.989 74.8807 376.521 75.0887C376.053 75.2794 375.602 75.5134 375.169 75.7907C374.753 76.0507 374.406 76.3974 374.129 76.8307C373.852 77.2641 373.713 77.8274 373.713 78.5207C373.713 79.2141 373.895 79.7687 374.259 80.1847C374.64 80.6007 375.152 80.8087 375.793 80.8087ZM391.836 67.9127C393.258 67.9127 394.436 68.5021 395.372 69.6807C396.308 70.8421 396.776 72.6101 396.776 74.9847C396.776 76.5447 396.508 77.8534 395.97 78.9107C395.45 79.9507 394.748 80.7307 393.864 81.2507C392.98 81.7707 392.018 82.0307 390.978 82.0307C390.112 82.0307 389.271 81.7881 388.456 81.3027C387.659 80.8001 387.061 80.0634 386.662 79.0927L387.182 79.3787C387.616 80.0721 388.153 80.5921 388.794 80.9387C389.436 81.2681 390.094 81.4327 390.77 81.4327C391.932 81.4327 392.798 80.9127 393.37 79.8727C393.96 78.8154 394.254 77.1861 394.254 74.9847C394.254 73.5807 394.142 72.4107 393.916 71.4747C393.691 70.5387 393.344 69.8454 392.876 69.3947C392.408 68.9267 391.81 68.6927 391.082 68.6927C390.285 68.6927 389.54 69.0567 388.846 69.7847C388.17 70.4954 387.754 71.5441 387.598 72.9307L387.286 72.5667C387.477 71.0934 387.988 69.9494 388.82 69.1347C389.67 68.3201 390.675 67.9127 391.836 67.9127ZM387.78 61.3087V80.3147C387.555 80.5054 387.321 80.7047 387.078 80.9127C386.853 81.1034 386.628 81.2941 386.402 81.4847C386.177 81.6754 385.943 81.8747 385.7 82.0827L385.258 81.9007C385.328 81.6581 385.371 81.4154 385.388 81.1727C385.423 80.9127 385.44 80.6527 385.44 80.3927V64.4287C385.44 63.6487 385.302 63.0767 385.024 62.7127C384.747 62.3314 384.227 62.1407 383.464 62.1407V61.5947C384.019 61.6467 384.556 61.6727 385.076 61.6727C385.579 61.6727 386.056 61.6467 386.506 61.5947C386.974 61.5254 387.399 61.4301 387.78 61.3087ZM402.645 61.2827V79.2487C402.645 79.9767 402.792 80.4707 403.087 80.7307C403.399 80.9907 403.91 81.1207 404.621 81.1207V81.6667C404.326 81.6494 403.876 81.6321 403.269 81.6147C402.68 81.5801 402.082 81.5627 401.475 81.5627C400.886 81.5627 400.288 81.5801 399.681 81.6147C399.074 81.6321 398.624 81.6494 398.329 81.6667V81.1207C399.04 81.1207 399.542 80.9907 399.837 80.7307C400.149 80.4707 400.305 79.9767 400.305 79.2487V64.4027C400.305 63.6227 400.166 63.0507 399.889 62.6867C399.612 62.3054 399.092 62.1147 398.329 62.1147V61.5687C398.884 61.6207 399.421 61.6467 399.941 61.6467C400.444 61.6467 400.92 61.6207 401.371 61.5687C401.839 61.4994 402.264 61.4041 402.645 61.2827ZM412.014 67.9127C413.54 67.9127 414.727 68.3807 415.576 69.3167C416.443 70.2354 416.876 71.6741 416.876 73.6327H407.698L407.672 73.1387H414.38C414.415 72.2894 414.346 71.5094 414.172 70.7987C413.999 70.0707 413.722 69.4901 413.34 69.0567C412.976 68.6234 412.5 68.4067 411.91 68.4067C411.113 68.4067 410.402 68.8054 409.778 69.6027C409.172 70.4001 408.808 71.6654 408.686 73.3987L408.764 73.5027C408.73 73.7627 408.704 74.0487 408.686 74.3607C408.669 74.6727 408.66 74.9847 408.66 75.2967C408.66 76.4754 408.851 77.4894 409.232 78.3387C409.614 79.1881 410.108 79.8381 410.714 80.2887C411.338 80.7221 411.98 80.9387 412.638 80.9387C413.158 80.9387 413.652 80.8607 414.12 80.7047C414.588 80.5314 415.022 80.2541 415.42 79.8727C415.819 79.4914 416.166 78.9801 416.46 78.3387L416.98 78.5467C416.79 79.1187 416.478 79.6734 416.044 80.2107C415.611 80.7481 415.065 81.1901 414.406 81.5367C413.748 81.8661 412.985 82.0307 412.118 82.0307C410.87 82.0307 409.796 81.7447 408.894 81.1727C408.01 80.6007 407.326 79.8121 406.84 78.8067C406.372 77.7841 406.138 76.6141 406.138 75.2967C406.138 73.7714 406.381 72.4627 406.866 71.3707C407.352 70.2614 408.036 69.4121 408.92 68.8227C409.804 68.2161 410.836 67.9127 412.014 67.9127ZM438.635 63.2587C438.566 63.8654 438.514 64.4547 438.479 65.0267C438.462 65.5987 438.453 66.0321 438.453 66.3267C438.453 66.6387 438.462 66.9421 438.479 67.2367C438.497 67.5141 438.514 67.7481 438.531 67.9387H437.933C437.829 66.9161 437.682 66.1101 437.491 65.5207C437.301 64.9141 436.971 64.4894 436.503 64.2467C436.053 63.9867 435.368 63.8567 434.449 63.8567H432.291C431.702 63.8567 431.251 63.9087 430.939 64.0127C430.645 64.0994 430.445 64.2987 430.341 64.6107C430.237 64.9054 430.185 65.3734 430.185 66.0147V78.9107C430.185 79.5347 430.237 80.0027 430.341 80.3147C430.445 80.6267 430.645 80.8347 430.939 80.9387C431.251 81.0254 431.702 81.0687 432.291 81.0687H434.189C435.281 81.0687 436.105 80.9214 436.659 80.6267C437.231 80.3321 437.639 79.8554 437.881 79.1967C438.141 78.5207 438.332 77.6107 438.453 76.4667H439.051C438.999 76.9347 438.973 77.5587 438.973 78.3387C438.973 78.6681 438.982 79.1447 438.999 79.7687C439.034 80.3754 439.086 81.0081 439.155 81.6667C438.271 81.6321 437.275 81.6147 436.165 81.6147C435.056 81.5974 434.068 81.5887 433.201 81.5887C432.82 81.5887 432.326 81.5887 431.719 81.5887C431.13 81.5887 430.489 81.5974 429.795 81.6147C429.102 81.6147 428.4 81.6234 427.689 81.6407C426.979 81.6407 426.303 81.6494 425.661 81.6667V81.1467C426.251 81.1121 426.693 81.0427 426.987 80.9387C427.299 80.8347 427.507 80.6267 427.611 80.3147C427.715 80.0027 427.767 79.5347 427.767 78.9107V66.0147C427.767 65.3734 427.715 64.9054 427.611 64.6107C427.507 64.2987 427.299 64.0907 426.987 63.9867C426.693 63.8654 426.251 63.7961 425.661 63.7787V63.2587C426.303 63.2761 426.979 63.2934 427.689 63.3107C428.4 63.3107 429.102 63.3194 429.795 63.3367C430.489 63.3367 431.13 63.3367 431.719 63.3367C432.326 63.3367 432.82 63.3367 433.201 63.3367C433.999 63.3367 434.9 63.3367 435.905 63.3367C436.928 63.3194 437.838 63.2934 438.635 63.2587ZM434.163 72.1507C434.163 72.1507 434.163 72.2374 434.163 72.4107C434.163 72.5841 434.163 72.6707 434.163 72.6707H429.405C429.405 72.6707 429.405 72.5841 429.405 72.4107C429.405 72.2374 429.405 72.1507 429.405 72.1507H434.163ZM434.917 68.7187C434.848 69.7067 434.813 70.4607 434.813 70.9807C434.831 71.5007 434.839 71.9774 434.839 72.4107C434.839 72.8441 434.848 73.3207 434.865 73.8407C434.883 74.3607 434.926 75.1147 434.995 76.1027H434.397C434.328 75.5481 434.241 75.0107 434.137 74.4907C434.051 73.9534 433.843 73.5201 433.513 73.1907C433.201 72.8441 432.664 72.6707 431.901 72.6707V72.1507C432.473 72.1507 432.907 72.0381 433.201 71.8127C433.513 71.5701 433.739 71.2667 433.877 70.9027C434.016 70.5387 434.111 70.1661 434.163 69.7847C434.215 69.3861 434.267 69.0307 434.319 68.7187H434.917ZM445.301 61.2827V79.2487C445.301 79.9767 445.448 80.4707 445.743 80.7307C446.055 80.9907 446.566 81.1207 447.277 81.1207V81.6667C446.982 81.6494 446.532 81.6321 445.925 81.6147C445.336 81.5801 444.738 81.5627 444.131 81.5627C443.542 81.5627 442.944 81.5801 442.337 81.6147C441.73 81.6321 441.28 81.6494 440.985 81.6667V81.1207C441.696 81.1207 442.198 80.9907 442.493 80.7307C442.805 80.4707 442.961 79.9767 442.961 79.2487V64.4027C442.961 63.6227 442.822 63.0507 442.545 62.6867C442.268 62.3054 441.748 62.1147 440.985 62.1147V61.5687C441.54 61.6207 442.077 61.6467 442.597 61.6467C443.1 61.6467 443.576 61.6207 444.027 61.5687C444.495 61.4994 444.92 61.4041 445.301 61.2827ZM454.671 67.9127C456.196 67.9127 457.383 68.3807 458.233 69.3167C459.099 70.2354 459.533 71.6741 459.533 73.6327H450.355L450.329 73.1387H457.037C457.071 72.2894 457.002 71.5094 456.829 70.7987C456.655 70.0707 456.378 69.4901 455.997 69.0567C455.633 68.6234 455.156 68.4067 454.567 68.4067C453.769 68.4067 453.059 68.8054 452.435 69.6027C451.828 70.4001 451.464 71.6654 451.343 73.3987L451.421 73.5027C451.386 73.7627 451.36 74.0487 451.343 74.3607C451.325 74.6727 451.317 74.9847 451.317 75.2967C451.317 76.4754 451.507 77.4894 451.889 78.3387C452.27 79.1881 452.764 79.8381 453.371 80.2887C453.995 80.7221 454.636 80.9387 455.295 80.9387C455.815 80.9387 456.309 80.8607 456.777 80.7047C457.245 80.5314 457.678 80.2541 458.077 79.8727C458.475 79.4914 458.822 78.9801 459.117 78.3387L459.637 78.5467C459.446 79.1187 459.134 79.6734 458.701 80.2107C458.267 80.7481 457.721 81.1901 457.063 81.5367C456.404 81.8661 455.641 82.0307 454.775 82.0307C453.527 82.0307 452.452 81.7447 451.551 81.1727C450.667 80.6007 449.982 79.8121 449.497 78.8067C449.029 77.7841 448.795 76.6141 448.795 75.2967C448.795 73.7714 449.037 72.4627 449.523 71.3707C450.008 70.2614 450.693 69.4121 451.577 68.8227C452.461 68.2161 453.492 67.9127 454.671 67.9127ZM470.085 67.9127C470.692 67.9127 471.22 67.9994 471.671 68.1727C472.122 68.3461 472.494 68.5887 472.789 68.9007C473.118 69.2474 473.344 69.6981 473.465 70.2527C473.586 70.8074 473.647 71.4921 473.647 72.3067V79.2487C473.647 79.9767 473.794 80.4707 474.089 80.7307C474.401 80.9907 474.912 81.1207 475.623 81.1207V81.6667C475.328 81.6494 474.878 81.6321 474.271 81.6147C473.664 81.5801 473.075 81.5627 472.503 81.5627C471.931 81.5627 471.368 81.5801 470.813 81.6147C470.276 81.6321 469.868 81.6494 469.591 81.6667V81.1207C470.215 81.1207 470.657 80.9907 470.917 80.7307C471.177 80.4707 471.307 79.9767 471.307 79.2487V71.7347C471.307 71.1974 471.272 70.7034 471.203 70.2527C471.134 69.8021 470.96 69.4381 470.683 69.1607C470.406 68.8834 469.955 68.7447 469.331 68.7447C468.655 68.7447 468.048 68.9527 467.511 69.3687C466.991 69.7847 466.575 70.3567 466.263 71.0847C465.968 71.7954 465.821 72.5927 465.821 73.4767V79.2487C465.821 79.9767 465.951 80.4707 466.211 80.7307C466.471 80.9907 466.913 81.1207 467.537 81.1207V81.6667C467.26 81.6494 466.844 81.6321 466.289 81.6147C465.752 81.5801 465.197 81.5627 464.625 81.5627C464.053 81.5627 463.464 81.5801 462.857 81.6147C462.25 81.6321 461.8 81.6494 461.505 81.6667V81.1207C462.216 81.1207 462.718 80.9907 463.013 80.7307C463.325 80.4707 463.481 79.9767 463.481 79.2487V71.1107C463.481 70.3307 463.342 69.7587 463.065 69.3947C462.788 69.0134 462.268 68.8227 461.505 68.8227V68.2767C462.06 68.3287 462.597 68.3547 463.117 68.3547C463.62 68.3547 464.096 68.3287 464.547 68.2767C465.015 68.2074 465.44 68.1121 465.821 67.9907V71.0587C466.272 69.9321 466.887 69.1261 467.667 68.6407C468.447 68.1554 469.253 67.9127 470.085 67.9127ZM477.911 67.9127C478.518 67.9127 479.046 67.9994 479.497 68.1727C479.948 68.3461 480.32 68.5887 480.615 68.9007C480.944 69.2474 481.17 69.6981 481.291 70.2527C481.412 70.8074 481.473 71.4921 481.473 72.3067V79.2487C481.473 79.9767 481.62 80.4707 481.915 80.7307C482.227 80.9907 482.738 81.1207 483.449 81.1207V81.6667C483.154 81.6494 482.704 81.6321 482.097 81.6147C481.49 81.5801 480.901 81.5627 480.329 81.5627C479.757 81.5627 479.194 81.5801 478.639 81.6147C478.102 81.6321 477.694 81.6494 477.417 81.6667V81.1207C478.041 81.1207 478.483 80.9907 478.743 80.7307C479.003 80.4707 479.133 79.9767 479.133 79.2487V71.7347C479.133 71.1974 479.098 70.7034 479.029 70.2527C478.96 69.8021 478.786 69.4381 478.509 69.1607C478.232 68.8834 477.781 68.7447 477.157 68.7447C476.481 68.7447 475.874 68.9527 475.337 69.3687C474.817 69.7847 474.401 70.3481 474.089 71.0587C473.794 71.7694 473.647 72.5667 473.647 73.4507L473.569 71.0327C474.037 69.8367 474.67 69.0221 475.467 68.5887C476.264 68.1381 477.079 67.9127 477.911 67.9127ZM490.903 67.9127C492.428 67.9127 493.616 68.3807 494.465 69.3167C495.332 70.2354 495.765 71.6741 495.765 73.6327H486.587L486.561 73.1387H493.269C493.304 72.2894 493.234 71.5094 493.061 70.7987C492.888 70.0707 492.61 69.4901 492.229 69.0567C491.865 68.6234 491.388 68.4067 490.799 68.4067C490.002 68.4067 489.291 68.8054 488.667 69.6027C488.06 70.4001 487.696 71.6654 487.575 73.3987L487.653 73.5027C487.618 73.7627 487.592 74.0487 487.575 74.3607C487.558 74.6727 487.549 74.9847 487.549 75.2967C487.549 76.4754 487.74 77.4894 488.121 78.3387C488.502 79.1881 488.996 79.8381 489.603 80.2887C490.227 80.7221 490.868 80.9387 491.527 80.9387C492.047 80.9387 492.541 80.8607 493.009 80.7047C493.477 80.5314 493.91 80.2541 494.309 79.8727C494.708 79.4914 495.054 78.9801 495.349 78.3387L495.869 78.5467C495.678 79.1187 495.366 79.6734 494.933 80.2107C494.5 80.7481 493.954 81.1901 493.295 81.5367C492.636 81.8661 491.874 82.0307 491.007 82.0307C489.759 82.0307 488.684 81.7447 487.783 81.1727C486.899 80.6007 486.214 79.8121 485.729 78.8067C485.261 77.7841 485.027 76.6141 485.027 75.2967C485.027 73.7714 485.27 72.4627 485.755 71.3707C486.24 70.2614 486.925 69.4121 487.809 68.8227C488.693 68.2161 489.724 67.9127 490.903 67.9127ZM506.473 67.9127C507.132 67.9127 507.678 67.9994 508.111 68.1727C508.562 68.3461 508.935 68.5887 509.229 68.9007C509.559 69.2474 509.793 69.6807 509.931 70.2007C510.07 70.7207 510.139 71.4227 510.139 72.3067V79.2487C510.139 79.9767 510.287 80.4707 510.581 80.7307C510.893 80.9907 511.405 81.1207 512.115 81.1207V81.6667C511.821 81.6494 511.37 81.6321 510.763 81.6147C510.157 81.5801 509.567 81.5627 508.995 81.5627C508.423 81.5627 507.86 81.5801 507.305 81.6147C506.768 81.6321 506.361 81.6494 506.083 81.6667V81.1207C506.707 81.1207 507.149 80.9907 507.409 80.7307C507.669 80.4707 507.799 79.9767 507.799 79.2487V71.7347C507.799 71.1974 507.756 70.7034 507.669 70.2527C507.583 69.8021 507.383 69.4381 507.071 69.1607C506.777 68.8834 506.317 68.7447 505.693 68.7447C504.965 68.7447 504.324 68.9527 503.769 69.3687C503.232 69.7847 502.807 70.3567 502.495 71.0847C502.201 71.7954 502.053 72.5927 502.053 73.4767V79.2487C502.053 79.9767 502.183 80.4707 502.443 80.7307C502.703 80.9907 503.145 81.1207 503.769 81.1207V81.6667C503.492 81.6494 503.076 81.6321 502.521 81.6147C501.984 81.5801 501.429 81.5627 500.857 81.5627C500.285 81.5627 499.696 81.5801 499.089 81.6147C498.483 81.6321 498.032 81.6494 497.737 81.6667V81.1207C498.448 81.1207 498.951 80.9907 499.245 80.7307C499.557 80.4707 499.713 79.9767 499.713 79.2487V71.1107C499.713 70.3307 499.575 69.7587 499.297 69.3947C499.02 69.0134 498.5 68.8227 497.737 68.8227V68.2767C498.292 68.3287 498.829 68.3547 499.349 68.3547C499.852 68.3547 500.329 68.3287 500.779 68.2767C501.247 68.2074 501.672 68.1121 502.053 67.9907V71.0587C502.504 69.8801 503.128 69.0654 503.925 68.6147C504.74 68.1467 505.589 67.9127 506.473 67.9127ZM517.437 63.9607V68.3027H521.285V68.8227H517.437V78.8847C517.437 79.6994 517.584 80.2714 517.879 80.6007C518.174 80.9301 518.581 81.0947 519.101 81.0947C519.621 81.0947 520.072 80.8867 520.453 80.4707C520.834 80.0374 521.164 79.3181 521.441 78.3127L521.961 78.4427C521.788 79.4481 521.441 80.2974 520.921 80.9907C520.418 81.6841 519.638 82.0307 518.581 82.0307C517.992 82.0307 517.506 81.9527 517.125 81.7967C516.744 81.6581 516.406 81.4501 516.111 81.1727C515.73 80.7741 515.461 80.2974 515.305 79.7427C515.166 79.1881 515.097 78.4514 515.097 77.5327V68.8227H512.601V68.3027H515.097V64.3247C515.53 64.3074 515.946 64.2727 516.345 64.2207C516.744 64.1687 517.108 64.0821 517.437 63.9607ZM527.096 67.9127C527.79 67.9127 528.379 68.0254 528.864 68.2507C529.35 68.4761 529.705 68.6841 529.93 68.8747C530.502 69.3427 530.849 69.0307 530.97 67.9387H531.568C531.534 68.4241 531.508 69.0047 531.49 69.6807C531.473 70.3394 531.464 71.2321 531.464 72.3587H530.866C530.762 71.7174 530.58 71.0934 530.32 70.4867C530.078 69.8801 529.714 69.3861 529.228 69.0047C528.743 68.6061 528.11 68.4067 527.33 68.4067C526.724 68.4067 526.212 68.5801 525.796 68.9267C525.398 69.2561 525.198 69.7501 525.198 70.4087C525.198 70.9287 525.354 71.3794 525.666 71.7607C525.978 72.1247 526.386 72.4714 526.888 72.8007C527.391 73.1127 527.937 73.4594 528.526 73.8407C529.185 74.2567 529.783 74.6814 530.32 75.1147C530.858 75.5481 531.282 76.0247 531.594 76.5447C531.924 77.0647 532.088 77.6801 532.088 78.3907C532.088 79.1881 531.88 79.8554 531.464 80.3927C531.048 80.9301 530.502 81.3374 529.826 81.6147C529.168 81.8921 528.44 82.0307 527.642 82.0307C527.261 82.0307 526.897 81.9961 526.55 81.9267C526.221 81.8747 525.9 81.7881 525.588 81.6667C525.415 81.5801 525.233 81.4761 525.042 81.3547C524.869 81.2334 524.696 81.1034 524.522 80.9647C524.349 80.8261 524.193 80.8347 524.054 80.9907C523.916 81.1294 523.812 81.4154 523.742 81.8487H523.144C523.179 81.2941 523.205 80.6181 523.222 79.8207C523.24 79.0234 523.248 77.9661 523.248 76.6487H523.846C523.968 77.6194 524.141 78.4687 524.366 79.1967C524.592 79.9247 524.947 80.4967 525.432 80.9127C525.918 81.3114 526.594 81.5107 527.46 81.5107C527.807 81.5107 528.154 81.4327 528.5 81.2767C528.864 81.1207 529.168 80.8607 529.41 80.4967C529.653 80.1327 529.774 79.6474 529.774 79.0407C529.774 78.2781 529.497 77.6541 528.942 77.1687C528.388 76.6834 527.686 76.1721 526.836 75.6347C526.212 75.2361 525.623 74.8374 525.068 74.4387C524.531 74.0401 524.089 73.5894 523.742 73.0867C523.413 72.5841 523.248 71.9774 523.248 71.2667C523.248 70.4867 523.422 69.8541 523.768 69.3687C524.132 68.8661 524.609 68.5021 525.198 68.2767C525.788 68.0341 526.42 67.9127 527.096 67.9127ZM543.51 61.7767C543.961 61.7767 544.351 61.9414 544.68 62.2707C545.009 62.6001 545.174 62.9901 545.174 63.4407C545.174 63.8914 545.009 64.2814 544.68 64.6107C544.351 64.9401 543.961 65.1047 543.51 65.1047C543.059 65.1047 542.669 64.9401 542.34 64.6107C542.011 64.2814 541.846 63.8914 541.846 63.4407C541.846 62.9901 542.011 62.6001 542.34 62.2707C542.669 61.9414 543.059 61.7767 543.51 61.7767ZM544.862 67.9907V79.2487C544.862 79.9767 545.009 80.4707 545.304 80.7307C545.616 80.9907 546.127 81.1207 546.838 81.1207V81.6667C546.543 81.6494 546.093 81.6321 545.486 81.6147C544.897 81.5801 544.299 81.5627 543.692 81.5627C543.103 81.5627 542.505 81.5801 541.898 81.6147C541.291 81.6321 540.841 81.6494 540.546 81.6667V81.1207C541.257 81.1207 541.759 80.9907 542.054 80.7307C542.366 80.4707 542.522 79.9767 542.522 79.2487V71.1107C542.522 70.3307 542.383 69.7587 542.106 69.3947C541.829 69.0134 541.309 68.8227 540.546 68.8227V68.2767C541.101 68.3287 541.638 68.3547 542.158 68.3547C542.661 68.3547 543.137 68.3287 543.588 68.2767C544.056 68.2074 544.481 68.1121 544.862 67.9907ZM556.899 67.9127C557.558 67.9127 558.104 67.9994 558.537 68.1727C558.988 68.3461 559.361 68.5887 559.655 68.9007C559.985 69.2474 560.219 69.6807 560.357 70.2007C560.496 70.7207 560.565 71.4227 560.565 72.3067V79.2487C560.565 79.9767 560.713 80.4707 561.007 80.7307C561.319 80.9907 561.831 81.1207 562.541 81.1207V81.6667C562.247 81.6494 561.796 81.6321 561.189 81.6147C560.583 81.5801 559.993 81.5627 559.421 81.5627C558.849 81.5627 558.286 81.5801 557.731 81.6147C557.194 81.6321 556.787 81.6494 556.509 81.6667V81.1207C557.133 81.1207 557.575 80.9907 557.835 80.7307C558.095 80.4707 558.225 79.9767 558.225 79.2487V71.7347C558.225 71.1974 558.182 70.7034 558.095 70.2527C558.009 69.8021 557.809 69.4381 557.497 69.1607C557.203 68.8834 556.743 68.7447 556.119 68.7447C555.391 68.7447 554.75 68.9527 554.195 69.3687C553.658 69.7847 553.233 70.3567 552.921 71.0847C552.627 71.7954 552.479 72.5927 552.479 73.4767V79.2487C552.479 79.9767 552.609 80.4707 552.869 80.7307C553.129 80.9907 553.571 81.1207 554.195 81.1207V81.6667C553.918 81.6494 553.502 81.6321 552.947 81.6147C552.41 81.5801 551.855 81.5627 551.283 81.5627C550.711 81.5627 550.122 81.5801 549.515 81.6147C548.909 81.6321 548.458 81.6494 548.163 81.6667V81.1207C548.874 81.1207 549.377 80.9907 549.671 80.7307C549.983 80.4707 550.139 79.9767 550.139 79.2487V71.1107C550.139 70.3307 550.001 69.7587 549.723 69.3947C549.446 69.0134 548.926 68.8227 548.163 68.8227V68.2767C548.718 68.3287 549.255 68.3547 549.775 68.3547C550.278 68.3547 550.755 68.3287 551.205 68.2767C551.673 68.2074 552.098 68.1121 552.479 67.9907V71.0587C552.93 69.8801 553.554 69.0654 554.351 68.6147C555.166 68.1467 556.015 67.9127 556.899 67.9127ZM570.489 63.2587C570.853 63.2761 571.33 63.2934 571.919 63.3107C572.509 63.3281 573.089 63.3367 573.661 63.3367C574.476 63.3367 575.256 63.3281 576.001 63.3107C576.747 63.2934 577.275 63.2847 577.587 63.2847C579.685 63.2847 581.253 63.7614 582.293 64.7147C583.333 65.6681 583.853 66.8987 583.853 68.4067C583.853 69.0307 583.749 69.6894 583.541 70.3827C583.333 71.0587 582.969 71.6914 582.449 72.2807C581.947 72.8527 581.253 73.3207 580.369 73.6847C579.485 74.0487 578.367 74.2307 577.015 74.2307H574.519V73.7107H576.755C577.986 73.7107 578.922 73.4767 579.563 73.0087C580.222 72.5407 580.664 71.9254 580.889 71.1627C581.132 70.4001 581.253 69.5767 581.253 68.6927C581.253 67.0461 580.924 65.8154 580.265 65.0007C579.624 64.1861 578.515 63.7787 576.937 63.7787C576.14 63.7787 575.62 63.9261 575.377 64.2207C575.135 64.5154 575.013 65.1134 575.013 66.0147V78.9107C575.013 79.5347 575.074 80.0027 575.195 80.3147C575.334 80.6267 575.594 80.8347 575.975 80.9387C576.357 81.0427 576.911 81.1121 577.639 81.1467V81.6667C577.189 81.6321 576.617 81.6147 575.923 81.6147C575.23 81.5974 574.528 81.5887 573.817 81.5887C573.141 81.5887 572.509 81.5974 571.919 81.6147C571.33 81.6147 570.853 81.6321 570.489 81.6667V81.1467C571.079 81.1121 571.521 81.0427 571.815 80.9387C572.127 80.8347 572.335 80.6267 572.439 80.3147C572.543 80.0027 572.595 79.5347 572.595 78.9107V66.0147C572.595 65.3734 572.543 64.9054 572.439 64.6107C572.335 64.2987 572.127 64.0907 571.815 63.9867C571.521 63.8654 571.079 63.7961 570.489 63.7787V63.2587ZM589.266 61.2827V79.2487C589.266 79.9767 589.413 80.4707 589.708 80.7307C590.02 80.9907 590.531 81.1207 591.242 81.1207V81.6667C590.947 81.6494 590.497 81.6321 589.89 81.6147C589.301 81.5801 588.703 81.5627 588.096 81.5627C587.507 81.5627 586.909 81.5801 586.302 81.6147C585.695 81.6321 585.245 81.6494 584.95 81.6667V81.1207C585.661 81.1207 586.163 80.9907 586.458 80.7307C586.77 80.4707 586.926 79.9767 586.926 79.2487V64.4027C586.926 63.6227 586.787 63.0507 586.51 62.6867C586.233 62.3054 585.713 62.1147 584.95 62.1147V61.5687C585.505 61.6207 586.042 61.6467 586.562 61.6467C587.065 61.6467 587.541 61.6207 587.992 61.5687C588.46 61.4994 588.885 61.4041 589.266 61.2827ZM596.263 81.8487C595.553 81.8487 594.937 81.7187 594.417 81.4587C593.897 81.1814 593.499 80.8001 593.221 80.3147C592.961 79.8294 592.831 79.2661 592.831 78.6247C592.831 77.8621 593.005 77.2381 593.351 76.7527C593.715 76.2674 594.175 75.8774 594.729 75.5827C595.284 75.2881 595.865 75.0454 596.471 74.8547C597.095 74.6467 597.685 74.4561 598.239 74.2827C598.794 74.0921 599.245 73.8754 599.591 73.6327C599.955 73.3901 600.137 73.0694 600.137 72.6707V71.0587C600.137 70.3307 600.025 69.7761 599.799 69.3947C599.591 69.0134 599.305 68.7621 598.941 68.6407C598.577 68.5021 598.17 68.4327 597.719 68.4327C597.286 68.4327 596.818 68.4934 596.315 68.6147C595.83 68.7361 595.44 68.9874 595.145 69.3687C595.475 69.4381 595.761 69.6114 596.003 69.8887C596.246 70.1661 596.367 70.5214 596.367 70.9547C596.367 71.3881 596.229 71.7347 595.951 71.9947C595.674 72.2374 595.319 72.3587 594.885 72.3587C594.383 72.3587 594.01 72.2027 593.767 71.8907C593.542 71.5614 593.429 71.1974 593.429 70.7987C593.429 70.3481 593.542 69.9841 593.767 69.7067C593.993 69.4294 594.279 69.1694 594.625 68.9267C595.024 68.6494 595.535 68.4154 596.159 68.2247C596.801 68.0167 597.52 67.9127 598.317 67.9127C599.028 67.9127 599.635 67.9994 600.137 68.1727C600.64 68.3287 601.056 68.5627 601.385 68.8747C601.836 69.2907 602.131 69.8021 602.269 70.4087C602.408 70.9981 602.477 71.7087 602.477 72.5407V79.7687C602.477 80.2021 602.538 80.5141 602.659 80.7047C602.798 80.8954 603.006 80.9907 603.283 80.9907C603.474 80.9907 603.656 80.9474 603.829 80.8607C604.003 80.7741 604.211 80.6354 604.453 80.4447L604.739 80.8867C604.375 81.1641 604.029 81.3981 603.699 81.5887C603.37 81.7621 602.928 81.8487 602.373 81.8487C601.871 81.8487 601.455 81.7621 601.125 81.5887C600.796 81.4154 600.545 81.1641 600.371 80.8347C600.215 80.4881 600.137 80.0547 600.137 79.5347C599.669 80.3147 599.106 80.8954 598.447 81.2767C597.806 81.6581 597.078 81.8487 596.263 81.8487ZM597.199 80.8087C597.771 80.8087 598.3 80.6441 598.785 80.3147C599.288 79.9854 599.739 79.4914 600.137 78.8327V73.7367C599.929 74.0314 599.626 74.2827 599.227 74.4907C598.829 74.6814 598.395 74.8807 597.927 75.0887C597.459 75.2794 597.009 75.5134 596.575 75.7907C596.159 76.0507 595.813 76.3974 595.535 76.8307C595.258 77.2641 595.119 77.8274 595.119 78.5207C595.119 79.2141 595.301 79.7687 595.665 80.1847C596.047 80.6007 596.558 80.8087 597.199 80.8087ZM614.257 67.9127C614.915 67.9127 615.461 67.9994 615.895 68.1727C616.345 68.3461 616.718 68.5887 617.013 68.9007C617.342 69.2474 617.576 69.6807 617.715 70.2007C617.853 70.7207 617.923 71.4227 617.923 72.3067V79.2487C617.923 79.9767 618.07 80.4707 618.365 80.7307C618.677 80.9907 619.188 81.1207 619.899 81.1207V81.6667C619.604 81.6494 619.153 81.6321 618.547 81.6147C617.94 81.5801 617.351 81.5627 616.779 81.5627C616.207 81.5627 615.643 81.5801 615.089 81.6147C614.551 81.6321 614.144 81.6494 613.867 81.6667V81.1207C614.491 81.1207 614.933 80.9907 615.193 80.7307C615.453 80.4707 615.583 79.9767 615.583 79.2487V71.7347C615.583 71.1974 615.539 70.7034 615.453 70.2527C615.366 69.8021 615.167 69.4381 614.855 69.1607C614.56 68.8834 614.101 68.7447 613.477 68.7447C612.749 68.7447 612.107 68.9527 611.553 69.3687C611.015 69.7847 610.591 70.3567 610.279 71.0847C609.984 71.7954 609.837 72.5927 609.837 73.4767V79.2487C609.837 79.9767 609.967 80.4707 610.227 80.7307C610.487 80.9907 610.929 81.1207 611.553 81.1207V81.6667C611.275 81.6494 610.859 81.6321 610.305 81.6147C609.767 81.5801 609.213 81.5627 608.641 81.5627C608.069 81.5627 607.479 81.5801 606.873 81.6147C606.266 81.6321 605.815 81.6494 605.521 81.6667V81.1207C606.231 81.1207 606.734 80.9907 607.029 80.7307C607.341 80.4707 607.497 79.9767 607.497 79.2487V71.1107C607.497 70.3307 607.358 69.7587 607.081 69.3947C606.803 69.0134 606.283 68.8227 605.521 68.8227V68.2767C606.075 68.3287 606.613 68.3547 607.133 68.3547C607.635 68.3547 608.112 68.3287 608.563 68.2767C609.031 68.2074 609.455 68.1121 609.837 67.9907V71.0587C610.287 69.8801 610.911 69.0654 611.709 68.6147C612.523 68.1467 613.373 67.9127 614.257 67.9127ZM625.22 63.9607V68.3027H629.068V68.8227H625.22V78.8847C625.22 79.6994 625.368 80.2714 625.662 80.6007C625.957 80.9301 626.364 81.0947 626.884 81.0947C627.404 81.0947 627.855 80.8867 628.236 80.4707C628.618 80.0374 628.947 79.3181 629.224 78.3127L629.744 78.4427C629.571 79.4481 629.224 80.2974 628.704 80.9907C628.202 81.6841 627.422 82.0307 626.364 82.0307C625.775 82.0307 625.29 81.9527 624.908 81.7967C624.527 81.6581 624.189 81.4501 623.894 81.1727C623.513 80.7741 623.244 80.2974 623.088 79.7427C622.95 79.1881 622.88 78.4514 622.88 77.5327V68.8227H620.384V68.3027H622.88V64.3247C623.314 64.3074 623.73 64.2727 624.128 64.2207C624.527 64.1687 624.891 64.0821 625.22 63.9607ZM634.88 67.9127C635.573 67.9127 636.162 68.0254 636.648 68.2507C637.133 68.4761 637.488 68.6841 637.714 68.8747C638.286 69.3427 638.632 69.0307 638.754 67.9387H639.352C639.317 68.4241 639.291 69.0047 639.274 69.6807C639.256 70.3394 639.248 71.2321 639.248 72.3587H638.65C638.546 71.7174 638.364 71.0934 638.104 70.4867C637.861 69.8801 637.497 69.3861 637.012 69.0047C636.526 68.6061 635.894 68.4067 635.114 68.4067C634.507 68.4067 633.996 68.5801 633.58 68.9267C633.181 69.2561 632.982 69.7501 632.982 70.4087C632.982 70.9287 633.138 71.3794 633.45 71.7607C633.762 72.1247 634.169 72.4714 634.672 72.8007C635.174 73.1127 635.72 73.4594 636.31 73.8407C636.968 74.2567 637.566 74.6814 638.104 75.1147C638.641 75.5481 639.066 76.0247 639.378 76.5447C639.707 77.0647 639.872 77.6801 639.872 78.3907C639.872 79.1881 639.664 79.8554 639.248 80.3927C638.832 80.9301 638.286 81.3374 637.61 81.6147C636.951 81.8921 636.223 82.0307 635.426 82.0307C635.044 82.0307 634.68 81.9961 634.334 81.9267C634.004 81.8747 633.684 81.7881 633.372 81.6667C633.198 81.5801 633.016 81.4761 632.826 81.3547C632.652 81.2334 632.479 81.1034 632.306 80.9647C632.132 80.8261 631.976 80.8347 631.838 80.9907C631.699 81.1294 631.595 81.4154 631.526 81.8487H630.928C630.962 81.2941 630.988 80.6181 631.006 79.8207C631.023 79.0234 631.032 77.9661 631.032 76.6487H631.63C631.751 77.6194 631.924 78.4687 632.15 79.1967C632.375 79.9247 632.73 80.4967 633.216 80.9127C633.701 81.3114 634.377 81.5107 635.244 81.5107C635.59 81.5107 635.937 81.4327 636.284 81.2767C636.648 81.1207 636.951 80.8607 637.194 80.4967C637.436 80.1327 637.558 79.6474 637.558 79.0407C637.558 78.2781 637.28 77.6541 636.726 77.1687C636.171 76.6834 635.469 76.1721 634.62 75.6347C633.996 75.2361 633.406 74.8374 632.852 74.4387C632.314 74.0401 631.872 73.5894 631.526 73.0867C631.196 72.5841 631.032 71.9774 631.032 71.2667C631.032 70.4867 631.205 69.8541 631.552 69.3687C631.916 68.8661 632.392 68.5021 632.982 68.2767C633.571 68.0341 634.204 67.9127 634.88 67.9127Z" fill="#3B2369"/>
</svg>
